<?xml version="1.0" standalone="no"?>
<!DOCTYPE svg PUBLIC "-//W3C//DTD SVG 1.1//EN" "http://www.w3.org/Graphics/SVG/1.1/DTD/svg11.dtd" >
<svg xmlns="http://www.w3.org/2000/svg">
<metadata>
This is a custom SVG webfont generated by Font Squirrel.
Copyright   : Nothing
</metadata>
<defs>
<font id="5x5squareRegular" horiz-adv-x="1536" >
<font-face units-per-em="2048" ascent="1638" descent="-410" />
<missing-glyph horiz-adv-x="2304" />
<glyph unicode=" "  horiz-adv-x="2304" />
<glyph unicode="&#x09;" horiz-adv-x="2304" />
<glyph unicode="&#xa0;" horiz-adv-x="2304" />
<glyph unicode="!" horiz-adv-x="512" d="M0 0v256h256v-256h-256zM0 512v256v256v256h256v-256v-256v-256h-256z" />
<glyph unicode="&#x22;" horiz-adv-x="1024" d="M0 768v256v256h256v-256v-256h-256zM512 768v256v256h256v-256v-256h-256z" />
<glyph unicode="#" d="M0 256v256h256v256h-256v256h256v256h256v-256h256v256h256v-256h256v-256h-256v-256h256v-256h-256v-256h-256v256h-256v-256h-256v256h-256zM512 512h256v256h-256v-256z" />
<glyph unicode="$" d="M0 0v256h256h256v256h-256h-256v256v256v256h256h256h256h256h256v-256h-256h-256v-256h256h256v-256v-256v-256h-256h-256h-256h-256h-256zM256 768h256v256h-256v-256zM768 256h256v256h-256v-256z" />
<glyph unicode="%" d="M0 0v256h256v-256h-256zM0 1024v256h256v-256h-256zM256 256v256h256v-256h-256zM512 512v256h256v-256h-256zM768 768v256h256v-256h-256zM1024 0v256h256v-256h-256zM1024 1024v256h256v-256h-256z" />
<glyph unicode="&#x26;" horiz-adv-x="1280" d="M0 256v256h256v-256h-256zM0 768v256h256v-256h-256zM256 0v256h256v-256h-256zM256 512v256h256v-256h-256zM256 1024v256h256v-256h-256zM512 256v256h256v-256h-256zM512 768v256h256v-256h-256zM768 0v256h256v-256h-256z" />
<glyph unicode="'" horiz-adv-x="768" d="M0 768v256h256v-256h-256zM256 1024v256h256v-256h-256z" />
<glyph unicode="(" horiz-adv-x="768" d="M0 256v256v256v256h256v-256v-256v-256h-256zM256 0v256h256v-256h-256zM256 1024v256h256v-256h-256z" />
<glyph unicode=")" horiz-adv-x="768" d="M0 0v256h256v-256h-256zM0 1024v256h256v-256h-256zM256 256v256v256v256h256v-256v-256v-256h-256z" />
<glyph unicode="*" horiz-adv-x="1024" d="M0 768v256h256v-256h-256zM256 512v256h256v-256h-256zM256 1024v256h256v-256h-256zM512 768v256h256v-256h-256z" />
<glyph unicode="+" horiz-adv-x="1024" d="M0 512v256h256v256h256v-256h256v-256h-256v-256h-256v256h-256z" />
<glyph unicode="," horiz-adv-x="768" d="M0 0v256h256v-256h-256zM256 256v256h256v-256h-256z" />
<glyph unicode="-" horiz-adv-x="1024" d="M0 512v256h256h256h256v-256h-256h-256h-256z" />
<glyph unicode="." horiz-adv-x="512" d="M0 0v256h256v-256h-256z" />
<glyph unicode="/" d="M0 0v256h256v-256h-256zM256 256v256h256v-256h-256zM512 512v256h256v-256h-256zM768 768v256h256v-256h-256zM1024 1024v256h256v-256h-256z" />
<glyph unicode="0" d="M0 256v256v256v256h256v-256v-256v-256h-256zM256 0v256h256h256h256v-256h-256h-256h-256zM256 1024v256h256h256h256v-256h-256h-256h-256zM1024 256v256v256v256h256v-256v-256v-256h-256z" />
<glyph unicode="1" horiz-adv-x="768" d="M0 768v256h256v256h256v-256v-256v-256v-256v-256h-256v256v256v256h-256z" />
<glyph unicode="2" horiz-adv-x="1280" d="M0 0v256h256v256h256v-256h256h256v-256h-256h-256h-256h-256zM0 768v256h256v-256h-256zM256 1024v256h256h256v-256h-256h-256zM512 512v256h256v-256h-256zM768 768v256h256v-256h-256z" />
<glyph unicode="3" horiz-adv-x="1280" d="M0 0v256h256h256h256v-256h-256h-256h-256zM0 512v256h256h256h256v-256h-256h-256h-256zM0 1024v256h256h256h256v-256h-256h-256h-256zM768 256v256h256v-256h-256zM768 768v256h256v-256h-256z" />
<glyph unicode="4" horiz-adv-x="1280" d="M0 256v256v256h256v-256h256v256h-256v256h256v256h256v-256v-256v-256h256v-256h-256v-256h-256v256h-256h-256z" />
<glyph unicode="5" horiz-adv-x="1280" d="M0 0v256h256h256h256v-256h-256h-256h-256zM0 512v256v256v256h256h256h256h256v-256h-256h-256h-256v-256h256h256v-256h-256h-256h-256zM768 256v256h256v-256h-256z" />
<glyph unicode="6" horiz-adv-x="1280" d="M0 256v256v256v256h256v-256h256h256v-256h-256h-256v-256h-256zM256 0v256h256h256v-256h-256h-256zM256 1024v256h256h256v-256h-256h-256zM768 256v256h256v-256h-256z" />
<glyph unicode="7" horiz-adv-x="1024" d="M0 1024v256h256h256h256v-256v-256h-256v256h-256h-256zM256 0v256v256v256h256v-256v-256v-256h-256z" />
<glyph unicode="8" d="M0 256v256h256v-256h-256zM0 768v256h256v-256h-256zM256 0v256h256h256h256v-256h-256h-256h-256zM256 512v256h256h256h256v-256h-256h-256h-256zM256 1024v256h256h256h256v-256h-256h-256h-256zM1024 256v256h256v-256h-256zM1024 768v256h256v-256h-256z" />
<glyph unicode="9" d="M0 768v256h256v-256h-256zM256 0v256h256h256h256v-256h-256h-256h-256zM256 512v256h256h256h256v256h256v-256v-256v-256h-256v256h-256h-256h-256zM256 1024v256h256h256h256v-256h-256h-256h-256z" />
<glyph unicode=":" horiz-adv-x="512" d="M0 256v256h256v-256h-256zM0 768v256h256v-256h-256z" />
<glyph unicode=";" horiz-adv-x="512" d="M0 0v256v256h256v-256v-256h-256zM0 768v256h256v-256h-256z" />
<glyph unicode="&#x3c;" horiz-adv-x="768" d="M0 512v256h256v-256h-256zM256 256v256h256v-256h-256zM256 768v256h256v-256h-256z" />
<glyph unicode="=" horiz-adv-x="1024" d="M0 256v256h256h256h256v-256h-256h-256h-256zM0 768v256h256h256h256v-256h-256h-256h-256z" />
<glyph unicode="&#x3e;" horiz-adv-x="768" d="M0 256v256h256v-256h-256zM0 768v256h256v-256h-256zM256 512v256h256v-256h-256z" />
<glyph unicode="?" horiz-adv-x="768" d="M0 0v256h256v-256h-256zM0 512v256h256v-256h-256zM0 1024v256h256v-256h-256zM256 768v256h256v-256h-256z" />
<glyph unicode="@" horiz-adv-x="2048" d="M0 512v256v256v256h256v-256v-256v-256h-256zM256 256v256h256v-256h-256zM256 1280v256h256v-256h-256zM512 0v256h256h256v-256h-256h-256zM512 768v256h256v-256h-256zM512 1536v256h256h256h256v-256h-256h-256h-256zM768 512v256h256v256h256v-256v-256h-256h-256z M768 1024v256h256v-256h-256zM1280 256v256h256v-256h-256zM1280 1280v256h256v-256h-256zM1536 512v256v256v256h256v-256v-256v-256h-256z" />
<glyph unicode="A" d="M0 0v256v256v256v256v256h256h256h256h256h256v-256v-256v-256v-256v-256h-256v256v256h-256h-256h-256v-256v-256h-256zM256 768h256h256h256v256h-256h-256h-256v-256z" />
<glyph unicode="B" d="M0 0v256v256v256v256v256h256h256h256h256h256v-256v-256h-256v256h-256h-256h-256v-256h256h256h256v-256h-256h-256h-256v-256h256h256h256v256h256v-256v-256h-256h-256h-256h-256h-256z" />
<glyph unicode="C" d="M0 0v256v256v256v256v256h256h256h256h256h256v-256h-256h-256h-256h-256v-256v-256v-256h256h256h256h256v-256h-256h-256h-256h-256h-256z" />
<glyph unicode="D" d="M0 0v256v256v256v256v256h256h256h256h256v-256h-256h-256h-256v-256v-256v-256h256h256h256v-256h-256h-256h-256h-256zM1024 256v256v256v256h256v-256v-256v-256h-256z" />
<glyph unicode="E" d="M0 0v256v256v256v256v256h256h256h256h256h256v-256h-256h-256h-256h-256v-256h256h256v-256h-256h-256v-256h256h256h256h256v-256h-256h-256h-256h-256h-256z" />
<glyph unicode="F" d="M0 0v256v256v256v256v256h256h256h256h256h256v-256h-256h-256h-256h-256v-256h256h256v-256h-256h-256v-256v-256h-256z" />
<glyph unicode="G" d="M0 0v256v256v256v256v256h256h256h256h256h256v-256h-256h-256h-256h-256v-256v-256v-256h256h256h256v256h-256h-256v256h256h256h256v-256v-256v-256h-256h-256h-256h-256h-256z" />
<glyph unicode="H" d="M0 0v256v256v256v256v256h256v-256v-256h256h256h256v256v256h256v-256v-256v-256v-256v-256h-256v256v256h-256h-256h-256v-256v-256h-256z" />
<glyph unicode="I" horiz-adv-x="512" d="M0 0v256v256v256v256v256h256v-256v-256v-256v-256v-256h-256z" />
<glyph unicode="J" d="M0 0v256v256h256v-256h256h256h256v256v256v256v256h256v-256v-256v-256v-256v-256h-256h-256h-256h-256h-256z" />
<glyph unicode="K" horiz-adv-x="1280" d="M0 0v256v256v256v256v256h256v-256v-256h256v-256h-256v-256v-256h-256zM512 256v256h256v-256h-256zM512 768v256h256v-256h-256zM768 0v256h256v-256h-256zM768 1024v256h256v-256h-256z" />
<glyph unicode="L" d="M0 0v256v256v256v256v256h256v-256v-256v-256v-256h256h256h256h256v-256h-256h-256h-256h-256h-256z" />
<glyph unicode="M" d="M0 0v256v256v256v256v256h256v-256h256v-256h-256v-256v-256v-256h-256zM512 512v256h256v-256h-256zM768 768v256h256v256h256v-256v-256v-256v-256v-256h-256v256v256v256h-256z" />
<glyph unicode="N" d="M0 0v256v256v256v256v256h256v-256h256v-256h-256v-256v-256v-256h-256zM512 512v256h256v-256h-256zM768 256v256h256v256v256v256h256v-256v-256v-256v-256v-256h-256v256h-256z" />
<glyph unicode="O" d="M0 0v256v256v256v256v256h256h256h256h256h256v-256v-256v-256v-256v-256h-256h-256h-256h-256h-256zM256 256h256h256h256v256v256v256h-256h-256h-256v-256v-256v-256z" />
<glyph unicode="P" d="M0 0v256v256v256v256v256h256h256h256h256h256v-256v-256v-256h-256h-256h-256h-256v-256v-256h-256zM256 768h256h256h256v256h-256h-256h-256v-256z" />
<glyph unicode="Q" d="M0 0v256v256v256v256v256h256h256h256h256h256v-256v-256v-256v-256v-256h-256h-256h-256h-256h-256zM256 256h256h256v256h256v256v256h-256h-256h-256v-256v-256v-256z" />
<glyph unicode="R" d="M0 0v256v256v256v256v256h256h256h256h256h256v-256v-256h-256v256h-256h-256h-256v-256h256h256h256v-256v-256h-256v256h-256h-256v-256v-256h-256zM1024 0v256h256v-256h-256z" />
<glyph unicode="S" d="M0 0v256h256h256h256h256v256h-256h-256h-256h-256v256v256v256h256h256h256h256h256v-256h-256h-256h-256h-256v-256h256h256h256h256v-256v-256v-256h-256h-256h-256h-256h-256z" />
<glyph unicode="T" d="M0 1024v256h256h256h256h256h256v-256h-256h-256v-256v-256v-256v-256h-256v256v256v256v256h-256h-256z" />
<glyph unicode="U" d="M0 0v256v256v256v256v256h256v-256v-256v-256v-256h256h256h256v256v256v256v256h256v-256v-256v-256v-256v-256h-256h-256h-256h-256h-256z" />
<glyph unicode="V" d="M0 512v256v256v256h256v-256v-256v-256h-256zM256 256v256h256v-256h-256zM512 0v256h256v-256h-256zM768 256v256h256v-256h-256zM1024 512v256v256v256h256v-256v-256v-256h-256z" />
<glyph unicode="W" d="M0 256v256v256v256v256h256v-256v-256v-256v-256h-256zM256 0v256h256v-256h-256zM512 256v256v256v256v256h256v-256v-256v-256v-256h-256zM768 0v256h256v-256h-256zM1024 256v256v256v256v256h256v-256v-256v-256v-256h-256z" />
<glyph unicode="X" d="M0 0v256h256v-256h-256zM0 1024v256h256v-256h-256zM256 256v256h256v-256h-256zM256 768v256h256v-256h-256zM512 512v256h256v-256h-256zM768 256v256h256v-256h-256zM768 768v256h256v-256h-256zM1024 0v256h256v-256h-256zM1024 1024v256h256v-256h-256z" />
<glyph unicode="Y" d="M0 1024v256h256v-256h-256zM256 768v256h256v-256h-256zM512 0v256v256v256h256v-256v-256v-256h-256zM768 768v256h256v-256h-256zM1024 1024v256h256v-256h-256z" />
<glyph unicode="Z" d="M0 0v256h256v256h256v-256h256h256h256v-256h-256h-256h-256h-256h-256zM0 1024v256h256h256h256h256h256v-256h-256v-256h-256v256h-256h-256h-256zM512 512v256h256v-256h-256z" />
<glyph unicode="[" horiz-adv-x="768" d="M0 0v256v256v256v256v256h256h256v-256h-256v-256v-256v-256h256v-256h-256h-256z" />
<glyph unicode="\" d="M0 1024v256h256v-256h-256zM256 768v256h256v-256h-256zM512 512v256h256v-256h-256zM768 256v256h256v-256h-256zM1024 0v256h256v-256h-256z" />
<glyph unicode="]" horiz-adv-x="768" d="M0 0v256h256v256v256v256h-256v256h256h256v-256v-256v-256v-256v-256h-256h-256z" />
<glyph unicode="^" horiz-adv-x="1024" d="M0 768v256h256v-256h-256zM256 1024v256h256v-256h-256zM512 768v256h256v-256h-256z" />
<glyph unicode="_" d="M0 0v256h256h256h256h256h256v-256h-256h-256h-256h-256h-256z" />
<glyph unicode="`" horiz-adv-x="768" d="M0 1024v256h256v-256h-256zM256 768v256h256v-256h-256z" />
<glyph unicode="a" d="M0 0v256v256v256v256v256h256h256h256h256h256v-256v-256v-256v-256v-256h-256v256v256h-256h-256h-256v-256v-256h-256zM256 768h256h256h256v256h-256h-256h-256v-256z" />
<glyph unicode="b" d="M0 0v256v256v256v256v256h256h256h256h256h256v-256v-256h-256v256h-256h-256h-256v-256h256h256h256v-256h-256h-256h-256v-256h256h256h256v256h256v-256v-256h-256h-256h-256h-256h-256z" />
<glyph unicode="c" d="M0 0v256v256v256v256v256h256h256h256h256h256v-256h-256h-256h-256h-256v-256v-256v-256h256h256h256h256v-256h-256h-256h-256h-256h-256z" />
<glyph unicode="d" d="M0 0v256v256v256v256v256h256h256h256h256v-256h-256h-256h-256v-256v-256v-256h256h256h256v-256h-256h-256h-256h-256zM1024 256v256v256v256h256v-256v-256v-256h-256z" />
<glyph unicode="e" d="M0 0v256v256v256v256v256h256h256h256h256h256v-256h-256h-256h-256h-256v-256h256h256v-256h-256h-256v-256h256h256h256h256v-256h-256h-256h-256h-256h-256z" />
<glyph unicode="f" d="M0 0v256v256v256v256v256h256h256h256h256h256v-256h-256h-256h-256h-256v-256h256h256v-256h-256h-256v-256v-256h-256z" />
<glyph unicode="g" d="M0 0v256v256v256v256v256h256h256h256h256h256v-256h-256h-256h-256h-256v-256v-256v-256h256h256h256v256h-256h-256v256h256h256h256v-256v-256v-256h-256h-256h-256h-256h-256z" />
<glyph unicode="h" d="M0 0v256v256v256v256v256h256v-256v-256h256h256h256v256v256h256v-256v-256v-256v-256v-256h-256v256v256h-256h-256h-256v-256v-256h-256z" />
<glyph unicode="i" horiz-adv-x="512" d="M0 0v256v256v256v256v256h256v-256v-256v-256v-256v-256h-256z" />
<glyph unicode="j" d="M0 0v256v256h256v-256h256h256h256v256v256v256v256h256v-256v-256v-256v-256v-256h-256h-256h-256h-256h-256z" />
<glyph unicode="k" horiz-adv-x="1280" d="M0 0v256v256v256v256v256h256v-256v-256h256v-256h-256v-256v-256h-256zM512 256v256h256v-256h-256zM512 768v256h256v-256h-256zM768 0v256h256v-256h-256zM768 1024v256h256v-256h-256z" />
<glyph unicode="l" d="M0 0v256v256v256v256v256h256v-256v-256v-256v-256h256h256h256h256v-256h-256h-256h-256h-256h-256z" />
<glyph unicode="m" d="M0 0v256v256v256v256v256h256v-256h256v-256h-256v-256v-256v-256h-256zM512 512v256h256v-256h-256zM768 768v256h256v256h256v-256v-256v-256v-256v-256h-256v256v256v256h-256z" />
<glyph unicode="n" d="M0 0v256v256v256v256v256h256v-256h256v-256h-256v-256v-256v-256h-256zM512 512v256h256v-256h-256zM768 256v256h256v256v256v256h256v-256v-256v-256v-256v-256h-256v256h-256z" />
<glyph unicode="o" d="M0 0v256v256v256v256v256h256h256h256h256h256v-256v-256v-256v-256v-256h-256h-256h-256h-256h-256zM256 256h256h256h256v256v256v256h-256h-256h-256v-256v-256v-256z" />
<glyph unicode="p" d="M0 0v256v256v256v256v256h256h256h256h256h256v-256v-256v-256h-256h-256h-256h-256v-256v-256h-256zM256 768h256h256h256v256h-256h-256h-256v-256z" />
<glyph unicode="q" d="M0 0v256v256v256v256v256h256h256h256h256h256v-256v-256v-256v-256v-256h-256h-256h-256h-256h-256zM256 256h256h256v256h256v256v256h-256h-256h-256v-256v-256v-256z" />
<glyph unicode="r" d="M0 0v256v256v256v256v256h256h256h256h256h256v-256v-256h-256v256h-256h-256h-256v-256h256h256h256v-256v-256h-256v256h-256h-256v-256v-256h-256zM1024 0v256h256v-256h-256z" />
<glyph unicode="s" d="M0 0v256h256h256h256h256v256h-256h-256h-256h-256v256v256v256h256h256h256h256h256v-256h-256h-256h-256h-256v-256h256h256h256h256v-256v-256v-256h-256h-256h-256h-256h-256z" />
<glyph unicode="t" d="M0 1024v256h256h256h256h256h256v-256h-256h-256v-256v-256v-256v-256h-256v256v256v256v256h-256h-256z" />
<glyph unicode="u" d="M0 0v256v256v256v256v256h256v-256v-256v-256v-256h256h256h256v256v256v256v256h256v-256v-256v-256v-256v-256h-256h-256h-256h-256h-256z" />
<glyph unicode="v" d="M0 512v256v256v256h256v-256v-256v-256h-256zM256 256v256h256v-256h-256zM512 0v256h256v-256h-256zM768 256v256h256v-256h-256zM1024 512v256v256v256h256v-256v-256v-256h-256z" />
<glyph unicode="w" d="M0 256v256v256v256v256h256v-256v-256v-256v-256h-256zM256 0v256h256v-256h-256zM512 256v256v256v256v256h256v-256v-256v-256v-256h-256zM768 0v256h256v-256h-256zM1024 256v256v256v256v256h256v-256v-256v-256v-256h-256z" />
<glyph unicode="x" d="M0 0v256h256v-256h-256zM0 1024v256h256v-256h-256zM256 256v256h256v-256h-256zM256 768v256h256v-256h-256zM512 512v256h256v-256h-256zM768 256v256h256v-256h-256zM768 768v256h256v-256h-256zM1024 0v256h256v-256h-256zM1024 1024v256h256v-256h-256z" />
<glyph unicode="y" d="M0 1024v256h256v-256h-256zM256 768v256h256v-256h-256zM512 0v256v256v256h256v-256v-256v-256h-256zM768 768v256h256v-256h-256zM1024 1024v256h256v-256h-256z" />
<glyph unicode="z" d="M0 0v256h256v256h256v-256h256h256h256v-256h-256h-256h-256h-256h-256zM0 1024v256h256h256h256h256h256v-256h-256v-256h-256v256h-256h-256h-256zM512 512v256h256v-256h-256z" />
<glyph unicode="{" horiz-adv-x="768" d="M0 512v256h256v-256h-256zM256 0v256v256h256v-256v-256h-256zM256 768v256v256h256v-256v-256h-256z" />
<glyph unicode="|" horiz-adv-x="512" d="M0 0v256v256v256v256v256h256v-256v-256v-256v-256v-256h-256z" />
<glyph unicode="}" horiz-adv-x="768" d="M0 0v256v256h256v-256v-256h-256zM0 768v256v256h256v-256v-256h-256zM256 512v256h256v-256h-256z" />
<glyph unicode="~" d="M0 256v256h256v-256h-256zM256 512v256h256h256h256v-256h-256h-256h-256zM1024 768v256h256v-256h-256z" />
<glyph unicode="&#xa1;" horiz-adv-x="512" d="M0 0v256v256v256h256v-256v-256v-256h-256zM0 1024v256h256v-256h-256z" />
<glyph unicode="&#xa2;" d="M0 256v256v256v256h256v-256v-256v-256h-256zM256 0v256h256v256v256v256h-256v256h256v256h256v-256h256h256v-256h-256h-256v-256v-256v-256h256h256v-256h-256h-256v-256h-256v256h-256z" />
<glyph unicode="&#xa3;" d="M0 0v256h256v256h-256v256h256v256h256v-256h256h256v-256h-256h-256v-256h256h256h256v-256h-256h-256h-256h-256h-256zM512 1024v256h256h256h256v-256h-256h-256h-256z" />
<glyph unicode="&#xa4;" d="M0 0v256h256v-256h-256zM0 1024v256h256v-256h-256zM256 256v256v256v256h256h256h256v-256v-256v-256h-256h-256h-256zM512 512h256v256h-256v-256zM1024 0v256h256v-256h-256zM1024 1024v256h256v-256h-256z" />
<glyph unicode="&#xa5;" d="M0 1024v256h256v-256h-256zM256 0v256h256v256h-256v256v256h256v-256h256v256h256v-256v-256h-256v-256h256v-256h-256h-256h-256zM1024 1024v256h256v-256h-256z" />
<glyph unicode="&#xa6;" horiz-adv-x="512" d="M0 0v256v256h256v-256v-256h-256zM0 768v256v256h256v-256v-256h-256z" />
<glyph unicode="&#xa7;" d="M0 0v256h256h256v256h256v-256h256v256h-256v256h256h256v-256v-256v-256h-256h-256h-256h-256h-256zM0 512v256v256v256h256h256h256h256h256v-256h-256h-256v-256h-256v256h-256v-256h256v-256h-256h-256z" />
<glyph unicode="&#xa8;" horiz-adv-x="1024" d="M0 768v256h256v-256h-256zM512 768v256h256v-256h-256z" />
<glyph unicode="&#xa9;" horiz-adv-x="2048" d="M0 0v256v256v256v256v256v256v256h256h256h256h256h256h256h256v-256v-256v-256v-256v-256v-256v-256h-256h-256h-256h-256h-256h-256h-256zM256 256h256h256h256h256h256v256v256v256v256v256h-256h-256h-256h-256h-256v-256v-256v-256v-256v-256zM512 512v256v256v256 h256h256h256v-256h-256h-256v-256h256h256v-256h-256h-256h-256z" />
<glyph unicode="&#xaa;" d="M0 0v256v256v256v256v256h256h256h256h256h256v-256v-256v-256v-256v-256h-256v256v256h-256h-256h-256v-256v-256h-256zM256 768h256h256h256v256h-256h-256h-256v-256z" />
<glyph unicode="&#xab;" d="M0 512v256h256v-256h-256zM256 256v256h256v-256h-256zM256 768v256h256v-256h-256zM768 512v256h256v-256h-256zM1024 256v256h256v-256h-256zM1024 768v256h256v-256h-256z" />
<glyph unicode="&#xac;" horiz-adv-x="1280" d="M0 512v256h256h256h256h256v-256v-256h-256v256h-256h-256h-256z" />
<glyph unicode="&#xad;" horiz-adv-x="1280" d="M0 256v256h256h256h256h256v-256h-256h-256h-256h-256z" />
<glyph unicode="&#xae;" horiz-adv-x="2048" d="M0 0v256v256v256v256v256v256v256h256h256h256h256h256h256h256v-256v-256v-256v-256v-256v-256v-256h-256h-256h-256h-256h-256h-256h-256zM256 256h256h256h256h256h256v256v256v256v256v256h-256h-256h-256h-256h-256v-256v-256v-256v-256v-256zM512 512v256v256v256 h256h256h256v-256h-256v-256h-256v-256h-256zM1024 512v256h256v-256h-256z" />
<glyph unicode="&#xaf;" d="M0 0v256h256h256h256h256h256v-256h-256h-256h-256h-256h-256z" />
<glyph unicode="&#xb0;" horiz-adv-x="1024" d="M0 768v256h256v-256h-256zM256 512v256h256v-256h-256zM256 1024v256h256v-256h-256zM512 768v256h256v-256h-256z" />
<glyph unicode="&#xb1;" horiz-adv-x="1024" d="M0 0v256h256h256h256v-256h-256h-256h-256zM0 768v256h256v256h256v-256h256v-256h-256v-256h-256v256h-256z" />
<glyph unicode="&#xb2;" horiz-adv-x="1024" d="M0 512v256v256h256v-256h256h256v-256h-256h-256h-256zM0 1536v256h256h256v-256h-256h-256zM256 1024v256h256v-256h-256zM512 1280v256h256v-256h-256z" />
<glyph unicode="&#xb3;" horiz-adv-x="1024" d="M0 512v256h256h256v-256h-256h-256zM0 1536v256h256h256v-256h-256h-256zM256 1024v256h256v-256h-256zM512 768v256h256v-256h-256zM512 1280v256h256v-256h-256z" />
<glyph unicode="&#xb4;" horiz-adv-x="768" d="M0 768v256h256v-256h-256zM256 1024v256h256v-256h-256z" />
<glyph unicode="&#xb5;" horiz-adv-x="1280" d="M0 0v256v256v256v256v256h256v-256v-256v-256h256h256v256v256v256h256v-256v-256v-256v-256h-256h-256h-256v-256h-256z" />
<glyph unicode="&#xb6;" horiz-adv-x="1280" d="M0 512v256v256h256v256h256h256h256v-256v-256v-256v-256v-256h-256v256v256v256v256h-256v-256v-256v-256v-256h-256v256v256h-256z" />
<glyph unicode="&#xb7;" horiz-adv-x="512" d="M0 512v256h256v-256h-256z" />
<glyph unicode="&#xb8;" horiz-adv-x="768" d="M0 0v256h256v-256h-256zM256 256v256v256h256v-256v-256h-256z" />
<glyph unicode="&#xb9;" horiz-adv-x="768" d="M0 1280v256h256v256h256v-256v-256v-256v-256v-256h-256v256v256v256h-256z" />
<glyph unicode="&#xba;" d="M0 0v256v256v256v256v256h256h256h256h256h256v-256v-256v-256v-256v-256h-256h-256h-256h-256h-256zM256 256h256h256h256v256v256v256h-256h-256h-256v-256v-256v-256z" />
<glyph unicode="&#xbb;" d="M0 256v256h256v-256h-256zM0 768v256h256v-256h-256zM256 512v256h256v-256h-256zM768 256v256h256v-256h-256zM768 768v256h256v-256h-256zM1024 512v256h256v-256h-256z" />
<glyph unicode="&#xbc;" horiz-adv-x="2560" d="M0 0v256h256v-256h-256zM256 256v256h256v-256h-256zM256 1792v256h256v256h256v-256v-256v-256v-256h-256v256v256h-256zM512 512v256h256v-256h-256zM768 768v256h256v-256h-256zM1024 256v256h256v256h256v-256h256v256h-256v256h256v256h256v-256v-256v-256h256v-256 h-256v-256h-256v256h-256h-256h-256zM1024 1024v256h256v-256h-256zM1280 1280v256h256v-256h-256zM1536 1536v256h256v-256h-256zM1792 1792v256h256v-256h-256zM2048 2048v256h256v-256h-256z" />
<glyph unicode="&#xbd;" horiz-adv-x="2560" d="M0 0v256h256v-256h-256zM256 256v256h256v-256h-256zM256 1792v256h256v256h256v-256v-256v-256v-256h-256v256v256h-256zM512 512v256h256v-256h-256zM768 768v256h256v-256h-256zM1024 1024v256h256v-256h-256zM1280 1280v256h256v-256h-256zM1536 0v256h256v256h256 v-256h256v-256h-256h-256h-256zM1536 768v256h256v-256h-256zM1536 1536v256h256v-256h-256zM1792 1024v256h256v-256h-256zM1792 1792v256h256v-256h-256zM2048 512v256v256h256v-256v-256h-256zM2048 2048v256h256v-256h-256z" />
<glyph unicode="&#xbe;" horiz-adv-x="2560" d="M0 0v256h256v-256h-256zM0 1024v256h256h256v-256h-256h-256zM0 2048v256h256h256v-256h-256h-256zM256 256v256h256v-256h-256zM256 1536v256h256v-256h-256zM512 512v256h256v-256h-256zM512 1280v256h256v-256h-256zM512 1792v256h256v-256h-256zM768 768v256h256 v-256h-256zM1024 256v256h256v256h256v-256h256v256h-256v256h256v256h256v-256v-256v-256h256v-256h-256v-256h-256v256h-256h-256h-256zM1024 1024v256h256v-256h-256zM1280 1280v256h256v-256h-256zM1536 1536v256h256v-256h-256zM1792 1792v256h256v-256h-256z M2048 2048v256h256v-256h-256z" />
<glyph unicode="&#xbf;" horiz-adv-x="768" d="M0 256v256h256v-256h-256zM256 0v256h256v-256h-256zM256 512v256h256v-256h-256zM256 1024v256h256v-256h-256z" />
<glyph unicode="&#xc0;" d="M0 0v256v256v256v256v256h256h256h256h256h256v-256v-256v-256v-256v-256h-256v256v256h-256h-256h-256v-256v-256h-256zM256 768h256h256h256v256h-256h-256h-256v-256zM256 1792v256h256v-256h-256zM512 1536v256h256v-256h-256z" />
<glyph unicode="&#xc1;" d="M0 0v256v256v256v256v256h256h256h256h256h256v-256v-256v-256v-256v-256h-256v256v256h-256h-256h-256v-256v-256h-256zM256 768h256h256h256v256h-256h-256h-256v-256zM512 1536v256h256v-256h-256zM768 1792v256h256v-256h-256z" />
<glyph unicode="&#xc2;" d="M0 0v256v256v256v256v256h256h256h256h256h256v-256v-256v-256v-256v-256h-256v256v256h-256h-256h-256v-256v-256h-256zM256 768h256h256h256v256h-256h-256h-256v-256zM256 1536v256h256v-256h-256zM512 1792v256h256v-256h-256zM768 1536v256h256v-256h-256z" />
<glyph unicode="&#xc3;" d="M0 0v256v256v256v256v256h256h256h256h256h256v-256v-256v-256v-256v-256h-256v256v256h-256h-256h-256v-256v-256h-256zM0 1536v256h256v-256h-256zM256 768h256h256h256v256h-256h-256h-256v-256zM256 1792v256h256v-256h-256zM512 1536v256h256v-256h-256zM768 1792 v256h256v-256h-256z" />
<glyph unicode="&#xc4;" d="M0 0v256v256v256v256v256h256h256h256h256h256v-256v-256v-256v-256v-256h-256v256v256h-256h-256h-256v-256v-256h-256zM256 768h256h256h256v256h-256h-256h-256v-256zM256 1536v256h256v-256h-256zM768 1536v256h256v-256h-256z" />
<glyph unicode="&#xc5;" d="M0 0v256v256v256v256v256h256h256h256h256h256v-256v-256v-256v-256v-256h-256v256v256h-256h-256h-256v-256v-256h-256zM256 768h256h256h256v256h-256h-256h-256v-256zM256 1792v256h256v-256h-256zM512 1536v256h256v-256h-256zM512 2048v256h256v-256h-256zM768 1792 v256h256v-256h-256z" />
<glyph unicode="&#xc6;" horiz-adv-x="2048" d="M0 0v256v256v256v256v256h256h256h256h256h256h256h256v-256h-256h-256h-256v-256h256h256v-256h-256h-256v-256h256h256h256v-256h-256h-256h-256h-256v256v256h-256h-256v-256v-256h-256zM256 768h256h256v256h-256h-256v-256z" />
<glyph unicode="&#xc7;" d="M0 0v256v256v256v256v256h256h256h256h256h256v-256h-256h-256h-256h-256v-256v-256v-256h256h256h256h256v-256h-256h-256v-256h-256v256h-256h-256z" />
<glyph unicode="&#xc8;" d="M0 0v256v256v256v256v256h256h256h256h256h256v-256h-256h-256h-256h-256v-256h256h256v-256h-256h-256v-256h256h256h256h256v-256h-256h-256h-256h-256h-256zM256 1792v256h256v-256h-256zM512 1536v256h256v-256h-256z" />
<glyph unicode="&#xc9;" d="M0 0v256v256v256v256v256h256h256h256h256h256v-256h-256h-256h-256h-256v-256h256h256v-256h-256h-256v-256h256h256h256h256v-256h-256h-256h-256h-256h-256zM512 1536v256h256v-256h-256zM768 1792v256h256v-256h-256z" />
<glyph unicode="&#xca;" d="M0 0v256v256v256v256v256h256h256h256h256h256v-256h-256h-256h-256h-256v-256h256h256v-256h-256h-256v-256h256h256h256h256v-256h-256h-256h-256h-256h-256zM256 1536v256h256v-256h-256zM512 1792v256h256v-256h-256zM768 1536v256h256v-256h-256z" />
<glyph unicode="&#xcb;" d="M0 0v256v256v256v256v256h256h256h256h256h256v-256h-256h-256h-256h-256v-256h256h256v-256h-256h-256v-256h256h256h256h256v-256h-256h-256h-256h-256h-256zM256 1536v256h256v-256h-256zM768 1536v256h256v-256h-256z" />
<glyph unicode="&#xcc;" horiz-adv-x="512" d="M0 1792v256h256v-256h-256zM256 0v256v256v256v256v256h256v-256v-256v-256v-256v-256h-256zM256 1536v256h256v-256h-256z" />
<glyph unicode="&#xcd;" horiz-adv-x="768" d="M0 0v256v256v256v256v256h256v-256v-256v-256v-256v-256h-256zM0 1536v256h256v-256h-256zM256 1792v256h256v-256h-256z" />
<glyph unicode="&#xce;" horiz-adv-x="768" d="M0 1536v256h256v-256h-256zM256 0v256v256v256v256v256h256v-256v-256v-256v-256v-256h-256zM256 1792v256h256v-256h-256zM512 1536v256h256v-256h-256z" />
<glyph unicode="&#xcf;" horiz-adv-x="768" d="M0 1536v256h256v-256h-256zM256 0v256v256v256v256v256h256v-256v-256v-256v-256v-256h-256zM512 1536v256h256v-256h-256z" />
<glyph unicode="&#xd0;" horiz-adv-x="1792" d="M0 512v256h256v256v256h256h256h256h256v-256h-256h-256h-256v-256h256v-256h-256v-256h256h256h256v-256h-256h-256h-256h-256v256v256h-256zM1280 256v256v256v256h256v-256v-256v-256h-256z" />
<glyph unicode="&#xd1;" d="M0 0v256v256v256v256v256h256v-256h256v-256h-256v-256v-256v-256h-256zM256 1536v256h256v-256h-256zM512 512v256h256v-256h-256zM512 1792v256h256v-256h-256zM768 256v256h256v256v256v256h256v-256v-256v-256v-256v-256h-256v256h-256zM768 1536v256h256v-256h-256z M1024 1792v256h256v-256h-256z" />
<glyph unicode="&#xd2;" d="M0 0v256v256v256v256v256h256h256h256h256h256v-256v-256v-256v-256v-256h-256h-256h-256h-256h-256zM256 256h256h256h256v256v256v256h-256h-256h-256v-256v-256v-256zM256 1792v256h256v-256h-256zM512 1536v256h256v-256h-256z" />
<glyph unicode="&#xd3;" d="M0 0v256v256v256v256v256h256h256h256h256h256v-256v-256v-256v-256v-256h-256h-256h-256h-256h-256zM256 256h256h256h256v256v256v256h-256h-256h-256v-256v-256v-256zM512 1536v256h256v-256h-256zM768 1792v256h256v-256h-256z" />
<glyph unicode="&#xd4;" d="M0 0v256v256v256v256v256h256h256h256h256h256v-256v-256v-256v-256v-256h-256h-256h-256h-256h-256zM256 256h256h256h256v256v256v256h-256h-256h-256v-256v-256v-256zM256 1536v256h256v-256h-256zM512 1792v256h256v-256h-256zM768 1536v256h256v-256h-256z" />
<glyph unicode="&#xd5;" d="M0 0v256v256v256v256v256h256h256h256h256h256v-256v-256v-256v-256v-256h-256h-256h-256h-256h-256zM256 256h256h256h256v256v256v256h-256h-256h-256v-256v-256v-256zM256 1536v256h256v-256h-256zM512 1792v256h256v-256h-256zM768 1536v256h256v-256h-256z M1024 1792v256h256v-256h-256z" />
<glyph unicode="&#xd6;" d="M0 0v256v256v256v256v256h256h256h256h256h256v-256v-256v-256v-256v-256h-256h-256h-256h-256h-256zM256 256h256h256h256v256v256v256h-256h-256h-256v-256v-256v-256zM256 1536v256h256v-256h-256zM768 1536v256h256v-256h-256z" />
<glyph unicode="&#xd7;" d="M0 0v256h256v-256h-256zM0 1024v256h256v-256h-256zM256 256v256h256v-256h-256zM256 768v256h256v-256h-256zM512 512v256h256v-256h-256zM768 256v256h256v-256h-256zM768 768v256h256v-256h-256zM1024 0v256h256v-256h-256zM1024 1024v256h256v-256h-256z" />
<glyph unicode="&#xd8;" d="M0 0v256v256v256v256v256h256h256h256h256v256h256v-256v-256v-256v-256v-256v-256h-256h-256h-256h-256v-256h-256v256zM256 256h256v256h256v-256h256v256v256v256h-256v-256h-256v256h-256v-256v-256v-256z" />
<glyph unicode="&#xd9;" d="M0 0v256v256v256v256v256h256v-256v-256v-256v-256h256h256h256v256v256v256v256h256v-256v-256v-256v-256v-256h-256h-256h-256h-256h-256zM256 1792v256h256v-256h-256zM512 1536v256h256v-256h-256z" />
<glyph unicode="&#xda;" d="M0 0v256v256v256v256v256h256v-256v-256v-256v-256h256h256h256v256v256v256v256h256v-256v-256v-256v-256v-256h-256h-256h-256h-256h-256zM512 1536v256h256v-256h-256zM768 1792v256h256v-256h-256z" />
<glyph unicode="&#xdb;" d="M0 0v256v256v256v256v256h256v-256v-256v-256v-256h256h256h256v256v256v256v256h256v-256v-256v-256v-256v-256h-256h-256h-256h-256h-256zM256 1536v256h256v-256h-256zM512 1792v256h256v-256h-256zM768 1536v256h256v-256h-256z" />
<glyph unicode="&#xdc;" d="M0 0v256v256v256v256v256h256v-256v-256v-256v-256h256h256h256v256v256v256v256h256v-256v-256v-256v-256v-256h-256h-256h-256h-256h-256zM256 1536v256h256v-256h-256zM768 1536v256h256v-256h-256z" />
<glyph unicode="&#xdd;" d="M0 1024v256h256v-256h-256zM256 768v256h256v-256h-256zM512 0v256v256v256h256v-256v-256v-256h-256zM512 1536v256h256v-256h-256zM768 768v256h256v-256h-256zM768 1792v256h256v-256h-256zM1024 1024v256h256v-256h-256z" />
<glyph unicode="&#xde;" horiz-adv-x="1280" d="M0 0v256v256v256v256v256h256v-256h256h256h256v-256v-256v-256h-256h-256h-256v-256h-256zM256 512h256h256v256h-256h-256v-256z" />
<glyph unicode="&#xdf;" horiz-adv-x="1280" d="M0 0v256v256v256v256v256v256h256h256v-256h-256v-256v-256v-256v-256v-256h-256zM512 0v256h256v-256h-256zM512 768v256v256h256v-256v-256h-256zM768 256v256v256h256v-256v-256h-256z" />
<glyph unicode="&#xe0;" d="M0 0v256v256v256v256v256h256h256h256h256h256v-256v-256v-256v-256v-256h-256v256v256h-256h-256h-256v-256v-256h-256zM256 768h256h256h256v256h-256h-256h-256v-256zM256 1792v256h256v-256h-256zM512 1536v256h256v-256h-256z" />
<glyph unicode="&#xe1;" d="M0 0v256v256v256v256v256h256h256h256h256h256v-256v-256v-256v-256v-256h-256v256v256h-256h-256h-256v-256v-256h-256zM256 768h256h256h256v256h-256h-256h-256v-256zM512 1536v256h256v-256h-256zM768 1792v256h256v-256h-256z" />
<glyph unicode="&#xe2;" d="M0 0v256v256v256v256v256h256h256h256h256h256v-256v-256v-256v-256v-256h-256v256v256h-256h-256h-256v-256v-256h-256zM256 768h256h256h256v256h-256h-256h-256v-256zM256 1536v256h256v-256h-256zM512 1792v256h256v-256h-256zM768 1536v256h256v-256h-256z" />
<glyph unicode="&#xe3;" d="M0 0v256v256v256v256v256h256h256h256h256h256v-256v-256v-256v-256v-256h-256v256v256h-256h-256h-256v-256v-256h-256zM0 1536v256h256v-256h-256zM256 768h256h256h256v256h-256h-256h-256v-256zM256 1792v256h256v-256h-256zM512 1536v256h256v-256h-256zM768 1792 v256h256v-256h-256z" />
<glyph unicode="&#xe4;" d="M0 0v256v256v256v256v256h256h256h256h256h256v-256v-256v-256v-256v-256h-256v256v256h-256h-256h-256v-256v-256h-256zM256 768h256h256h256v256h-256h-256h-256v-256zM256 1536v256h256v-256h-256zM768 1536v256h256v-256h-256z" />
<glyph unicode="&#xe5;" d="M0 0v256v256v256v256v256h256h256h256h256h256v-256v-256v-256v-256v-256h-256v256v256h-256h-256h-256v-256v-256h-256zM256 768h256h256h256v256h-256h-256h-256v-256zM256 1792v256h256v-256h-256zM512 1536v256h256v-256h-256zM512 2048v256h256v-256h-256zM768 1792 v256h256v-256h-256z" />
<glyph unicode="&#xe6;" horiz-adv-x="2048" d="M0 0v256v256v256v256v256h256h256h256h256h256h256h256v-256h-256h-256h-256v-256h256h256v-256h-256h-256v-256h256h256h256v-256h-256h-256h-256h-256v256v256h-256h-256v-256v-256h-256zM256 768h256h256v256h-256h-256v-256z" />
<glyph unicode="&#xe7;" d="M0 0v256v256v256v256v256h256h256h256h256h256v-256h-256h-256h-256h-256v-256v-256v-256h256h256h256h256v-256h-256h-256v-256h-256v256h-256h-256z" />
<glyph unicode="&#xe8;" d="M0 0v256v256v256v256v256h256h256h256h256h256v-256h-256h-256h-256h-256v-256h256h256v-256h-256h-256v-256h256h256h256h256v-256h-256h-256h-256h-256h-256zM256 1792v256h256v-256h-256zM512 1536v256h256v-256h-256z" />
<glyph unicode="&#xe9;" d="M0 0v256v256v256v256v256h256h256h256h256h256v-256h-256h-256h-256h-256v-256h256h256v-256h-256h-256v-256h256h256h256h256v-256h-256h-256h-256h-256h-256zM512 1536v256h256v-256h-256zM768 1792v256h256v-256h-256z" />
<glyph unicode="&#xea;" d="M0 0v256v256v256v256v256h256h256h256h256h256v-256h-256h-256h-256h-256v-256h256h256v-256h-256h-256v-256h256h256h256h256v-256h-256h-256h-256h-256h-256zM256 1536v256h256v-256h-256zM512 1792v256h256v-256h-256zM768 1536v256h256v-256h-256z" />
<glyph unicode="&#xeb;" d="M0 0v256v256v256v256v256h256h256h256h256h256v-256h-256h-256h-256h-256v-256h256h256v-256h-256h-256v-256h256h256h256h256v-256h-256h-256h-256h-256h-256zM256 1536v256h256v-256h-256zM768 1536v256h256v-256h-256z" />
<glyph unicode="&#xec;" horiz-adv-x="512" d="M0 1792v256h256v-256h-256zM256 0v256v256v256v256v256h256v-256v-256v-256v-256v-256h-256zM256 1536v256h256v-256h-256z" />
<glyph unicode="&#xed;" horiz-adv-x="768" d="M0 0v256v256v256v256v256h256v-256v-256v-256v-256v-256h-256zM0 1536v256h256v-256h-256zM256 1792v256h256v-256h-256z" />
<glyph unicode="&#xee;" horiz-adv-x="768" d="M0 1536v256h256v-256h-256zM256 0v256v256v256v256v256h256v-256v-256v-256v-256v-256h-256zM256 1792v256h256v-256h-256zM512 1536v256h256v-256h-256z" />
<glyph unicode="&#xef;" horiz-adv-x="768" d="M0 1536v256h256v-256h-256zM256 0v256v256v256v256v256h256v-256v-256v-256v-256v-256h-256zM512 1536v256h256v-256h-256z" />
<glyph unicode="&#xf0;" horiz-adv-x="1792" d="M0 512v256h256v256v256h256h256h256h256v-256h-256h-256h-256v-256h256v-256h-256v-256h256h256h256v-256h-256h-256h-256h-256v256v256h-256zM1280 256v256v256v256h256v-256v-256v-256h-256z" />
<glyph unicode="&#xf1;" d="M0 0v256v256v256v256v256h256v-256h256v-256h-256v-256v-256v-256h-256zM256 1536v256h256v-256h-256zM512 512v256h256v-256h-256zM512 1792v256h256v-256h-256zM768 256v256h256v256v256v256h256v-256v-256v-256v-256v-256h-256v256h-256zM768 1536v256h256v-256h-256z M1024 1792v256h256v-256h-256z" />
<glyph unicode="&#xf2;" horiz-adv-x="1792" d="M0 0v256v256v256v256v256h256h256h256h256h256v-256v-256v-256v-256h256v-256h-256h-256h-256h-256h-256h-256zM256 256h256h256h256v256v256v256h-256h-256h-256v-256v-256v-256zM256 1792v256h256v-256h-256zM512 1536v256h256v-256h-256z" />
<glyph unicode="&#xf3;" d="M0 0v256v256v256v256v256h256h256h256h256h256v-256v-256v-256v-256v-256h-256h-256h-256h-256h-256zM256 256h256h256h256v256v256v256h-256h-256h-256v-256v-256v-256zM512 1536v256h256v-256h-256zM768 1792v256h256v-256h-256z" />
<glyph unicode="&#xf4;" d="M0 0v256v256v256v256v256h256h256h256h256h256v-256v-256v-256v-256v-256h-256h-256h-256h-256h-256zM256 256h256h256h256v256v256v256h-256h-256h-256v-256v-256v-256zM256 1536v256h256v-256h-256zM512 1792v256h256v-256h-256zM768 1536v256h256v-256h-256z" />
<glyph unicode="&#xf5;" d="M0 0v256v256v256v256v256h256h256h256h256h256v-256v-256v-256v-256v-256h-256h-256h-256h-256h-256zM256 256h256h256h256v256v256v256h-256h-256h-256v-256v-256v-256zM256 1536v256h256v-256h-256zM512 1792v256h256v-256h-256zM768 1536v256h256v-256h-256z M1024 1792v256h256v-256h-256z" />
<glyph unicode="&#xf6;" d="M0 0v256v256v256v256v256h256h256h256h256h256v-256v-256v-256v-256v-256h-256h-256h-256h-256h-256zM256 256h256h256h256v256v256v256h-256h-256h-256v-256v-256v-256zM256 1536v256h256v-256h-256zM768 1536v256h256v-256h-256z" />
<glyph unicode="&#xf7;" d="M0 512v256h256h256h256h256h256v-256h-256h-256h-256h-256h-256zM512 0v256h256v-256h-256zM512 1024v256h256v-256h-256z" />
<glyph unicode="&#xf8;" d="M0 0v256v256v256v256v256h256h256h256h256v256h256v-256v-256v-256v-256v-256v-256h-256h-256h-256h-256v-256h-256v256zM256 256h256v256h256v-256h256v256v256v256h-256v-256h-256v256h-256v-256v-256v-256z" />
<glyph unicode="&#xf9;" d="M0 0v256v256v256v256v256h256v-256v-256v-256v-256h256h256h256v256v256v256v256h256v-256v-256v-256v-256v-256h-256h-256h-256h-256h-256zM256 1792v256h256v-256h-256zM512 1536v256h256v-256h-256z" />
<glyph unicode="&#xfa;" d="M0 0v256v256v256v256v256h256v-256v-256v-256v-256h256h256h256v256v256v256v256h256v-256v-256v-256v-256v-256h-256h-256h-256h-256h-256zM512 1536v256h256v-256h-256zM768 1792v256h256v-256h-256z" />
<glyph unicode="&#xfb;" d="M0 0v256v256v256v256v256h256v-256v-256v-256v-256h256h256h256v256v256v256v256h256v-256v-256v-256v-256v-256h-256h-256h-256h-256h-256zM256 1536v256h256v-256h-256zM512 1792v256h256v-256h-256zM768 1536v256h256v-256h-256z" />
<glyph unicode="&#xfc;" d="M0 0v256v256v256v256v256h256v-256v-256v-256v-256h256h256h256v256v256v256v256h256v-256v-256v-256v-256v-256h-256h-256h-256h-256h-256zM256 1536v256h256v-256h-256zM768 1536v256h256v-256h-256z" />
<glyph unicode="&#xfd;" d="M0 1024v256h256v-256h-256zM256 768v256h256v-256h-256zM512 0v256v256v256h256v-256v-256v-256h-256zM512 1536v256h256v-256h-256zM768 768v256h256v-256h-256zM768 1792v256h256v-256h-256zM1024 1024v256h256v-256h-256z" />
<glyph unicode="&#xfe;" horiz-adv-x="1280" d="M0 0v256v256v256v256v256h256v-256h256h256v-256h-256h-256v-256h256h256v-256h-256h-256v-256h-256zM768 512v256h256v-256h-256z" />
<glyph unicode="&#xff;" d="M0 1024v256h256v-256h-256zM1024 1024v256h256v-256h-256zM1024 1024v256h256v-256h-256zM1024 1024v256h256v-256h-256zM1024 1024v256h256v-256h-256zM1024 1024v256h256v-256h-256zM1024 1024v256h256v-256h-256zM1024 1024v256h256v-256h-256zM1024 1024v256h256 v-256h-256z" />
<glyph unicode="&#x152;" horiz-adv-x="1792" d="M0 0v256v256v256v256v256h256h256h256h256h256h256v-256h-256h-256h-256v-256h256h256v-256h-256h-256v-256h256h256h256v-256h-256h-256h-256h-256h-256h-256zM256 256h256v256v256v256h-256v-256v-256v-256z" />
<glyph unicode="&#x153;" horiz-adv-x="1792" d="M0 256v256v256v256h256v-256v-256v-256h-256zM256 0v256h256v256v256v256h-256v256h256h256h256h256h256v-256h-256h-256h-256v-256h256h256v-256h-256h-256v-256h256h256h256v-256h-256h-256h-256h-256h-256z" />
<glyph unicode="&#x178;" d="M0 1024v256h256v-256h-256zM256 768v256h256v-256h-256zM256 1536v256h256v-256h-256zM512 0v256v256v256h256v-256v-256v-256h-256zM768 768v256h256v-256h-256zM768 1536v256h256v-256h-256zM1024 1024v256h256v-256h-256z" />
<glyph unicode="&#x2c6;" horiz-adv-x="1024" d="M0 768v256h256v-256h-256zM256 1024v256h256v-256h-256zM512 768v256h256v-256h-256z" />
<glyph unicode="&#x2dc;" horiz-adv-x="1280" d="M0 512v256h256v-256h-256zM256 768v256h256v-256h-256zM512 512v256h256v-256h-256zM768 768v256h256v-256h-256z" />
<glyph unicode="&#x2000;" horiz-adv-x="1150" />
<glyph unicode="&#x2001;" horiz-adv-x="2304" />
<glyph unicode="&#x2002;" horiz-adv-x="1150" />
<glyph unicode="&#x2003;" horiz-adv-x="2304" />
<glyph unicode="&#x2004;" horiz-adv-x="768" />
<glyph unicode="&#x2005;" horiz-adv-x="575" />
<glyph unicode="&#x2006;" horiz-adv-x="382" />
<glyph unicode="&#x2007;" horiz-adv-x="382" />
<glyph unicode="&#x2008;" horiz-adv-x="286" />
<glyph unicode="&#x2009;" horiz-adv-x="460" />
<glyph unicode="&#x200a;" horiz-adv-x="126" />
<glyph unicode="&#x2010;" horiz-adv-x="1024" d="M0 512v256h256h256h256v-256h-256h-256h-256z" />
<glyph unicode="&#x2011;" horiz-adv-x="1024" d="M0 512v256h256h256h256v-256h-256h-256h-256z" />
<glyph unicode="&#x2012;" horiz-adv-x="1024" d="M0 512v256h256h256h256v-256h-256h-256h-256z" />
<glyph unicode="&#x2013;" horiz-adv-x="1280" d="M0 0v256h256h256h256h256v-256h-256h-256h-256h-256z" />
<glyph unicode="&#x2014;" d="M0 0v256h256h256h256h256h256v-256h-256h-256h-256h-256h-256z" />
<glyph unicode="&#x2018;" horiz-adv-x="512" d="M0 768v256v256h256v-256v-256h-256z" />
<glyph unicode="&#x2019;" horiz-adv-x="512" d="M0 768v256v256h256v-256v-256h-256z" />
<glyph unicode="&#x201a;" horiz-adv-x="512" d="M0 0v256v256h256v-256v-256h-256z" />
<glyph unicode="&#x201c;" horiz-adv-x="1024" d="M0 768v256v256h256v-256v-256h-256zM512 768v256v256h256v-256v-256h-256z" />
<glyph unicode="&#x201d;" horiz-adv-x="1024" d="M0 768v256v256h256v-256v-256h-256zM512 768v256v256h256v-256v-256h-256z" />
<glyph unicode="&#x201e;" horiz-adv-x="1024" d="M0 768v256v256h256v-256v-256h-256zM512 768v256v256h256v-256v-256h-256z" />
<glyph unicode="&#x2022;" horiz-adv-x="768" d="M0 768v256v256h256h256v-256v-256h-256h-256z" />
<glyph unicode="&#x2026;" d="M0 0v256h256v-256h-256zM512 0v256h256v-256h-256zM1024 0v256h256v-256h-256z" />
<glyph unicode="&#x202f;" horiz-adv-x="460" />
<glyph unicode="&#x2039;" horiz-adv-x="768" d="M0 512v256h256v-256h-256zM256 256v256h256v-256h-256zM256 768v256h256v-256h-256z" />
<glyph unicode="&#x203a;" horiz-adv-x="768" d="M0 512v256h256v-256h-256zM0 1024v256h256v-256h-256zM256 768v256h256v-256h-256z" />
<glyph unicode="&#x205f;" horiz-adv-x="575" />
<glyph unicode="&#x20ac;" d="M0 512v256h256v256h-256v256h256v256v256h256h256h256h256v-256h-256h-256h-256v-256h256h256h256v-256h-256h-256h-256v-256h256h256h256v-256h-256h-256h-256v-256h256h256h256v-256h-256h-256h-256h-256v256v256h-256z" />
<glyph unicode="&#x2122;" horiz-adv-x="2048" d="M0 1024v256h256h256h256v-256h-256v-256v-256h-256v256v256h-256zM1024 512v256v256v256h256v-256h256v256h256v-256v-256v-256h-256v256h-256v-256h-256z" />
<glyph unicode="&#xe000;" horiz-adv-x="1280" d="M0 1280h1280v-1280h-1280v1280z" />
<glyph unicode="&#xfb01;" horiz-adv-x="2048" d="M0 0v256v256v256v256v256h256h256h256h256h256v-256h-256h-256h-256h-256v-256h256h256v-256h-256h-256v-256v-256h-256zM1536 0v256v256v256v256v256h256v-256v-256v-256v-256v-256h-256z" />
<glyph unicode="&#xfb02;" horiz-adv-x="3072" d="M0 0v256v256v256v256v256h256h256h256h256h256v-256h-256h-256h-256h-256v-256h256h256v-256h-256h-256v-256v-256h-256zM1536 0v256v256v256v256v256h256v-256v-256v-256v-256h256h256h256h256v-256h-256h-256h-256h-256h-256z" />
<glyph unicode="&#xfb03;" horiz-adv-x="3584" d="M0 0v256v256v256v256v256h256h256h256h256h256v-256h-256h-256h-256h-256v-256h256h256v-256h-256h-256v-256v-256h-256zM1536 0v256v256v256v256v256h256h256h256h256h256v-256h-256h-256h-256h-256v-256h256h256v-256h-256h-256v-256v-256h-256zM3072 0v256v256v256 v256v256h256v-256v-256v-256v-256v-256h-256z" />
<glyph unicode="&#xfb04;" horiz-adv-x="4608" d="M0 0v256v256v256v256v256h256h256h256h256h256v-256h-256h-256h-256h-256v-256h256h256v-256h-256h-256v-256v-256h-256zM1536 0v256v256v256v256v256h256h256h256h256h256v-256h-256h-256h-256h-256v-256h256h256v-256h-256h-256v-256v-256h-256zM3072 0v256v256v256 v256v256h256v-256v-256v-256v-256h256h256h256h256v-256h-256h-256h-256h-256h-256z" />
</font>
</defs>
</svg>
