<?xml version="1.0" standalone="no"?>
<!DOCTYPE svg PUBLIC "-//W3C//DTD SVG 1.1//EN" "http://www.w3.org/Graphics/SVG/1.1/DTD/svg11.dtd" >
<svg xmlns="http://www.w3.org/2000/svg">
<metadata>
This is a custom SVG webfont generated by Font Squirrel.
Copyright   : Digital font data from The WSIFONT Collection  Copyright c19921994 Weatherly Systems Inc  All Rights Reserved  Redistribution strictly prohibited
</metadata>
<defs>
<font id="ArenaCondensedRegular" horiz-adv-x="1032" >
<font-face units-per-em="2048" ascent="1638" descent="-410" />
<missing-glyph horiz-adv-x="620" />
<glyph unicode=" "  horiz-adv-x="620" />
<glyph unicode="&#x09;" horiz-adv-x="620" />
<glyph unicode="&#xa0;" horiz-adv-x="620" />
<glyph unicode="!" horiz-adv-x="677" d="M225 0v209h226v-209h-226zM242 983v533h194v-533l-33 -612h-129z" />
<glyph unicode="&#x22;" horiz-adv-x="516" d="M80 1032v467h113v-467h-113zM322 1032v467h114v-467h-114z" />
<glyph unicode="#" d="M0 516l33 129h225l80 225h-225l32 129h226l161 533h113l-162 -533h179l161 533h113l-162 -533h225l-32 -129h-226l-79 -225h241l-33 -129h-241l-162 -516h-113l162 516h-178l-160 -516h-115l162 516h-225zM371 645h178l80 225h-178z" />
<glyph unicode="$" d="M63 467h179q0 -190 38.5 -258t170.5 -80v565q-190 68 -280.5 158t-90.5 260q0 190 115.5 297t255.5 107v145h98v-145q201 0 286 -115t85 -305h-179q0 135 -38.5 196.5t-153.5 61.5v-500q270 -113 336.5 -196t66.5 -255q0 -180 -83 -308t-320 -128v-209h-98v209 q-244 0 -316 139.5t-72 360.5zM274 1128q0 -92 43 -147t134 -94v467q-96 -23 -136.5 -71.5t-40.5 -154.5zM549 129q115 0 170 55.5t55 186.5q0 127 -61.5 183t-163.5 91v-516z" />
<glyph unicode="%" horiz-adv-x="1710" d="M96 1112q0 156 59.5 271.5t231.5 115.5q291 0 291 -403q0 -166 -66.5 -260.5t-208.5 -94.5q-162 0 -234.5 96.5t-72.5 274.5zM242 1112q0 -104 32.5 -173t112.5 -69q145 0 145 242q0 113 -28.5 185.5t-116.5 72.5q-86 0 -115.5 -73.5t-29.5 -184.5zM420 -33l692 1565h113 l-693 -1565h-112zM999 387q0 162 62.5 258t212.5 96q139 0 206.5 -85t67.5 -285q0 -371 -274 -371q-145 0 -210 106.5t-65 280.5zM1145 354q0 -100 21.5 -162.5t107.5 -62.5q78 0 103.5 63.5t25.5 178.5q0 135 -33 188t-96 53q-100 0 -114.5 -85t-14.5 -173z" />
<glyph unicode="&#x26;" horiz-adv-x="1370" d="M145 403q0 195 88.5 291.5t233.5 192.5q-86 86 -115.5 172t-29.5 166q0 119 76.5 221t230.5 102q152 0 237.5 -92t85.5 -231q0 -119 -75.5 -209t-182.5 -162l289 -418q31 121 40 176.5t9 112.5h162q0 -121 -27.5 -243t-85.5 -191l226 -291h-226l-114 145 q-57 -82 -155.5 -130t-199.5 -48q-233 0 -350 133t-117 303zM338 420q0 -143 89 -217t202 -74q72 0 139.5 39t118.5 106l-338 484q-98 -80 -154.5 -154.5t-56.5 -183.5zM483 1225q12 -78 46 -141.5t83 -100.5q61 31 111.5 95.5t50.5 162.5q0 61 -38 103.5t-107 42.5 q-72 0 -109 -43t-37 -119z" />
<glyph unicode="'" horiz-adv-x="512" d="M203 1051v462h106v-462h-106z" />
<glyph unicode="(" horiz-adv-x="677" d="M145 549q0 279 81 528.5t241 470.5h113q-152 -281 -205 -489.5t-53 -493.5q0 -330 74.5 -575.5t199.5 -425.5h-129q-104 125 -213 400.5t-109 584.5z" />
<glyph unicode=")" horiz-adv-x="677" d="M80 -436q100 178 179 415.5t79 552.5q0 260 -47 487.5t-211 512.5h129q145 -231 226 -458.5t81 -508.5q0 -279 -79 -533.5t-244 -467.5h-113z" />
<glyph unicode="*" d="M193 1257l49 97l209 -80v258h129v-258l227 80l31 -97l-242 -79l162 -195l-96 -63l-146 192l-162 -192l-80 63l162 195z" />
<glyph unicode="+" d="M80 436v160h356v436h144v-436h356v-160h-356v-436h-144v436h-356z" />
<glyph unicode="," horiz-adv-x="516" d="M162 -16v225h209v-193q0 -154 -61.5 -231.5t-147.5 -91.5v98q63 20 79.5 70.5t16.5 122.5h-96z" />
<glyph unicode="-" horiz-adv-x="677" d="M80 549v176h500v-176h-500z" />
<glyph unicode="." horiz-adv-x="516" d="M162 0v209h192v-209h-192z" />
<glyph unicode="/" horiz-adv-x="565" d="M-33 -49l500 1581h145l-499 -1581h-146z" />
<glyph unicode="0" d="M96 725q0 420 104.5 613.5t315.5 193.5q203 0 293 -112.5t108.5 -262t18.5 -399.5v-101q0 -272 -83 -481t-353 -209q-238 0 -321 212t-83 546zM274 741q0 -313 35 -462.5t207 -149.5q152 0 198 145.5t46 368.5q0 31 -1 59.5t-1 55.5q0 319 -42 465.5t-216 146.5 q-129 -12 -177.5 -157.5t-48.5 -471.5z" />
<glyph unicode="1" d="M162 1112v129q172 16 263 71.5t91 219.5h146v-1532h-179v1112h-321z" />
<glyph unicode="2" d="M80 0q23 238 68 335t143 181l321 322q59 59 78 118.5t19 126.5v62q0 115 -51.5 178t-157.5 63q-113 0 -169.5 -89t-56.5 -281h-178q0 270 83 401t321 131q207 0 305 -119.5t98 -316.5q0 -154 -41 -239t-95 -139l-133 -130q-79 -76 -174 -159t-140.5 -143t-45.5 -140h662 v-162h-856z" />
<glyph unicode="3" d="M63 451h179q0 -147 37.5 -234.5t187.5 -87.5q117 0 187.5 58.5t70.5 215.5q0 209 -93 257.5t-261 48.5v178h41q115 0 190.5 46t75.5 195q0 127 -51.5 192.5t-159.5 65.5q-111 0 -160 -88t-49 -233h-162q0 223 90 353t297 130q170 0 278.5 -108.5t108.5 -278.5 q0 -109 -39.5 -202t-168.5 -136q117 -45 179 -123.5t62 -248.5q0 -233 -109.5 -358.5t-326.5 -125.5q-231 0 -317.5 133.5t-86.5 350.5z" />
<glyph unicode="4" d="M49 387v178l563 983h179v-983h129v-178h-129v-387h-179v387h-563zM209 565h403v692z" />
<glyph unicode="5" d="M96 420h178q0 -139 52.5 -207t173.5 -68q129 0 185 106.5t56 231.5q0 170 -53 278.5t-188 108.5q-84 0 -141.5 -38.5t-84.5 -106.5h-161l96 807h661v-178h-516l-63 -434q45 57 106.5 84.5t134.5 27.5q170 0 279 -120.5t109 -362.5q0 -248 -96.5 -415t-340.5 -167 q-201 0 -294 134.5t-93 318.5z" />
<glyph unicode="6" d="M80 662l16 288q25 246 122 414t314 168q178 0 274.5 -78t96.5 -293h-178q0 104 -43 156.5t-150 52.5q-156 0 -203.5 -159.5t-70.5 -419.5q43 92 120 140t171 48q156 0 271.5 -129t115.5 -367q0 -186 -97.5 -359t-322.5 -173q-238 0 -337 189.5t-99 521.5zM274 467 q0 -143 56.5 -240.5t177.5 -97.5h24q225 0 226 354q0 168 -55.5 254t-186.5 86q-115 0 -178.5 -88t-63.5 -268z" />
<glyph unicode="7" d="M113 1354v162h870v-162q-123 -152 -244 -361t-204.5 -468t-83.5 -525h-193q0 315 109.5 590.5t271.5 515.5l184 248h-710z" />
<glyph unicode="8" d="M96 436q0 139 73 260t218 142q-96 16 -169 92t-73 248q0 137 98.5 253.5t305.5 116.5q201 0 286 -111.5t85 -242.5q0 -119 -46.5 -209t-179.5 -147q82 0 170 -107.5t88 -263.5q0 -190 -96 -345t-324 -155q-211 0 -323.5 115.5t-112.5 353.5zM289 412q0 -123 62.5 -203 t164.5 -80h25q104 0 160.5 93t56.5 245q0 109 -45 200t-164 91q-127 0 -192.5 -84t-65.5 -223q-2 -14 -2 -39zM336 1114q0 -100 62.5 -147t133.5 -47q88 0 140.5 58t52.5 167q0 117 -36 173t-140 68q-125 0 -168 -59t-43 -182q-2 -11 -2 -31z" />
<glyph unicode="9" d="M80 1016q0 174 91 353t312 179q193 0 292 -115.5t130 -272t31 -322.5q0 -365 -79 -618t-374 -253q-197 0 -283.5 102.5t-86.5 284.5h178q0 -119 59.5 -172t132.5 -53q174 0 216 187.5t42 408.5q-12 -84 -92 -138.5t-182 -54.5q-160 0 -273.5 123t-113.5 361zM258 1032 q0 -172 67.5 -255t174.5 -83q125 0 183 101.5t58 269.5q0 158 -72.5 239.5t-168.5 81.5q-139 0 -190.5 -105.5t-51.5 -248.5z" />
<glyph unicode=":" horiz-adv-x="516" d="M145 0v209h193v-209h-193zM145 920v208h193v-208h-193z" />
<glyph unicode=";" horiz-adv-x="516" d="M129 0v225h209v-192q0 -154 -61.5 -231.5t-147.5 -92.5v98q63 20 79.5 70.5t16.5 122.5h-96zM145 936v209h193v-209h-193z" />
<glyph unicode="&#x3c;" d="M80 467v129l872 485v-161l-694 -388l694 -387v-161z" />
<glyph unicode="=" d="M80 242v161h856v-161h-856zM80 645v162h856v-162h-856z" />
<glyph unicode="&#x3e;" d="M96 -16v161l695 387l-695 371v162l871 -469v-145z" />
<glyph unicode="?" d="M96 1049q0 227 102.5 363t301.5 136q213 0 316.5 -106.5t103.5 -296.5q0 -162 -91 -287l-135 -162l-102 -123q-29 -51 -29 -116q0 -25 2 -37v-66h-194v97q0 117 90 239l172 207q92 123 92 231q0 121 -47 189.5t-162 68.5q-147 0 -185 -80.5t-57 -256.5h-178zM371 0v209 h194v-209h-194z" />
<glyph unicode="@" horiz-adv-x="1638" d="M74 760q0 324 230.5 550t553.5 226q279 0 493 -184.5t214 -468.5q0 -98 -33 -195.5t-98.5 -190t-155.5 -154.5t-199 -62q-59 0 -109 26.5t-69 81.5q-45 -47 -112.5 -75.5t-133.5 -28.5q-129 0 -207.5 89t-78.5 220q0 223 148.5 425t363.5 202q76 0 139 -36t94 -102l29 97 h141l-211 -625q-6 -18 -16 -54t-10 -52q0 -59 61 -60q63 0 134 51.5t144.5 158t73.5 292.5q0 242 -181 393.5t-427 151.5q-283 0 -478.5 -204t-195.5 -487q0 -279 201 -477t477 -198q162 0 308.5 75.5t238.5 210.5h123q-96 -176 -280.5 -281.5t-389.5 -105.5 q-330 0 -556 230.5t-226 560.5zM526 604q0 -80 43 -138t117 -58t135.5 57t102.5 138t72.5 175t31.5 170q0 61 -40 105.5t-105 44.5q-150 0 -253.5 -165t-103.5 -329z" />
<glyph unicode="A" horiz-adv-x="1144" d="M16 0l435 1532h243l418 -1532h-192l-113 436h-485l-113 -436h-193zM371 596h387l-193 790z" />
<glyph unicode="B" horiz-adv-x="1144" d="M162 0v1532h403q188 0 319.5 -91t131.5 -313q0 -131 -61.5 -204.5t-163.5 -116.5q145 -23 201.5 -115t56.5 -241q0 -215 -109 -333t-344 -118h-434zM338 162h291q109 0 175 62.5t66 211.5q0 152 -66.5 212.5t-207.5 60.5h-258v-547zM338 870h227q141 0 199.5 77t58.5 181 q0 123 -53 184.5t-174 73.5h-258v-516z" />
<glyph unicode="C" horiz-adv-x="1144" d="M96 741q0 244 24.5 413t135.5 298t340 129q193 0 314.5 -117.5t121.5 -398.5h-162q0 158 -57 256t-233 98q-195 0 -242 -202.5t-47 -475.5q0 -289 52 -450.5t237 -161.5q168 0 221 129t53 307h178q0 -262 -100.5 -430t-335.5 -168q-299 0 -399.5 198.5t-100.5 575.5z" />
<glyph unicode="D" horiz-adv-x="1241" d="M162 0v1532h450q211 0 326 -106.5t152.5 -260t37.5 -342.5q0 -328 -101 -575.5t-447 -247.5h-418zM338 162h274q201 0 262.5 157.5t61.5 366.5v72q0 313 -64.5 462.5t-306.5 149.5h-227v-1208z" />
<glyph unicode="E" d="M145 0v1532h791v-162h-614v-483h565v-162h-565v-563h598v-162h-775z" />
<glyph unicode="F" horiz-adv-x="903" d="M145 0v1532h725v-162h-548v-483h516v-162h-516v-725h-177z" />
<glyph unicode="G" horiz-adv-x="1253" d="M111 778q0 446 137 617.5t370 171.5q215 0 336 -129t121 -348h-172q0 150 -67.5 236.5t-208.5 86.5q-156 0 -229.5 -95t-92 -229.5t-18.5 -316.5q0 -295 47 -475t244 -180q164 0 253 106.5t89 411.5h-342v153h512v-800h-132v239q-35 -127 -131 -195.5t-225 -68.5 q-211 0 -319.5 120t-140 294t-31.5 401z" />
<glyph unicode="H" horiz-adv-x="1247" d="M145 0v1532h162v-629h596v629h162v-1532h-162v741h-596v-741h-162z" />
<glyph unicode="I" horiz-adv-x="565" d="M178 0v1532h176v-1532h-176z" />
<glyph unicode="J" horiz-adv-x="903" d="M49 483h176v-90q0 -121 16.5 -192.5t145.5 -71.5q94 0 143.5 44t49.5 198v1161h178v-1049q0 -276 -60.5 -396t-294.5 -120q-223 0 -288.5 124t-65.5 392z" />
<glyph unicode="K" horiz-adv-x="1146" d="M162 0v1532h176v-774l549 774h225l-500 -645l516 -887h-225l-403 725l-162 -193v-532h-176z" />
<glyph unicode="L" d="M162 0v1532h176v-1370h629v-162h-805z" />
<glyph unicode="M" horiz-adv-x="1597" d="M156 0v1536h301l301 -1198q16 -68 24.5 -114t8.5 -113l19 112q9 55 24 117l305 1196h299v-1536h-170v1266v194l-51 -207l-322 -1253h-203l-321 1272l-45 188v-198v-1262h-170z" />
<glyph unicode="N" horiz-adv-x="1257" d="M145 0v1532h291l484 -1387v1387h176v-1532h-289l-485 1403v-1403h-177z" />
<glyph unicode="O" horiz-adv-x="1257" d="M113 791q0 223 19.5 364t133 275.5t363.5 134.5q211 0 325.5 -116t152.5 -288t38 -387q0 -217 -22.5 -374.5t-136.5 -295t-357 -137.5q-297 0 -406.5 206t-109.5 618zM291 791q4 -109 13 -259.5t81 -284.5t244 -134q203 0 264 144t61 384q0 47 -1 85t-1 65 q0 297 -64.5 454.5t-275.5 157.5q-186 0 -253.5 -175t-67.5 -437z" />
<glyph unicode="P" horiz-adv-x="1144" d="M178 0v1532h434q201 0 335 -95.5t134 -355.5q0 -199 -106.5 -317.5t-345.5 -118.5h-275v-645h-176zM354 807h242q152 0 221.5 63.5t69.5 225.5q0 131 -69.5 194.5t-205.5 63.5h-258v-547z" />
<glyph unicode="Q" horiz-adv-x="1257" d="M113 741q0 393 112.5 608.5t386.5 215.5q266 0 391 -168t125 -590q0 -246 -21.5 -353.5t-90.5 -260.5l178 -144l-98 -112l-176 143q-63 -63 -143.5 -88t-147.5 -25q-297 0 -406.5 213t-109.5 561zM291 725q0 -266 70.5 -431t267.5 -165q55 0 102 19.5t60 44.5l-146 114 l96 113l129 -113q31 39 57.5 172t26.5 250q-2 27 -2 39v23q0 369 -88 490.5t-252 121.5q-199 0 -260 -179.5t-61 -416.5v-82z" />
<glyph unicode="R" horiz-adv-x="1257" d="M178 0v1532h451q250 0 350 -104.5t117 -282.5q0 -150 -87 -254.5t-202 -116.5q127 -33 174 -56.5t68 -137.5q14 -166 36 -354q21 -178 71 -177h5v-49h-209q-41 78 -52 378t-238 300h-308v-678h-176zM354 838h275q133 0 204.5 67.5t71.5 186.5q0 25 -2 36 q-12 129 -85 185.5t-222 56.5h-242v-532z" />
<glyph unicode="S" horiz-adv-x="1138" d="M104 487h170q0 -193 56.5 -281.5t234.5 -88.5q135 0 214 67.5t79 200.5q0 182 -54 212t-174 75l-195 71q-75 27 -152.5 68t-117.5 126t-40 210q0 190 118.5 305t309.5 115q213 0 324.5 -109.5t111.5 -324.5h-170q0 129 -60.5 204.5t-183.5 75.5q-164 0 -219 -78t-55 -196 q0 -154 145 -209l244 -92q209 -78 276.5 -165t67.5 -249q0 -219 -127 -340t-350 -121q-139 0 -248.5 52.5t-151.5 146.5t-47.5 163.5t-5.5 161.5z" />
<glyph unicode="T" d="M16 1354v178h967v-178h-387v-1354h-176v1354h-404z" />
<glyph unicode="U" horiz-adv-x="1259" d="M162 436v1096h176v-1096q0 -172 73.5 -239.5t217.5 -67.5q154 0 222.5 83t68.5 255v1065h176v-1161q0 -158 -92.5 -281t-358.5 -123q-285 0 -384 114.5t-99 354.5z" />
<glyph unicode="V" horiz-adv-x="1144" d="M49 1532h176l355 -1419l372 1419h176l-450 -1532h-211z" />
<glyph unicode="W" horiz-adv-x="1710" d="M16 1532h193l211 -1049l31 -305l49 305l225 1049h211l225 -1096l33 -274l31 274l227 1096h176l-321 -1532h-226l-227 1178l-31 225l-16 -225l-242 -1178h-227z" />
<glyph unicode="X" horiz-adv-x="1146" d="M33 0l434 774l-418 758h209l307 -596l322 596h209l-418 -758l434 -774h-225l-322 629l-307 -629h-225z" />
<glyph unicode="Y" horiz-adv-x="1155" d="M16 1532h209l340 -758l338 758h193l-434 -952v-580h-179v580z" />
<glyph unicode="Z" d="M49 0v162l709 1208h-695v162h889v-162l-710 -1208h725v-162h-918z" />
<glyph unicode="[" horiz-adv-x="677" d="M209 -436v1984h371v-145h-209v-1694h209v-145h-371z" />
<glyph unicode="\" horiz-adv-x="516" d="M-80 1532h129l531 -1532h-129z" />
<glyph unicode="]" horiz-adv-x="677" d="M96 -291h211v1694h-194v129h354v-1952h-371v129z" />
<glyph unicode="^" horiz-adv-x="1034" d="M145 985l306 531h129l307 -531h-113l-258 354l-258 -354h-113z" />
<glyph unicode="_" d="M-16 -113h1032v-129h-1032v129z" />
<glyph unicode="`" horiz-adv-x="677" d="M49 1565h242l176 -291h-145z" />
<glyph unicode="a" horiz-adv-x="903" d="M63 274q0 137 44.5 211t134.5 111l258 98q45 14 70.5 34t25.5 63v112q0 55 -35 92t-125 37q-106 0 -142 -47t-36 -162h-145q-2 16 -3 35t-1 27q0 143 92 218t235 75q221 0 279.5 -97.5t58.5 -257.5v-598q0 -57 22.5 -76.5t73.5 -19.5v-129q-47 -6 -84 -6 q-84 0 -124.5 32.5t-49.5 118.5q-45 -92 -112.5 -135t-145.5 -43q-166 0 -228.5 83t-62.5 224zM231 295q0 -94 34 -141.5t126 -47.5q68 0 132.5 54.5t64.5 177.5v276q-49 -29 -120 -61l-129 -59q-58 -27 -83 -81.5t-25 -117.5z" />
<glyph unicode="b" horiz-adv-x="1034" d="M145 0v1565h177v-516q47 70 115.5 107.5t142.5 37.5q178 0 267 -140.5t89 -408.5q0 -342 -87 -510t-269 -168q-88 0 -157 39t-116 123v-129h-162zM307 549q0 -147 65.5 -291.5t176.5 -144.5q143 0 176 154.5t33 344.5q0 195 -52.5 316t-156.5 121q-121 0 -181.5 -123 t-60.5 -377z" />
<glyph unicode="c" horiz-adv-x="903" d="M80 549q0 289 82 467t321 178q143 0 241.5 -121t98.5 -282h-161q0 100 -43.5 170.5t-135.5 70.5q-137 0 -181 -127t-44 -297v-59q0 -203 38 -319.5t187 -116.5q94 0 136.5 75.5t42.5 214.5h161q0 -160 -69.5 -298t-270.5 -138q-225 0 -314 150.5t-89 431.5z" />
<glyph unicode="d" horiz-adv-x="1034" d="M96 559q0 322 84 478.5t271 156.5q145 0 243 -145v516h176v-1565h-161v145q-39 -82 -104.5 -130t-168.5 -48q-170 0 -255 149.5t-85 442.5zM258 549q0 -182 39 -298t170 -138h25q104 0 160.5 111.5t56.5 355.5q0 176 -48.5 322.5t-177.5 146.5q-160 0 -192.5 -192.5 t-32.5 -307.5z" />
<glyph unicode="e" horiz-adv-x="909" d="M88 571q0 238 80 418t285 180q242 0 299 -160.5t57 -453.5h-553v-78q0 -166 38 -268.5t167 -102.5q104 0 146 79t42 194h152q0 -180 -86 -295t-258 -115q-174 0 -271.5 139t-97.5 463zM256 688h385q0 154 -31.5 249t-154.5 95q-125 0 -162 -98.5t-37 -245.5z" />
<glyph unicode="f" horiz-adv-x="565" d="M16 1016v145h162v178q0 131 81 181.5t194 50.5q45 0 79 -6v-146q-76 0 -135 -26.5t-59 -85.5v-146h194v-145h-178v-1016h-176v1016h-162z" />
<glyph unicode="g" horiz-adv-x="1034" d="M96 549q0 227 67.5 428t287.5 201q111 0 177 -50.5t81 -111.5v129h178v-871q0 -319 -63.5 -498t-340.5 -179q-154 0 -248 81.5t-106 208.5h162q25 -78 63.5 -111.5t128.5 -33.5q154 0 190 111.5t36 242.5q-49 -74 -110.5 -109.5t-147.5 -35.5q-209 0 -282 186.5 t-73 411.5zM258 549q0 -166 61.5 -309.5t163.5 -143.5q145 0 185.5 136.5t40.5 332.5q0 276 -56.5 363.5t-169.5 87.5q-119 0 -172 -141.5t-53 -325.5z" />
<glyph unicode="h" horiz-adv-x="1024" d="M150 0v1536h161v-522q61 78 129 116.5t156 38.5q133 0 207 -71.5t74 -218.5v-879h-162v834q0 96 -38 147t-132 51q-43 0 -78 -18.5t-77 -58.5t-60.5 -85t-18.5 -108v-762h-161z" />
<glyph unicode="i" horiz-adv-x="450" d="M145 0v1145h162v-1145h-162zM145 1339v209h162v-209h-162z" />
<glyph unicode="j" horiz-adv-x="454" d="M27 -240q45 0 71.5 4.5t36.5 25t14.5 49t4.5 55.5v47v1198h161v-1184q0 -201 -59 -272.5t-229 -71.5v149zM154 1331v205h161v-205h-161z" />
<glyph unicode="k" horiz-adv-x="905" d="M145 0v1548h162v-936l402 533h194l-354 -451l354 -694h-194l-273 565l-129 -162v-403h-162z" />
<glyph unicode="l" horiz-adv-x="450" d="M145 0v1548h177v-1548h-177z" />
<glyph unicode="m" horiz-adv-x="1597" d="M162 0v1145h160v-146q25 84 111.5 131.5t162.5 47.5q84 0 155.5 -46.5t118.5 -132.5q104 178 308 179q176 0 217 -87t41 -221v-870h-162v870v31q0 61 -26.5 96t-119.5 35q-113 0 -177 -81t-64 -226v-725h-162v807q0 119 -33 172t-127 53q-104 0 -173.5 -77.5 t-69.5 -229.5v-725h-160z" />
<glyph unicode="n" d="M145 0v1145h177l10 -113q18 55 87.5 100.5t160.5 45.5q154 0 230.5 -71t76.5 -237v-870h-178v774q0 123 -34 190.5t-126 67.5q-100 0 -163.5 -61.5t-63.5 -179.5v-791h-177z" />
<glyph unicode="o" d="M96 565q0 266 89 439.5t331 173.5q211 0 307.5 -157t96.5 -441q0 -291 -93.5 -460t-310.5 -169q-240 0 -330 173t-90 441zM274 580q0 -213 45.5 -340t196.5 -127q135 0 180 136t45 316q0 205 -45 336t-196 131q-147 0 -186.5 -125.5t-39.5 -326.5z" />
<glyph unicode="p" d="M145 -403v1548h146v-146q47 84 116.5 123t157.5 39q174 0 264.5 -155.5t90.5 -393.5q0 -336 -91.5 -498.5t-279.5 -162.5q-94 0 -140.5 36t-101.5 109v-499h-162zM307 549q0 -193 43 -323t182 -130q115 0 162 142.5t47 310.5q0 174 -41 328.5t-168 154.5 q-139 0 -182 -140t-43 -343z" />
<glyph unicode="q" d="M96 549q0 240 76 434.5t279 194.5q74 0 141 -38t102 -108v113h160v-1532h-160v500q-57 -88 -115.5 -117t-142.5 -29q-184 0 -262 180.5t-78 401.5zM274 580q0 -254 51.5 -369t157.5 -115q109 0 160 123t51 377q0 174 -41 305t-170 131q-135 0 -172 -134t-37 -318z" />
<glyph unicode="r" horiz-adv-x="679" d="M162 0v1145h160v-178q49 109 126.5 151.5t213.5 42.5v-178q-33 4 -48 4q-125 0 -200.5 -109.5t-75.5 -248.5v-629h-176z" />
<glyph unicode="s" horiz-adv-x="905" d="M63 862v25q14 141 101.5 216t255.5 75q139 0 238.5 -95.5t99.5 -259.5h-162q-12 115 -48 162t-128 47t-135 -43t-43 -119q0 -117 65.5 -148.5t223 -92t217 -130t59.5 -192.5q0 -176 -98.5 -266t-272.5 -90q-213 0 -284.5 115.5t-71.5 271.5h162q0 -121 32.5 -181.5 t145.5 -60.5q104 0 164.5 57.5t60.5 137.5q0 113 -74.5 145.5t-213 82.5t-216.5 140t-78 203z" />
<glyph unicode="t" horiz-adv-x="567" d="M16 999v146h162v291h176v-291h178v-146h-178v-790q0 -39 10.5 -51.5t55.5 -12.5h96v-145h-162q-104 0 -140 30.5t-36 147.5v821h-162z" />
<glyph unicode="u" horiz-adv-x="1024" d="M162 274v871h160v-887q0 -84 37.5 -127t93.5 -43q88 0 172 80t84 186v791h161v-1145h-161v145q-55 -100 -127 -139t-146 -39q-274 0 -274 307z" />
<glyph unicode="v" horiz-adv-x="923" d="M16 1145h177l258 -1000l258 1000h178l-338 -1145h-195z" />
<glyph unicode="w" horiz-adv-x="1382" d="M33 1145h176l211 -983l176 983h178l193 -1000l178 1000h194l-290 -1145h-179l-176 999l-178 -999h-194z" />
<glyph unicode="x" horiz-adv-x="903" d="M16 0l338 580l-338 565h193l242 -420l243 420h193l-338 -565l354 -580h-194l-258 436l-258 -436h-177z" />
<glyph unicode="y" horiz-adv-x="905" d="M-16 1145h178l274 -1000l258 1000h176l-305 -1016q-53 -197 -99 -304.5t-112 -162.5q-51 -55 -178 -55q-51 0 -75.5 4t-67.5 18v162q63 -41 133 -41q82 0 135 57.5t53 176.5z" />
<glyph unicode="z" horiz-adv-x="790" d="M49 0v145l516 854h-485v146h678v-146l-533 -837h533v-162h-709z" />
<glyph unicode="{" horiz-adv-x="561" d="M14 672q49 8 79 21.5t59.5 44t38 63.5t8.5 88v381q0 96 21.5 140t70.5 77t101 41t153 8q-106 -33 -144.5 -84t-38.5 -145v-383q0 -109 -41.5 -167.5t-162.5 -80.5q123 -29 163.5 -97.5t40.5 -189.5v-354q0 -90 39 -142.5t144 -82.5q-7 0 -13 -1q-194 0 -263 61 q-71 62 -70 236v338v25q0 70 -15.5 98.5t-44 49t-59.5 34t-66 21.5z" />
<glyph unicode="|" horiz-adv-x="512" d="M190 0v1536h132v-1536h-132z" />
<glyph unicode="}" horiz-adv-x="561" d="M16 -195q106 33 144.5 84.5t38.5 145.5v383q0 109 42 167t162 81q-123 29 -163.5 97t-40.5 189v355q0 90 -39 142t-144 83h13q194 0 263 -61q71 -62 70 -236v-338q0 -72 9.5 -107.5t44.5 -60t65.5 -38t65.5 -21.5q-49 -8 -79 -21.5t-58 -42.5q-31 -33 -39.5 -65.5 t-8.5 -87.5v-381q0 -96 -21.5 -140.5t-70.5 -77t-101.5 -41t-152.5 -8.5z" />
<glyph unicode="~" horiz-adv-x="1024" d="M90 438q63 141 119.5 191.5t120.5 50.5q53 0 95 -18.5t101 -53.5q88 -45 117 -58t57 -13q49 0 92.5 50t73.5 120l70 -97q-45 -100 -102.5 -163.5t-135.5 -63.5q-47 0 -145 47l-91 48q-30 15 -66 30.5t-66 15.5q-70 0 -103.5 -56t-66.5 -128z" />
<glyph unicode="&#xa1;" horiz-adv-x="677" d="M178 1016v194h225v-194h-225zM193 225l32 613h129l33 -613v-532h-194v532z" />
<glyph unicode="&#xa2;" d="M129 612q23 260 113 382t268 122l70 -4l65 227h96l-63 -258q86 -33 132 -112.5t46 -184.5q0 -29 -2 -43h-145q0 78 -13.5 124t-50.5 71l-194 -840q31 -8 65 -8q90 0 142.5 68.5t52.5 177.5q0 25 -2 37h161q-23 -258 -121 -331t-329 -73l-66 -258h-96l64 291 q-90 39 -141.5 189.5t-51.5 422.5zM305 463q0 -129 12.5 -198.5t53.5 -102.5l178 821q-20 4 -41 4q-80 0 -140.5 -75.5t-60.5 -282.5q0 -43 -1 -84t-1 -82z" />
<glyph unicode="&#xa3;" d="M49 694v97h144q-98 164 -99 323q0 176 119 289t319 113q156 0 289 -106.5t133 -293.5q-2 -20 -2 -33v-18h-178q2 12 2 27v20q0 123 -76.5 191.5t-179.5 68.5q-88 0 -149 -49q-96 -66 -97 -207q0 -80 29 -161t84 -164h338v-97h-305q49 -82 49 -170q0 -102 -58.5 -199.5 t-152.5 -179.5q31 12 79 23.5t114 11.5q53 0 96 -7t98 -28q66 -18 111 -18t77.5 11.5t102.5 54.5l63 -130q-31 -41 -87 -66.5t-136 -25.5q-55 0 -123.5 14.5t-140.5 41t-129 26.5q-66 0 -121 -21.5t-117 -64.5l-96 129q109 55 180.5 160.5t71.5 230.5q0 51 -14.5 103.5 t-44.5 103.5h-193z" />
<glyph unicode="&#xa4;" d="M33 225l80 82q-78 131 -78 295q0 86 24.5 169t69.5 149l-80 79l96 97l80 -80q39 47 117 75.5t166 28.5q78 0 148.5 -25.5t117.5 -78.5l96 96l97 -113l-80 -79q43 -80 66.5 -162t23.5 -156q0 -147 -90 -295l80 -82l-97 -112l-96 80q-55 -43 -127 -66t-149 -23 q-80 0 -149.5 26t-123.5 79l-80 -96zM186 600.5q0 -147.5 85 -253t245 -105.5q147 18 227 120.5t80 239.5q0 147 -87 256t-236 109q-145 0 -229.5 -109.5t-84.5 -257z" />
<glyph unicode="&#xa5;" d="M-49 1532h211l354 -774l338 774h211l-485 -952v-31h290v-98h-290v-160h290v-98h-290v-193h-160v193h-291v98h291v160h-291v98h291v31z" />
<glyph unicode="&#xa6;" horiz-adv-x="450" d="M139 10v590h162v-590h-162zM139 768v590h162v-590h-162z" />
<glyph unicode="&#xa7;" d="M68 610q0 98 63.5 182.5t175.5 127.5q-66 41 -104.5 122.5t-38.5 171.5q0 133 84 225.5t252 92.5q147 0 258.5 -86t111.5 -285h-176q2 12 2 35q0 86 -53 133t-127 47q-80 0 -137 -48t-57 -134q0 -72 58 -117t243.5 -163.5t263.5 -204.5q37 -41 54 -86t17 -97 q0 -113 -75.5 -214t-157.5 -119q76 -47 115 -122t39 -161q0 -137 -94.5 -233.5t-268.5 -96.5q-209 0 -299 106.5t-90 241.5q0 27 2 39h178q-2 -12 -2 -37q0 -104 65.5 -158.5t153.5 -54.5q76 0 130.5 37t54.5 101q4 29 4 39q0 133 -234.5 279t-285.5 198q-63 49 -94 110 t-31 129zM238 637q0 -102 151 -206l256 -173q74 57 107.5 112.5t33.5 106.5q0 121 -153 219l-246 158q-76 -59 -112.5 -114.5t-36.5 -102.5z" />
<glyph unicode="&#xa8;" horiz-adv-x="677" d="M96 1323v209h178v-209h-178zM403 1323v209h177v-209h-177z" />
<glyph unicode="&#xa9;" horiz-adv-x="1644" d="M14 784q0 315 213 539.5t611 224.5q381 0 587.5 -226t206.5 -542q0 -326 -213 -569.5t-581 -243.5q-381 0 -602.5 244.5t-221.5 572.5zM145 725q0 -289 210 -460t489 -171q217 0 390 111.5t234 326.5q43 141 43 277q0 287 -193.5 448.5t-463.5 161.5q-287 0 -498 -182 t-211 -512zM403 757.5q0 196.5 143.5 331t323.5 134.5q127 0 225.5 -74t145.5 -229h-129q-35 96 -101.5 143t-148.5 47q-123 0 -220 -89t-97 -218q0 -12 4 -45q0 -170 92 -266.5t217 -96.5q90 0 166 56.5t104 160.5h97q14 0 14 -24q0 -53 -56.5 -138t-133.5 -112 q-43 -18 -94.5 -28.5t-94.5 -10.5q-186 0 -321.5 131t-135.5 327.5z" />
<glyph unicode="&#xaa;" horiz-adv-x="512" d="M-2 821v103h510v-103h-510zM47 1163.5q0 67.5 21.5 104.5t66.5 57l129 49q25 6 37 15.5t12 31.5v58q0 29 -17 46t-63 17q-53 0 -71.5 -24.5t-18.5 -79.5h-71q-2 10 -2 30q0 72 46 110t117 38q111 0 139.5 -48t28.5 -130v-299q0 -47 50 -47v-66q-12 -2 -25 -2h-18 q-41 0 -61.5 16.5t-24.5 59.5q-23 -47 -57 -68.5t-72 -21.5q-82 0 -114 43t-32 110.5zM131 1174q0 -47 16.5 -71t63.5 -24q33 0 65.5 28t32.5 89v137l-52 -25l-68 -32q-36 -16 -47 -41.5t-11 -60.5z" />
<glyph unicode="&#xab;" d="M145 580v129l322 323v-162l-225 -225l241 -242v-161zM516 580v129l322 323v-162l-226 -225l242 -242v-161z" />
<glyph unicode="&#xac;" horiz-adv-x="5685" d="M410 291q0 102 51 259t98 220l131 180l29.5 37t13.5 25q-92 0 -138 42t-60 138q31 -6 61 -6q111 0 222.5 63.5t209.5 161.5q6 14 12 14q10 0 17.5 -26.5t7.5 -44.5q0 -160 -102 -240l-168 -108q-18 -35 -113.5 -167t-95.5 -233q0 -63 30.5 -158.5t73.5 -95.5 q68 0 231 113l293 205l103 245q45 111 92 168.5t68.5 77t58.5 19.5q23 0 40 -15.5t17 -40.5q0 -80 -65.5 -150.5t-157.5 -129.5q-14 -27 -40.5 -134.5t-26.5 -144.5q0 -47 64.5 -140l143.5 -198q53 254 289 537t533 487.5t549.5 257t440 79t398.5 26.5q156 0 321 -14.5 t403.5 -53.5t427 -275.5t188.5 -758.5q0 -293 -166 -429t-463 -136q-84 0 -187.5 27.5t-103.5 91.5q0 41 22.5 61t59.5 20t74 -20.5t55 -54.5q12 -31 45 -50.5t78 -29.5q231 0 351 124t120 376q6 59 6 126q0 301 -144.5 550t-469 290t-475 58.5t-277.5 17.5q-113 0 -274 -26 l-371 -59q-209 -34 -536.5 -257t-571.5 -518t-270 -527q43 -61 68.5 -133.5t25.5 -140.5q0 -47 -7 -76.5t-38 -29.5q-57 0 -90 98t-33 176v25q-125 102 -210 185t-92 141.5t-9 87t-2 65.5q0 39 6 69q-90 -78 -215 -171t-253 -163.5t-210 -70.5q-37 0 -65.5 22.5t-28.5 59.5z M1761 102q16 53 99 54q25 0 63.5 -10.5t68.5 -44.5q22 -25 22 -52q0 -9 -3 -18q-16 -55 -100 -56q-25 0 -63 9.5t-67 44.5q-22 26 -22 54q-1 9 2 19zM2017 250q0 104 75 187t183 112l6 -19q-80 -31 -126 -70.5t-52 -117.5q0 -158 166 -214t373 -56q299 0 443.5 108.5 t177 155.5t32.5 102q0 86 -68.5 109.5t-170.5 23.5q-59 0 -166 -9t-117 -9q-152 0 -258.5 67.5t-106.5 215.5q0 211 187.5 331.5t413.5 120.5q78 0 116.5 -8t73.5 -49q16 8 31 8q29 0 51 -50t43 -69q10 -2 10 -16q-8 -25 -60 -82t-59 -68q-6 -23 -20 -22.5t-42 26 t-46.5 29.5t-38 11.5t-19.5 27.5q0 27 37 74t37 80q0 41 -38 57t-87 16q-166 0 -318.5 -85t-152.5 -240q0 -88 73 -119t173 -31q55 0 142 5t100 5q176 0 283.5 -34.5t107.5 -169.5q0 -121 -80 -231.5t-280.5 -263t-559.5 -152.5q-186 0 -327.5 72.5t-141.5 240.5zM3211 111 q14 51 88 51q27 0 66 -11.5t67 -40.5q21 -22 22 -48q0 -9 -3 -19q-16 -53 -94 -53q-23 0 -62 10t-66 42q-20 23 -20 49q-1 10 2 20zM3590 166q0 61 32 104t75 84q61 -76 96 -106.5t96 -30.5q166 0 291 266.5t125 454.5q0 111 -60.5 144.5t-173.5 33.5q-178 0 -194.5 -112.5 t-38.5 -124.5l-27 69q2 14 2 28v19q0 14 -2 50t-2 57q0 100 50.5 157.5t199.5 57.5q178 0 303 -26.5t125 -131.5q0 -125 -119.5 -404.5t-211 -439t-161 -245.5t-163.5 -86q-80 0 -161 52t-81 130z" />
<glyph unicode="&#xad;" horiz-adv-x="677" d="M80 549v176h500v-176h-500z" />
<glyph unicode="&#xae;" horiz-adv-x="1644" d="M18 772q0 307 205 531.5t568 261.5q367 0 607 -236.5t240 -562.5q0 -98 -20.5 -183t-69.5 -180q-131 -219 -326.5 -331.5t-408.5 -112.5q-231 0 -432 130t-282 325.5t-81 357.5zM158 768q0 -209 100 -365.5t249.5 -235.5t319.5 -79q213 0 393.5 124t247.5 337 q39 117 39 227q0 283 -211 480.5t-450 197.5q-27 0 -197 -21.5t-330.5 -217t-160.5 -447.5zM516 322v903h404q156 0 241.5 -76t85.5 -180q0 -94 -73.5 -161t-206.5 -67l258 -419h-129l-258 419h-193v-419h-129zM645 838h291q90 0 138 40t48 97q0 61 -54 107t-148 46h-275 v-290z" />
<glyph unicode="&#xb0;" horiz-adv-x="516" d="M31 1411q0 88 59.5 151.5t147.5 63.5t151.5 -59.5t63.5 -147.5t-59.5 -151.5t-147.5 -63.5t-151.5 59.5t-63.5 147.5zM121 1411q0 -51 37 -84t88 -33t83.5 37t32.5 88t-36.5 84t-88 33t-84 -37t-32.5 -88z" />
<glyph unicode="&#xb1;" d="M63 131v166h920v-166h-920zM84 776v185h340v387h184v-387h355v-185h-355v-387h-168v387h-356z" />
<glyph unicode="&#xb2;" horiz-adv-x="563" d="M47 819q12 119 34.5 168t70.5 90l161 162q29 31 38 56.5t9 60.5v37q0 57 -24.5 88.5t-79.5 31.5q-113 0 -113 -186h-88q0 135 41 200.5t160 65.5q102 0 152.5 -60t50.5 -157q0 -76 -21.5 -120t-52.5 -74l-61 -62q-31 -31 -77 -70.5t-75 -70.5t-29 -78h332v-82h-428z" />
<glyph unicode="&#xb3;" horiz-adv-x="563" d="M61 946h89q0 -74 18 -117t94 -43q59 0 94 30t35 108q0 104 -47 127.5t-129 23.5v90q86 0 120 28t34 93q0 129 -107 129q-55 0 -79.5 -44t-24.5 -118h-80q0 113 44 177.5t148 64.5q84 0 139.5 -53t55.5 -139q0 -57 -19.5 -102.5t-85.5 -67.5q57 -23 89 -62t32 -125 q0 -242 -219 -241q-115 0 -158 66t-43 175z" />
<glyph unicode="&#xb4;" horiz-adv-x="677" d="M193 1257l178 291h225l-258 -291h-145z" />
<glyph unicode="&#xb5;" horiz-adv-x="1024" d="M31 -317l123 471v1001h161v-790q0 -104 84 -184.5t172 -80.5q59 0 95 40t36 128v887h160v-870q0 -156 -69.5 -232t-204.5 -76q-76 0 -146.5 39t-126.5 140l-122 -473h-162z" />
<glyph unicode="&#xb6;" horiz-adv-x="903" d="M2 1138.5q0 147.5 84 261t236 132.5h485v-1774h-162v1628h-162v-1628h-161v983q-154 23 -237 136.5t-83 261z" />
<glyph unicode="&#xb8;" horiz-adv-x="677" d="M113 -436l49 98q84 -43 147 -43q49 0 75 23.5t26 58.5t-27 60.5t-76 25.5q-29 0 -65 -12l-49 32l145 193h98l-114 -145q47 12 84 12q78 0 122.5 -43t44.5 -107q0 -76 -65.5 -134t-185.5 -58q-92 0 -209 39z" />
<glyph unicode="&#xb9;" horiz-adv-x="430" d="M98 1255v64q86 8 131 34.5t45 110.5h74v-766h-90v557h-160z" />
<glyph unicode="&#xba;" horiz-adv-x="532" d="M-2 821v103h510v-103h-510zM55 1290q0 137 44 222t165 85q104 0 153.5 -78.5t49.5 -220.5q0 -147 -46 -231t-157 -84q-119 0 -164 87t-45 220zM143 1298q0 -109 21.5 -171t99.5 -62q68 0 90.5 69.5t22.5 155.5q0 104 -22.5 169t-98.5 65q-74 0 -93.5 -64t-19.5 -162z" />
<glyph unicode="&#xbb;" d="M162 258v178l209 209l-209 209v162l305 -307v-144zM516 258v178l209 209l-209 209v162l307 -307v-144z" />
<glyph unicode="&#xbc;" horiz-adv-x="1126" d="M90 -31l774 1323h109l-776 -1323h-107zM98 1255v64q86 8 131 34.5t45 110.5h74v-766h-90v557h-160zM602 195v88l283 491h88v-491h65v-88h-65v-195h-88v195h-283zM682 283h203v346z" />
<glyph unicode="&#xbd;" horiz-adv-x="1228" d="M98 1255v64q86 8 131 34.5t45 110.5h74v-766h-90v557h-160zM100 -41l774 1323h109l-776 -1323h-107zM754 10q12 119 34.5 168t69.5 90l162 162q29 31 38 56.5t9 60.5v37q0 57 -24.5 89t-79.5 32q-113 0 -113 -187h-88q0 135 41 200.5t160 65.5q102 0 152 -60t50 -157 q0 -76 -21.5 -120t-51.5 -74l-62 -62q-31 -31 -77 -70.5t-74.5 -70.5t-28.5 -78h332v-82h-428z" />
<glyph unicode="&#xbe;" horiz-adv-x="1269" d="M123 946h88q0 -74 18.5 -117t94.5 -43q59 0 94 30t35 108q0 104 -47.5 127.5t-129.5 23.5v90q86 0 120 28t34 93q0 129 -106 129q-55 0 -80 -44t-25 -118h-80q0 113 44 177.5t149 64.5q84 0 139 -53t55 -139q0 -57 -19.5 -102.5t-84.5 -67.5q57 -23 89 -62t32 -125 q0 -242 -219 -241q-115 0 -158 66t-43 175zM244 -41l774 1323h108l-776 -1323h-106zM766 184v88l283 492h88v-492h65v-88h-65v-194h-88v194h-283zM846 272h203v346z" />
<glyph unicode="&#xbf;" d="M80 16q0 123 49 195t170 218t121 216v162h209v-145q0 -102 -90 -218l-172 -200q-92 -121 -93 -228q0 -127 42 -192.5t167 -65.5q113 0 177.5 83t64.5 239h178q0 -190 -93 -328.5t-343 -138.5q-174 0 -280.5 106.5t-106.5 296.5zM420 936v225h209v-225h-209z" />
<glyph unicode="&#xc0;" horiz-adv-x="1144" d="M16 0l435 1532h243l418 -1532h-192l-113 436h-485l-113 -436h-193zM274 1892h242l176 -290h-145zM371 596h387l-193 790z" />
<glyph unicode="&#xc1;" horiz-adv-x="1144" d="M16 0l435 1532h243l418 -1532h-192l-113 436h-485l-113 -436h-193zM371 596h387l-193 790zM438 1606l178 290h226l-258 -290h-146z" />
<glyph unicode="&#xc2;" horiz-adv-x="1144" d="M16 0l435 1532h243l418 -1532h-192l-113 436h-485l-113 -436h-193zM268 1577l209 291h195q33 -57 95 -142l114 -149h-195l-113 178l-129 -178h-176zM371 596h387l-193 790z" />
<glyph unicode="&#xc3;" horiz-adv-x="1144" d="M16 0l435 1532h243l418 -1532h-192l-113 436h-485l-113 -436h-193zM240 1597q0 119 67.5 180.5t141.5 61.5q53 0 154.5 -40t135.5 -40q45 0 71 28t26 68h98q0 -102 -49 -171.5t-162 -69.5q-43 0 -141.5 36t-147.5 44q-35 0 -59.5 -27t-38.5 -70h-96zM371 596h387 l-193 790z" />
<glyph unicode="&#xc4;" horiz-adv-x="1144" d="M16 0l435 1532h243l418 -1532h-192l-113 436h-485l-113 -436h-193zM332 1599v209h178v-209h-178zM371 596h387l-193 790zM639 1599v209h176v-209h-176z" />
<glyph unicode="&#xc5;" horiz-adv-x="1144" d="M16 0l435 1532h243l418 -1532h-192l-113 436h-485l-113 -436h-193zM371 596h387l-193 790zM420 1761.5q0 67.5 45 114.5t117 47q68 0 118 -46t50 -110q0 -66 -47.5 -114.5t-114.5 -48.5q-70 0 -119 45t-49 112.5zM489 1761q0 -39 29 -63.5t70 -24.5t65.5 26.5t24.5 67.5 q0 39 -28.5 63.5t-67.5 24.5q-41 0 -67 -27.5t-26 -66.5z" />
<glyph unicode="&#xc6;" horiz-adv-x="1710" d="M-16 0l757 1548h871v-162h-563v-499h532v-178h-532v-547h563v-162h-742v436h-467l-210 -436h-209zM467 596h403v790h-16z" />
<glyph unicode="&#xc7;" horiz-adv-x="1144" d="M96 741q0 244 24.5 413t135.5 298t340 129q193 0 314.5 -117.5t121.5 -398.5h-162q0 158 -57 256t-233 98q-195 0 -242 -202.5t-47 -475.5q0 -289 52 -450.5t237 -161.5q168 0 221 129t53 307h178q0 -262 -100.5 -430t-335.5 -168q-299 0 -399.5 198.5t-100.5 575.5z M373 -350l45 84q80 -37 137 -37q45 0 69.5 20.5t24.5 49.5q0 72 -94 71q-25 0 -61 -10l-48 29l138 161h94l-109 -122q16 4 39 6t41 2q74 0 116 -38t42 -89q0 -63 -61.5 -111.5t-176.5 -48.5q-85 0 -196 33z" />
<glyph unicode="&#xc8;" d="M145 0v1532h791v-162h-614v-483h565v-162h-565v-563h598v-162h-775zM254 1903h242l176 -291h-146z" />
<glyph unicode="&#xc9;" d="M145 0v1532h791v-162h-614v-483h565v-162h-565v-563h598v-162h-775zM367 1595l178 291h225l-258 -291h-145z" />
<glyph unicode="&#xca;" d="M145 0v1532h791v-162h-614v-483h565v-162h-565v-563h598v-162h-775zM248 1597l209 291h194q33 -57 95 -141l114 -150h-194l-113 179l-129 -179h-176z" />
<glyph unicode="&#xcb;" d="M145 0v1532h791v-162h-614v-483h565v-162h-565v-563h598v-162h-775zM301 1610v209h178v-209h-178zM608 1610v209h176v-209h-176z" />
<glyph unicode="&#xcc;" horiz-adv-x="565" d="M-63 1892h241l176 -290h-145zM178 0v1532h176v-1532h-176z" />
<glyph unicode="&#xcd;" horiz-adv-x="565" d="M162 1595l178 291h225l-258 -291h-145zM178 0v1532h176v-1532h-176z" />
<glyph unicode="&#xce;" horiz-adv-x="565" d="M-39 1597l209 291h195q33 -57 95 -141l113 -150h-194l-113 179l-129 -179h-176zM178 0v1532h176v-1532h-176z" />
<glyph unicode="&#xcf;" horiz-adv-x="565" d="M25 1599v209h178v-209h-178zM178 0v1532h176v-1532h-176zM332 1599v209h176v-209h-176z" />
<glyph unicode="&#xd0;" horiz-adv-x="1290" d="M80 686v162h123v684h450q211 0 326 -106.5t152.5 -260t37.5 -342.5q0 -328 -101 -575.5t-447 -247.5h-418v686h-123zM379 162h274q201 0 262.5 157.5t61.5 366.5v72q0 313 -64.5 462.5t-306.5 149.5h-227v-522h137v-162h-137v-524z" />
<glyph unicode="&#xd1;" horiz-adv-x="1257" d="M145 0v1532h291l484 -1387v1387h176v-1532h-289l-485 1403v-1403h-177zM301 1618q0 119 67.5 180.5t141.5 61.5q53 0 154.5 -40t136.5 -40q45 0 70.5 27.5t25.5 68.5h98q0 -102 -49 -172t-162 -70q-43 0 -141 36t-147 44q-35 0 -59.5 -26.5t-39.5 -69.5h-96z" />
<glyph unicode="&#xd2;" horiz-adv-x="1257" d="M113 791q0 223 19.5 364t133 275.5t363.5 134.5q211 0 325.5 -116t152.5 -288t38 -387q0 -217 -22.5 -374.5t-136.5 -295t-357 -137.5q-297 0 -406.5 206t-109.5 618zM291 791q4 -109 13 -259.5t81 -284.5t244 -134q203 0 264 144t61 384q0 47 -1 85t-1 65 q0 297 -64.5 454.5t-275.5 157.5q-186 0 -253.5 -175t-67.5 -437zM346 1913h242l176 -291h-146z" />
<glyph unicode="&#xd3;" horiz-adv-x="1257" d="M113 791q0 223 19.5 364t133 275.5t363.5 134.5q211 0 325.5 -116t152.5 -288t38 -387q0 -217 -22.5 -374.5t-136.5 -295t-357 -137.5q-297 0 -406.5 206t-109.5 618zM291 791q4 -109 13 -259.5t81 -284.5t244 -134q203 0 264 144t61 384q0 47 -1 85t-1 65 q0 297 -64.5 454.5t-275.5 157.5q-186 0 -253.5 -175t-67.5 -437zM500 1616l178 291h225l-258 -291h-145z" />
<glyph unicode="&#xd4;" horiz-adv-x="1257" d="M113 791q0 223 19.5 364t133 275.5t363.5 134.5q211 0 325.5 -116t152.5 -288t38 -387q0 -217 -22.5 -374.5t-136.5 -295t-357 -137.5q-297 0 -406.5 206t-109.5 618zM291 791q4 -109 13 -259.5t81 -284.5t244 -134q203 0 264 144t61 384q0 47 -1 85t-1 65 q0 297 -64.5 454.5t-275.5 157.5q-186 0 -253.5 -175t-67.5 -437zM319 1608l209 290h195q33 -57 95 -141l114 -149h-195l-112 178l-129 -178h-177z" />
<glyph unicode="&#xd5;" horiz-adv-x="1257" d="M113 791q0 223 19.5 364t133 275.5t363.5 134.5q211 0 325.5 -116t152.5 -288t38 -387q0 -217 -22.5 -374.5t-136.5 -295t-357 -137.5q-297 0 -406.5 206t-109.5 618zM281 1608q0 119 67.5 180t140.5 61q53 0 154.5 -40t136.5 -40q45 0 71 28t26 69h98q0 -102 -49 -172 t-162 -70q-43 0 -141.5 36t-147.5 44q-35 0 -59.5 -26.5t-38.5 -69.5h-96zM291 791q4 -109 13 -259.5t81 -284.5t244 -134q203 0 264 144t61 384q0 47 -1 85t-1 65q0 297 -64.5 454.5t-275.5 157.5q-186 0 -253.5 -175t-67.5 -437z" />
<glyph unicode="&#xd6;" horiz-adv-x="1257" d="M113 791q0 223 19.5 364t133 275.5t363.5 134.5q211 0 325.5 -116t152.5 -288t38 -387q0 -217 -22.5 -374.5t-136.5 -295t-357 -137.5q-297 0 -406.5 206t-109.5 618zM291 791q4 -109 13 -259.5t81 -284.5t244 -134q203 0 264 144t61 384q0 47 -1 85t-1 65 q0 297 -64.5 454.5t-275.5 157.5q-186 0 -253.5 -175t-67.5 -437zM383 1620v209h178v-209h-178zM690 1620v209h176v-209h-176z" />
<glyph unicode="&#xd7;" d="M172 762l102 100l256 -256l252 252l105 -102l-254 -252l258 -258l-100 -101l-259 256l-251 -251l-103 102l252 252z" />
<glyph unicode="&#xd8;" horiz-adv-x="1257" d="M49 -33l160 258q-55 90 -75.5 227.5t-20.5 338.5q0 356 101 565t398 209q133 0 217 -30t138 -83l129 193l82 -64l-146 -211q49 -86 81 -221t32 -279q0 -252 -26.5 -436t-143.5 -333.5t-363 -149.5q-133 0 -221 54t-117 124l-145 -242zM307 807q0 -164 6 -239.5t25 -131.5 l532 854q-51 55 -115.5 88t-129.5 33q-135 0 -226.5 -145.5t-91.5 -458.5zM371 291q35 -80 103.5 -122t150.5 -42q88 0 159.5 46t102.5 134q31 76 48 221.5t17 298.5q0 113 -8 202t-24 132z" />
<glyph unicode="&#xd9;" horiz-adv-x="1259" d="M162 436v1096h176v-1096q0 -172 73.5 -239.5t217.5 -67.5q154 0 222.5 83t68.5 255v1065h176v-1161q0 -158 -92.5 -281t-358.5 -123q-285 0 -384 114.5t-99 354.5zM305 1903h242l176 -291h-145z" />
<glyph unicode="&#xda;" horiz-adv-x="1259" d="M162 436v1096h176v-1096q0 -172 73.5 -239.5t217.5 -67.5q154 0 222.5 83t68.5 255v1065h176v-1161q0 -158 -92.5 -281t-358.5 -123q-285 0 -384 114.5t-99 354.5zM510 1595l178 291h225l-258 -291h-145z" />
<glyph unicode="&#xdb;" horiz-adv-x="1259" d="M162 436v1096h176v-1096q0 -172 73.5 -239.5t217.5 -67.5q154 0 222.5 83t68.5 255v1065h176v-1161q0 -158 -92.5 -281t-358.5 -123q-285 0 -384 114.5t-99 354.5zM330 1608l209 290h194q33 -57 95 -141l114 -149h-194l-113 178l-129 -178h-176z" />
<glyph unicode="&#xdc;" horiz-adv-x="1259" d="M162 436v1096h176v-1096q0 -172 73.5 -239.5t217.5 -67.5q154 0 222.5 83t68.5 255v1065h176v-1161q0 -158 -92.5 -281t-358.5 -123q-285 0 -384 114.5t-99 354.5zM383 1599v209h178v-209h-178zM690 1599v209h176v-209h-176z" />
<glyph unicode="&#xdd;" horiz-adv-x="1155" d="M16 1532h209l340 -758l338 758h193l-434 -952v-580h-179v580zM449 1524l178 291h225l-258 -291h-145z" />
<glyph unicode="&#xde;" d="M145 -403v1978h146v-371q47 84 116.5 123t157.5 39q174 0 264.5 -155.5t90.5 -393.5q0 -336 -91.5 -498.5t-279.5 -162.5q-94 0 -140.5 35.5t-101.5 109.5v-704h-162zM307 754q0 -193 43 -323t182 -130q115 0 162 142.5t47 310.5q0 174 -41 328.5t-168 154.5 q-139 0 -182 -140t-43 -343z" />
<glyph unicode="&#xdf;" d="M145 -205v1366q0 203 96.5 311.5t258.5 108.5q145 0 257.5 -85t112.5 -302q0 -98 -31.5 -186t-129.5 -121q100 -55 155.5 -148.5t55.5 -271.5q0 -199 -81 -341t-239 -142q-70 0 -149 32v162q78 -51 137 -51q84 0 118.5 98.5t34.5 225.5q0 160 -33.5 251t-187.5 91 q-35 0 -53 -2v145q119 0 180.5 70.5t61.5 173t-57.5 179.5t-151.5 77q-68 0 -130.5 -62.5t-62.5 -212.5v-1366h-162z" />
<glyph unicode="&#xe0;" horiz-adv-x="903" d="M63 274q0 137 44.5 211t134.5 111l258 98q45 14 70.5 34t25.5 63v112q0 55 -35 92t-125 37q-106 0 -142 -47t-36 -162h-145q-2 16 -3 35t-1 27q0 143 92 218t235 75q221 0 279.5 -97.5t58.5 -257.5v-598q0 -57 22.5 -76.5t73.5 -19.5v-129q-47 -6 -84 -6 q-84 0 -124.5 32.5t-49.5 118.5q-45 -92 -112.5 -135t-145.5 -43q-166 0 -228.5 83t-62.5 224zM193 1544h241l176 -291h-145zM231 295q0 -94 34 -141.5t126 -47.5q68 0 132.5 54.5t64.5 177.5v276q-49 -29 -120 -61l-129 -59q-58 -27 -83 -81.5t-25 -117.5z" />
<glyph unicode="&#xe1;" horiz-adv-x="903" d="M63 274q0 137 44.5 211t134.5 111l258 98q45 14 70.5 34t25.5 63v112q0 55 -35 92t-125 37q-106 0 -142 -47t-36 -162h-145q-2 16 -3 35t-1 27q0 143 92 218t235 75q221 0 279.5 -97.5t58.5 -257.5v-598q0 -57 22.5 -76.5t73.5 -19.5v-129q-47 -6 -84 -6 q-84 0 -124.5 32.5t-49.5 118.5q-45 -92 -112.5 -135t-145.5 -43q-166 0 -228.5 83t-62.5 224zM231 295q0 -94 34 -141.5t126 -47.5q68 0 132.5 54.5t64.5 177.5v276q-49 -29 -120 -61l-129 -59q-58 -27 -83 -81.5t-25 -117.5zM315 1247l179 291h225l-258 -291h-146z" />
<glyph unicode="&#xe2;" horiz-adv-x="903" d="M63 274q0 137 44.5 211t134.5 111l258 98q45 14 70.5 34t25.5 63v112q0 55 -35 92t-125 37q-106 0 -142 -47t-36 -162h-145q-2 16 -3 35t-1 27q0 143 92 218t235 75q221 0 279.5 -97.5t58.5 -257.5v-598q0 -57 22.5 -76.5t73.5 -19.5v-129q-47 -6 -84 -6 q-84 0 -124.5 32.5t-49.5 118.5q-45 -92 -112.5 -135t-145.5 -43q-166 0 -228.5 83t-62.5 224zM145 1280l209 291h195q33 -57 95 -141l114 -150h-195l-112 178l-129 -178h-177zM231 295q0 -94 34 -141.5t126 -47.5q68 0 132.5 54.5t64.5 177.5v276q-49 -29 -120 -61 l-129 -59q-58 -27 -83 -81.5t-25 -117.5z" />
<glyph unicode="&#xe3;" horiz-adv-x="903" d="M63 274q0 137 44.5 211t134.5 111l258 98q45 14 70.5 34t25.5 63v112q0 55 -35 92t-125 37q-106 0 -142 -47t-36 -162h-145q-2 16 -3 35t-1 27q0 143 92 218t235 75q221 0 279.5 -97.5t58.5 -257.5v-598q0 -57 22.5 -76.5t73.5 -19.5v-129q-47 -6 -84 -6 q-84 0 -124.5 32.5t-49.5 118.5q-45 -92 -112.5 -135t-145.5 -43q-166 0 -228.5 83t-62.5 224zM137 1290q0 119 67.5 180.5t141.5 61.5q53 0 154.5 -40t136.5 -40q45 0 70.5 27.5t25.5 68.5h98q0 -102 -49 -171.5t-161 -69.5q-43 0 -141.5 35.5t-147.5 43.5 q-35 0 -59.5 -26.5t-39.5 -69.5h-96zM231 295q0 -94 34 -141.5t126 -47.5q68 0 132.5 54.5t64.5 177.5v276q-49 -29 -120 -61l-129 -59q-58 -27 -83 -81.5t-25 -117.5z" />
<glyph unicode="&#xe4;" horiz-adv-x="903" d="M63 274q0 137 44.5 211t134.5 111l258 98q45 14 70.5 34t25.5 63v112q0 55 -35 92t-125 37q-106 0 -142 -47t-36 -162h-145q-2 16 -3 35t-1 27q0 143 92 218t235 75q221 0 279.5 -97.5t58.5 -257.5v-598q0 -57 22.5 -76.5t73.5 -19.5v-129q-47 -6 -84 -6 q-84 0 -124.5 32.5t-49.5 118.5q-45 -92 -112.5 -135t-145.5 -43q-166 0 -228.5 83t-62.5 224zM229 1313v209h179v-209h-179zM231 295q0 -94 34 -141.5t126 -47.5q68 0 132.5 54.5t64.5 177.5v276q-49 -29 -120 -61l-129 -59q-58 -27 -83 -81.5t-25 -117.5zM537 1313v209 h176v-209h-176z" />
<glyph unicode="&#xe5;" horiz-adv-x="903" d="M63 274q0 137 44.5 211t134.5 111l258 98q45 14 70.5 34t25.5 63v112q0 55 -35 92t-125 37q-106 0 -142 -47t-36 -162h-145q-2 16 -3 35t-1 27q0 143 92 218t235 75q221 0 279.5 -97.5t58.5 -257.5v-598q0 -57 22.5 -76.5t73.5 -19.5v-129q-47 -6 -84 -6 q-84 0 -124.5 32.5t-49.5 118.5q-45 -92 -112.5 -135t-145.5 -43q-166 0 -228.5 83t-62.5 224zM231 295q0 -94 34 -141.5t126 -47.5q68 0 132.5 54.5t64.5 177.5v276q-49 -29 -120 -61l-129 -59q-58 -27 -83 -81.5t-25 -117.5zM276 1421.5q0 65.5 47.5 114.5t117 49 t118.5 -45t49 -112.5t-46 -115.5t-115.5 -48t-120 46t-50.5 111.5zM348 1421q0 -39 29 -63.5t69.5 -24.5t66.5 28t26 66.5t-29 63.5t-70 25q-43 0 -67.5 -27t-24.5 -68z" />
<glyph unicode="&#xe6;" horiz-adv-x="1370" d="M49 274q0 197 141 295l390 172q27 37 26 105q0 78 -40 132t-130 54q-84 0 -125 -49t-53 -160h-162q0 174 86 272.5t254 98.5q94 0 163 -41t95 -104q76 88 145.5 116.5t143.5 28.5q221 0 280.5 -182.5t59.5 -462.5h-549q0 -229 24.5 -332.5t153.5 -103.5q100 0 146.5 76.5 t46.5 197.5h162q0 -209 -77 -314.5t-263 -105.5q-104 0 -180 46t-126 132q-29 -72 -106.5 -125t-200.5 -53q-139 0 -222 76.5t-83 230.5zM242 274q0 -63 33.5 -112t111.5 -49q90 0 149.5 50t59.5 144v305l-231 -125q-123 -88 -123 -213zM774 694h371q0 141 -37 239.5 t-156 98.5q-109 0 -143.5 -92t-34.5 -246z" />
<glyph unicode="&#xe7;" horiz-adv-x="903" d="M80 549q0 289 82 467t321 178q143 0 241.5 -121t98.5 -282h-161q0 100 -43.5 170.5t-135.5 70.5q-137 0 -181 -127t-44 -297v-59q0 -203 38 -319.5t187 -116.5q94 0 136.5 75.5t42.5 214.5h161q0 -160 -69.5 -298t-270.5 -138q-225 0 -314 150.5t-89 431.5zM270 -338 l45 80q41 -20 74 -28.5t60 -8.5q45 0 68.5 19.5t23.5 50.5q0 27 -23.5 48t-66.5 21q-25 0 -62 -10l-45 29l133 157h88l-104 -118q14 4 35.5 6t38.5 2q74 0 115.5 -38t41.5 -89q0 -61 -59.5 -107.5t-169.5 -46.5q-87 0 -193 33z" />
<glyph unicode="&#xe8;" horiz-adv-x="909" d="M88 571q0 238 80 418t285 180q242 0 299 -160.5t57 -453.5h-553v-78q0 -166 38 -268.5t167 -102.5q104 0 146 79t42 194h152q0 -180 -86 -295t-258 -115q-174 0 -271.5 139t-97.5 463zM162 1554h241l177 -290h-146zM256 688h385q0 154 -31.5 249t-154.5 95 q-125 0 -162 -98.5t-37 -245.5z" />
<glyph unicode="&#xe9;" horiz-adv-x="909" d="M88 571q0 238 80 418t285 180q242 0 299 -160.5t57 -453.5h-553v-78q0 -166 38 -268.5t167 -102.5q104 0 146 79t42 194h152q0 -180 -86 -295t-258 -115q-174 0 -271.5 139t-97.5 463zM256 688h385q0 154 -31.5 249t-154.5 95q-125 0 -162 -98.5t-37 -245.5zM336 1247 l178 291h225l-258 -291h-145z" />
<glyph unicode="&#xea;" horiz-adv-x="909" d="M88 571q0 238 80 418t285 180q242 0 299 -160.5t57 -453.5h-553v-78q0 -166 38 -268.5t167 -102.5q104 0 146 79t42 194h152q0 -180 -86 -295t-258 -115q-174 0 -271.5 139t-97.5 463zM186 1290l209 291h195q33 -57 95 -141l114 -150h-195l-112 178l-130 -178h-176z M256 688h385q0 154 -31.5 249t-154.5 95q-125 0 -162 -98.5t-37 -245.5z" />
<glyph unicode="&#xeb;" horiz-adv-x="909" d="M88 571q0 238 80 418t285 180q242 0 299 -160.5t57 -453.5h-553v-78q0 -166 38 -268.5t167 -102.5q104 0 146 79t42 194h152q0 -180 -86 -295t-258 -115q-174 0 -271.5 139t-97.5 463zM229 1323v209h179v-209h-179zM256 688h385q0 154 -31.5 249t-154.5 95 q-125 0 -162 -98.5t-37 -245.5zM537 1323v209h176v-209h-176z" />
<glyph unicode="&#xec;" horiz-adv-x="450" d="M-104 1575h241l176 -291h-145zM145 0v1145h162v-1145h-162z" />
<glyph unicode="&#xed;" horiz-adv-x="450" d="M121 1257l178 291h225l-258 -291h-145zM145 0v1145h162v-1145h-162z" />
<glyph unicode="&#xee;" horiz-adv-x="450" d="M-80 1290l209 291h195q33 -57 95 -141l113 -150h-194l-113 178l-129 -178h-176zM145 0v1145h162v-1145h-162z" />
<glyph unicode="&#xef;" horiz-adv-x="450" d="M-20 1323v209h178v-209h-178zM145 0v1145h162v-1145h-162zM287 1323v209h176v-209h-176z" />
<glyph unicode="&#xf0;" d="M96 483q0 236 117 366t270 130q92 0 171 -48t120 -140q0 92 -15.5 199.5t-49.5 199.5l-138 -90l-88 137l138 90q-53 43 -121 43q-100 0 -113 -8q-18 -35 -49 -78l-107 133l95 88q41 27 174 27q86 0 149.5 -27.5t116.5 -81.5l127 84l90 -135l-129 -86q63 -139 76.5 -316 t21.5 -308q0 -334 -98 -522.5t-338 -188.5q-223 0 -321.5 173t-98.5 359zM274 483q0 -180 57.5 -267t168.5 -87h24q123 0 178.5 96.5t55.5 241.5q0 176 -64.5 266t-177.5 90q-127 0 -184.5 -87t-57.5 -253z" />
<glyph unicode="&#xf1;" d="M145 0v1145h177l10 -113q18 55 87.5 100.5t160.5 45.5q154 0 230.5 -71t76.5 -237v-870h-178v774q0 123 -34 190.5t-126 67.5q-100 0 -163.5 -61.5t-63.5 -179.5v-791h-177zM168 1270q0 119 67.5 180t141.5 61q53 0 154.5 -39.5t136.5 -39.5q45 0 70.5 27.5t25.5 68.5h98 q0 -102 -49 -172t-162 -70q-43 0 -141 36t-148 44q-35 0 -59 -26.5t-39 -69.5h-96z" />
<glyph unicode="&#xf2;" d="M96 565q0 266 89 439.5t331 173.5q211 0 307.5 -157t96.5 -441q0 -291 -93.5 -460t-310.5 -169q-240 0 -330 173t-90 441zM182 1565h242l176 -291h-145zM274 580q0 -213 45.5 -340t196.5 -127q135 0 180 136t45 316q0 205 -45 336t-196 131q-147 0 -186.5 -125.5 t-39.5 -326.5z" />
<glyph unicode="&#xf3;" d="M96 565q0 266 89 439.5t331 173.5q211 0 307.5 -157t96.5 -441q0 -291 -93.5 -460t-310.5 -169q-240 0 -330 173t-90 441zM274 580q0 -213 45.5 -340t196.5 -127q135 0 180 136t45 316q0 205 -45 336t-196 131q-147 0 -186.5 -125.5t-39.5 -326.5zM428 1237l178 291h225 l-258 -291h-145z" />
<glyph unicode="&#xf4;" d="M96 565q0 266 89 439.5t331 173.5q211 0 307.5 -157t96.5 -441q0 -291 -93.5 -460t-310.5 -169q-240 0 -330 173t-90 441zM217 1280l209 291h195q33 -57 95 -141l113 -150h-194l-113 178l-129 -178h-176zM274 580q0 -213 45.5 -340t196.5 -127q135 0 180 136t45 316 q0 205 -45 336t-196 131q-147 0 -186.5 -125.5t-39.5 -326.5z" />
<glyph unicode="&#xf5;" d="M96 565q0 266 89 439.5t331 173.5q211 0 307.5 -157t96.5 -441q0 -291 -93.5 -460t-310.5 -169q-240 0 -330 173t-90 441zM188 1290q0 119 68 180.5t141 61.5q53 0 154.5 -40t136.5 -40q45 0 70.5 27.5t25.5 68.5h99q0 -102 -49.5 -171.5t-161.5 -69.5q-43 0 -141.5 35.5 t-147.5 43.5q-35 0 -59.5 -26.5t-38.5 -69.5h-97zM274 580q0 -213 45.5 -340t196.5 -127q135 0 180 136t45 316q0 205 -45 336t-196 131q-147 0 -186.5 -125.5t-39.5 -326.5z" />
<glyph unicode="&#xf6;" d="M96 565q0 266 89 439.5t331 173.5q211 0 307.5 -157t96.5 -441q0 -291 -93.5 -460t-310.5 -169q-240 0 -330 173t-90 441zM260 1313v209h178v-209h-178zM274 580q0 -213 45.5 -340t196.5 -127q135 0 180 136t45 316q0 205 -45 336t-196 131q-147 0 -186.5 -125.5 t-39.5 -326.5zM567 1313v209h176v-209h-176z" />
<glyph unicode="&#xf8;" d="M49 -33l144 195q-59 109 -69.5 239.5t-10.5 210.5q0 242 87 404t316 162q98 0 167 -30t124 -83l96 129l80 -49l-129 -162q43 -53 62.5 -174t19.5 -213q0 -270 -91 -449.5t-313 -179.5q-84 0 -163.5 28t-126.5 85l-129 -176zM285 633q0 -80 10 -172t12 -123l402 582 q-43 66 -90.5 89t-102.5 23q-129 0 -180 -113.5t-51 -285.5zM338 225q45 -45 81 -70.5t113 -25.5q127 0 175.5 137t48.5 332q0 72 -4 120t-11 89z" />
<glyph unicode="&#xf9;" horiz-adv-x="1024" d="M162 274v871h160v-887q0 -84 37.5 -127t93.5 -43q88 0 172 80t84 186v791h161v-1145h-161v145q-55 -100 -127 -139t-146 -39q-274 0 -274 307zM193 1565h241l176 -291h-145z" />
<glyph unicode="&#xfa;" horiz-adv-x="1024" d="M162 274v871h160v-887q0 -84 37.5 -127t93.5 -43q88 0 172 80t84 186v791h161v-1145h-161v145q-55 -100 -127 -139t-146 -39q-274 0 -274 307zM438 1257l178 291h226l-258 -291h-146z" />
<glyph unicode="&#xfb;" horiz-adv-x="1024" d="M162 274v871h160v-887q0 -84 37.5 -127t93.5 -43q88 0 172 80t84 186v791h161v-1145h-161v145q-55 -100 -127 -139t-146 -39q-274 0 -274 307zM217 1280l209 291h195q33 -57 95 -141l113 -150h-194l-113 178l-129 -178h-176z" />
<glyph unicode="&#xfc;" horiz-adv-x="1024" d="M162 274v871h160v-887q0 -84 37.5 -127t93.5 -43q88 0 172 80t84 186v791h161v-1145h-161v145q-55 -100 -127 -139t-146 -39q-274 0 -274 307zM270 1333v209h179v-209h-179zM578 1333v209h176v-209h-176z" />
<glyph unicode="&#xfd;" horiz-adv-x="905" d="M-16 1145h178l274 -1000l258 1000h176l-305 -1016q-53 -197 -99 -304.5t-112 -162.5q-51 -55 -178 -55q-51 0 -75.5 4t-67.5 18v162q63 -41 133 -41q82 0 135 57.5t53 176.5zM285 1257l178 291h225l-258 -291h-145z" />
<glyph unicode="&#xfe;" d="M145 -403v1773h146v-371q47 84 116.5 123t157.5 39q174 0 264.5 -155.5t90.5 -393.5q0 -336 -91.5 -498.5t-279.5 -162.5q-94 0 -140.5 36t-101.5 109v-499h-162zM307 549q0 -193 43 -323t182 -130q115 0 162 142.5t47 310.5q0 174 -41 328.5t-168 154.5 q-139 0 -182 -140t-43 -343z" />
<glyph unicode="&#xff;" horiz-adv-x="905" d="M-16 1145h178l274 -1000l258 1000h176l-305 -1016q-53 -197 -99 -304.5t-112 -162.5q-51 -55 -178 -55q-51 0 -75.5 4t-67.5 18v162q63 -41 133 -41q82 0 135 57.5t53 176.5zM209 1241v209h178v-209h-178zM516 1241v209h176v-209h-176z" />
<glyph unicode="&#x131;" horiz-adv-x="450" d="M145 0v1145h162v-1145h-162z" />
<glyph unicode="&#x152;" horiz-adv-x="1710" d="M113 791l16 262q27 223 130.5 375.5t336.5 152.5q72 0 149.5 -45t124.5 -117v129h742v-162h-563v-483h516v-162h-516v-579h548v-162h-710v129q-45 -82 -126 -122t-181 -40q-199 0 -302.5 137.5t-134 315.5t-30.5 371zM307 774q0 -246 52.5 -445.5t220.5 -199.5t229 108.5 t61 311.5v467q0 201 -73.5 302t-200.5 101q-145 0 -217 -158.5t-72 -486.5z" />
<glyph unicode="&#x153;" horiz-adv-x="1482" d="M63 565q0 244 72 420t316 176q104 0 185 -46t122 -116q55 82 113.5 122t160.5 40q229 0 291.5 -182t62.5 -430h-532q0 -221 27.5 -328.5t167.5 -107.5q96 0 136 76.5t40 181.5h161q0 -131 -78.5 -267.5t-258.5 -136.5q-98 0 -164 35t-127 127q-25 -61 -111 -111.5 t-180 -50.5q-233 0 -318.5 158.5t-85.5 439.5zM242 565q0 -227 53 -339.5t172 -112.5q147 0 179 122.5t32 344.5q0 223 -46 329.5t-165 106.5q-137 0 -181 -131.5t-44 -319.5zM854 694h356q0 164 -32.5 243t-145.5 79q-96 0 -137 -99.5t-41 -222.5z" />
<glyph unicode="&#x178;" horiz-adv-x="1155" d="M16 1532h209l340 -758l338 758h193l-434 -952v-580h-179v580zM322 1589v209h178v-209h-178zM629 1589v209h176v-209h-176z" />
<glyph unicode="&#x2c6;" horiz-adv-x="1034" d="M145 985l306 531h129l307 -531h-113l-258 354l-258 -354h-113z" />
<glyph unicode="&#x2dc;" horiz-adv-x="620" d="M-348 123q0 119 67.5 180.5t141.5 61.5q53 0 154.5 -40t136.5 -40q45 0 70.5 27.5t25.5 68.5h98q0 -102 -49 -172t-162 -70q-43 0 -141 36t-148 44q-35 0 -59.5 -26.5t-38.5 -69.5h-96z" />
<glyph unicode="&#x302;" horiz-adv-x="677" d="M33 1290l209 291h194q33 -57 95 -141l114 -150h-194l-113 178l-129 -178h-176z" />
<glyph unicode="&#x303;" horiz-adv-x="677" d="M-16 1290q0 119 67.5 180.5t141.5 61.5q53 0 154.5 -40t135.5 -40q45 0 71 27.5t26 68.5h98q0 -102 -49 -171.5t-162 -69.5q-43 0 -141.5 35.5t-147.5 43.5q-35 0 -59.5 -26.5t-38.5 -69.5h-96z" />
<glyph unicode="&#x2000;" horiz-adv-x="960" />
<glyph unicode="&#x2001;" horiz-adv-x="1923" />
<glyph unicode="&#x2002;" horiz-adv-x="960" />
<glyph unicode="&#x2003;" horiz-adv-x="1923" />
<glyph unicode="&#x2004;" horiz-adv-x="641" />
<glyph unicode="&#x2005;" horiz-adv-x="479" />
<glyph unicode="&#x2006;" horiz-adv-x="319" />
<glyph unicode="&#x2007;" horiz-adv-x="319" />
<glyph unicode="&#x2008;" horiz-adv-x="239" />
<glyph unicode="&#x2009;" horiz-adv-x="382" />
<glyph unicode="&#x200a;" horiz-adv-x="106" />
<glyph unicode="&#x2010;" horiz-adv-x="677" d="M80 549v176h500v-176h-500z" />
<glyph unicode="&#x2011;" horiz-adv-x="677" d="M80 549v176h500v-176h-500z" />
<glyph unicode="&#x2012;" horiz-adv-x="677" d="M80 549v176h500v-176h-500z" />
<glyph unicode="&#x2013;" horiz-adv-x="1075" d="M0 565v160h1032v-160h-1032z" />
<glyph unicode="&#x2014;" horiz-adv-x="1597" d="M-16 580v145h1548v-145h-1548z" />
<glyph unicode="&#x2018;" horiz-adv-x="450" d="M129 1049v208q0 133 46 208t163 100v-97q-57 -18 -76.5 -65t-19.5 -105v-41h96v-208h-209z" />
<glyph unicode="&#x2019;" horiz-adv-x="450" d="M113 1016v96q63 23 79.5 72t16.5 123h-96v225h209v-193q0 -156 -61.5 -232.5t-147.5 -90.5z" />
<glyph unicode="&#x201a;" horiz-adv-x="399" d="M98 16v226h209v-193q0 -156 -61.5 -232.5t-147.5 -90.5v96q63 23 80 72t17 122h-97z" />
<glyph unicode="&#x201c;" horiz-adv-x="790" d="M129 1065v209q0 133 46 207.5t163 99.5v-98q-57 -16 -76.5 -62.5t-19.5 -105.5v-41h96v-209h-209zM483 1065v209q0 133 46 207.5t165 99.5v-98q-61 -16 -79.5 -63.5t-18.5 -110.5v-35h98v-209h-211z" />
<glyph unicode="&#x201d;" horiz-adv-x="790" d="M129 1016v96q63 23 79.5 72t16.5 123h-96v225h209v-193q0 -156 -61.5 -232.5t-147.5 -90.5zM483 1016v96q63 23 80 72t17 123h-97v225h211v-193q0 -154 -62.5 -231.5t-148.5 -91.5z" />
<glyph unicode="&#x201e;" horiz-adv-x="790" d="M98 16v226h209v-193q0 -156 -61.5 -232.5t-147.5 -90.5v96q63 23 80 72t17 122h-97zM453 16v226h211v-193q0 -154 -62.5 -231.5t-148.5 -91.5v96q63 23 79.5 72t16.5 122h-96z" />
<glyph unicode="&#x2022;" horiz-adv-x="516" d="M14 756q0 129 87 219t253 90q147 0 227.5 -89t80.5 -216q0 -129 -86.5 -226.5t-238 -97.5t-237.5 94.5t-86 225.5z" />
<glyph unicode="&#x2026;" horiz-adv-x="2048" d="M242 0v209h194v-209h-194zM920 0v209h192v-209h-192zM1597 0v209h193v-209h-193z" />
<glyph unicode="&#x202f;" horiz-adv-x="382" />
<glyph unicode="&#x2039;" horiz-adv-x="565" d="M129 565v129l322 322v-162l-226 -225l242 -242v-162z" />
<glyph unicode="&#x203a;" horiz-adv-x="565" d="M113 242v178l209 209l-209 209v161l307 -305v-145z" />
<glyph unicode="&#x205f;" horiz-adv-x="479" />
<glyph unicode="&#x2122;" horiz-adv-x="1531" d="M-16 1386v130h581v-130h-211v-741h-145v741h-225zM678 645v871h192l195 -613l209 613h194v-854h-129v741l-243 -758h-64l-225 741v-741h-129z" />
<glyph unicode="&#xe000;" horiz-adv-x="1145" d="M0 1145h1145v-1145h-1145v1145z" />
<glyph unicode="&#xfb01;" horiz-adv-x="1015" d="M16 1016v145h162v178q0 131 81 181.5t194 50.5q45 0 79 -6v-146q-76 0 -135 -26.5t-59 -85.5v-146h194v-145h-178v-1016h-176v1016h-162zM711 0v1145h161v-1145h-161zM711 1339v209h161v-209h-161z" />
<glyph unicode="&#xfb02;" horiz-adv-x="1015" d="M16 1016v145h162v178q0 131 81 181.5t194 50.5q45 0 79 -6v-146q-76 0 -135 -26.5t-59 -85.5v-146h194v-145h-178v-1016h-176v1016h-162zM711 0v1548h176v-1548h-176z" />
<glyph unicode="&#xfb03;" horiz-adv-x="1581" d="M16 1016v145h162v178q0 131 81 181.5t194 50.5q45 0 79 -6v-146q-76 0 -135 -26.5t-59 -85.5v-146h194v-145h-178v-1016h-176v1016h-162zM582 1016v145h161v178q0 131 81 181.5t194 50.5q45 0 80 -6v-146q-76 0 -135.5 -26.5t-59.5 -85.5v-146h195v-145h-178v-1016h-177 v1016h-161zM1276 0v1145h162v-1145h-162zM1276 1339v209h162v-209h-162z" />
<glyph unicode="&#xfb04;" horiz-adv-x="1581" d="M16 1016v145h162v178q0 131 81 181.5t194 50.5q45 0 79 -6v-146q-76 0 -135 -26.5t-59 -85.5v-146h194v-145h-178v-1016h-176v1016h-162zM582 1016v145h161v178q0 131 81 181.5t194 50.5q45 0 80 -6v-146q-76 0 -135.5 -26.5t-59.5 -85.5v-146h195v-145h-178v-1016h-177 v1016h-161zM1276 0v1548h176v-1548h-176z" />
</font>
</defs>
</svg>
