<?xml version="1.0" standalone="no"?>
<!DOCTYPE svg PUBLIC "-//W3C//DTD SVG 1.1//EN" "http://www.w3.org/Graphics/SVG/1.1/DTD/svg11.dtd" >
<svg xmlns="http://www.w3.org/2000/svg">
<metadata>
This is a custom SVG webfont generated by Font Squirrel.
Copyright   : Copyright c 1992 Southern Software Inc All Rights Reserved
</metadata>
<defs>
<font id="ContextCondensedSSiCondensed" horiz-adv-x="1024" >
<font-face units-per-em="2048" ascent="1638" descent="-410" />
<missing-glyph horiz-adv-x="512" />
<glyph unicode=" "  horiz-adv-x="512" />
<glyph unicode="&#x09;" horiz-adv-x="512" />
<glyph unicode="&#xa0;" horiz-adv-x="512" />
<glyph unicode="!" horiz-adv-x="682" d="M248 0v207h186v-207h-186zM248 1075v477h186v-477l-47 -696h-92z" />
<glyph unicode="&#x22;" horiz-adv-x="512" d="M90 1061v467h107v-467h-107zM317 1061v467h107v-467h-107z" />
<glyph unicode="#" d="M10 526l35 121h221l78 256h-223l35 123h223l162 526h112l-159 -526h180l157 526h115l-160 -526h228l-35 -123h-229l-78 -256h229l-31 -121h-235l-160 -526h-113l160 526h-178l-164 -526h-112l161 526h-219zM381 647h178l78 256h-180z" />
<glyph unicode="$" d="M72 412q0 45 2 67h164q0 -118 11 -187t60 -116t154 -47v578q-107 51 -160 81.5t-105 79t-82 115t-30 152.5q0 116 45.5 210t131.5 148.5t200 58.5v134h90v-134q182 -9 269 -115.5t87 -297.5h-166q-2 93 -18 151.5t-72 87.5q-47 19 -100 19v-529q166 -75 240.5 -120.5 t116.5 -122t42 -205.5q0 -137 -45 -237t-135.5 -156.5t-222.5 -57.5v-209h-86v209q-107 6 -182 38.5t-121.5 91t-67 135.5t-20.5 178zM262 1161q0 -70 24 -116.5t66 -77t111 -66.5v496q-88 -5 -144.5 -60t-56.5 -176zM549 129q126 0 176.5 64.5t50.5 187.5q0 87 -24.5 139.5 t-71.5 85.5t-131 68v-545z" />
<glyph unicode="%" horiz-adv-x="1706" d="M113 1159q0 105 26.5 185.5t90.5 129t167 48.5q145 0 207 -105.5t62 -263.5q0 -135 -28.5 -218.5t-91.5 -122t-167 -38.5q-70 7 -117.5 28t-81.5 65t-50.5 114.5t-16.5 177.5zM250 1122q0 -233 139 -233t139 233q0 124 -24 204.5t-117 80.5q-90 0 -113.5 -80.5 t-23.5 -204.5zM428 -31l686 1583h105l-680 -1583h-111zM995 391q0 160 65.5 259.5t219.5 99.5q146 0 207 -103.5t61 -261.5q0 -208 -77 -296.5t-218 -88.5q-110 2 -184 96.5t-74 294.5zM1133 350q0 -233 139 -233t139 233q0 122 -24 202.5t-117 80.5q-90 0 -113.5 -80.5 t-23.5 -202.5z" />
<glyph unicode="&#x26;" horiz-adv-x="1366" d="M154 414q0 113 38.5 196t106.5 145.5t170 127.5q-72 94 -108.5 173t-36.5 175q0 133 80.5 227t209.5 94q71 0 130.5 -21.5t101.5 -60.5t66 -96.5t24 -130.5q0 -207 -264 -387l295 -434q50 144 59 289h152q-20 -267 -111 -428l203 -287h-207l-96 143q-141 -176 -363 -176 q-137 0 -238.5 55t-156.5 156.5t-55 239.5zM330 412q0 -136 79.5 -214.5t213.5 -78.5q137 0 254 143l-334 504q-73 -54 -117.5 -101t-70 -109t-25.5 -144zM479 1249q0 -46 17 -94t36.5 -82t65.5 -102q52 38 89.5 77t59 88t21.5 107q0 47 -17 85.5t-49.5 61.5t-78.5 23 q-64 0 -104 -48.5t-40 -115.5z" />
<glyph unicode="'" horiz-adv-x="512" d="M203 1061v467h106v-467h-106z" />
<glyph unicode="(" horiz-adv-x="682" d="M156 539q0 148 20.5 279.5t59.5 248.5t96.5 232.5t140.5 252.5h109l-84 -175q-46 -98 -83.5 -211t-62 -264t-24.5 -339q0 -290 61 -526t203 -481h-119q-150 249 -233.5 488.5t-83.5 494.5z" />
<glyph unicode=")" horiz-adv-x="682" d="M90 1552h119q74 -122 131 -239.5t98 -234.5t64.5 -244.5t23.5 -264.5q0 -290 -75 -514.5t-242 -498.5h-109l94 194q36 78 73.5 190.5t62 266.5t24.5 338q0 289 -60.5 526t-203.5 481z" />
<glyph unicode="*" d="M197 1292l34 92l232 -92v260h106v-254l228 86l32 -100l-233 -78l156 -198l-84 -66l-160 205l-148 -195l-88 56l154 192z" />
<glyph unicode="+" d="M90 453v145h350v446h144v-446h352v-145h-352v-453h-144v453h-350z" />
<glyph unicode="," horiz-adv-x="512" d="M164 -209q29 4 47 27q53 58 53 182h-100v207h186q0 -166 -6 -244q-4 -156 -100 -223q-28 -23 -80 -41v92z" />
<glyph unicode="-" horiz-adv-x="682" d="M92 569v172h498v-172h-498z" />
<glyph unicode="." horiz-adv-x="512" d="M164 0v207h186v-207h-186z" />
<glyph unicode="/" horiz-adv-x="569" d="M-27 -55l498 1607h125l-498 -1607h-125z" />
<glyph unicode="0" d="M94 764q0 147 11.5 270.5t52.5 243.5t127.5 197t226.5 77q188 0 280.5 -116.5t116 -279t23.5 -392.5q0 -231 -25 -397t-117.5 -282t-277.5 -116q-187 0 -279.5 129t-115.5 295.5t-23 370.5zM268 584q0 -96 8.5 -178t33.5 -144.5t74.5 -99.5t127.5 -37q83 0 134 50 t74.5 134t29.5 176.5t6 235.5v70v102q0 217 -46 355t-198 149q-103 0 -156.5 -80t-69.5 -190t-16 -236v-100q0 -67 -0.5 -110.5t-1.5 -96.5z" />
<glyph unicode="1" d="M152 1128v136q92 2 152.5 14t105 42t71 87t35.5 145h133v-1552h-170v1128h-327z" />
<glyph unicode="2" d="M90 0q3 195 62 336q26 64 120 153l293 287q95 92 127.5 158t32.5 188q0 130 -52 202.5t-175 72.5q-141 0 -183.5 -104t-42.5 -269h-170v94q0 183 99 312q117 122 305 122q129 0 217 -53.5t133 -152.5t45 -228q0 -109 -28 -190.5t-81 -147t-139 -145.5l-276 -254 q-57 -51 -82.5 -102t-28.5 -123h649v-156h-825z" />
<glyph unicode="3" d="M78 455h168q-2 -19 -2 -52q0 -278 254 -278q122 0 184.5 76t62.5 200q0 104 -19.5 165.5t-63 96t-108.5 46.5t-169 12v156q43 2 106.5 6t109 25t73.5 77.5t28 157.5q0 123 -47 188.5t-168 65.5q-131 0 -175 -81t-44 -224h-162q0 215 95.5 337.5t290.5 122.5 q112 0 199.5 -47t135 -135t47.5 -203q0 -133 -48.5 -220t-166.5 -130q130 -29 193 -124.5t63 -235.5q0 -110 -24.5 -198.5t-77 -154t-136 -100.5t-194.5 -35q-405 0 -405 486z" />
<glyph unicode="4" d="M57 387v160l574 1005h155v-1009h138v-156h-138v-387h-170v387h-559zM193 543h423v739z" />
<glyph unicode="5" d="M88 406h176q0 -139 54.5 -210t173.5 -71q126 0 185.5 105.5t59.5 267.5q0 161 -53.5 262.5t-202.5 101.5q-50 0 -92 -15.5t-72 -47t-51 -78.5h-151l90 799h653v-154h-516l-68 -461q54 57 112 85t136 28q100 0 177.5 -41t123 -108t68 -157t22.5 -186q0 -149 -40 -274.5 t-133.5 -204t-243.5 -78.5q-197 0 -302.5 111.5t-105.5 325.5z" />
<glyph unicode="6" d="M88 688q0 232 25 411t126 316t304 137q111 0 190.5 -45.5t122 -128.5t45.5 -196h-174q0 69 -21.5 118t-66.5 73t-117 24q-90 0 -144 -64t-79 -162t-31 -174.5t-12 -201.5h4q43 94 119.5 142t163.5 48q101 0 176 -38t122.5 -101.5t72 -150t24.5 -185.5q0 -161 -52.5 -284 t-145.5 -190t-210 -67q-146 0 -236 63.5t-134 168t-58 223.5t-14 264zM276 518q0 -108 18.5 -186.5t51 -123t78.5 -64t102 -19.5q93 0 145.5 57t71.5 141t19 177q0 329 -248 329q-238 0 -238 -311z" />
<glyph unicode="7" d="M90 1520h844v-142q-146 -200 -251.5 -423.5t-169.5 -465t-85 -489.5h-190q45 372 187 719t368 647h-703v154z" />
<glyph unicode="8" d="M94 444q0 118 44.5 202.5t110.5 130.5t136 59v4q-244 40 -244 342q0 152 95 261t294 109q109 0 189 -43t124 -129.5t44 -208.5q0 -83 -24.5 -152.5t-76 -116.5t-131.5 -62v-4q91 -16 153.5 -70.5t92 -132.5t29.5 -166q0 -142 -42 -253.5t-135 -178t-233 -66.5 q-207 0 -316.5 125t-109.5 350zM270 451q0 -326 254 -326q70 0 122.5 38t80 112.5t27.5 177.5q0 132 -58 216.5t-184 84.5q-85 0 -139 -41.5t-78.5 -110t-24.5 -151.5zM317 1163q0 -120 50 -188t153 -68q191 0 191 250q0 240 -193 240q-201 0 -201 -234z" />
<glyph unicode="9" d="M88 1010q0 161 52.5 284t145 190.5t210.5 67.5q147 0 238 -64t133.5 -165.5t56.5 -223t14 -268.5q0 -163 -11.5 -299.5t-54.5 -266.5t-138 -213t-251 -83q-166 0 -259.5 100.5t-98.5 270.5h174q0 -108 49 -161.5t156 -53.5q92 0 146.5 65.5t78.5 159t31.5 215t9.5 162.5 h-4q-30 -66 -74 -107.5t-97 -62t-112 -20.5q-99 0 -174.5 37.5t-124.5 104t-72.5 152.5t-23.5 179zM264 1040q0 -90 20.5 -169.5t73.5 -130t146 -50.5q91 0 147 45.5t79.5 117t23.5 161.5q0 97 -22.5 183t-78 143t-151.5 57q-90 0 -143 -53t-74 -133.5t-21 -170.5z" />
<glyph unicode=":" horiz-adv-x="512" d="M164 0v207h186v-207h-186zM164 924v206h186v-206h-186z" />
<glyph unicode=";" horiz-adv-x="512" d="M164 0v207h186q0 -166 -6 -244q-4 -156 -100 -223q-28 -23 -80 -41v92q29 4 47 27q53 58 53 182h-100zM164 924v206h186v-206h-186z" />
<glyph unicode="&#x3c;" d="M86 459v133l854 479v-151l-694 -394l694 -395v-151z" />
<glyph unicode="=" d="M90 256v145h846v-145h-846zM90 649v146h846v-146h-846z" />
<glyph unicode="&#x3e;" d="M86 -20v151l694 395l-694 394v151l854 -479v-133z" />
<glyph unicode="?" d="M123 1063q0 216 100.5 352.5t304.5 136.5q190 0 304 -105.5t114 -283.5q0 -96 -25.5 -168.5t-65.5 -126t-106.5 -126.5t-117.5 -140q-27 -46 -33 -70q-10 -57 -10 -176h-182q0 89 5.5 140t21 92.5t45.5 83.5t89 110l35 39l45 53q61 80 87 136.5t26 140.5 q0 105 -50.5 180.5t-156.5 75.5q-145 0 -198.5 -95t-53.5 -249h-178zM406 0v207h186v-207h-186z" />
<glyph unicode="@" horiz-adv-x="1638" d="M74 768q0 160 60.5 302.5t169 251t253 169.5t301.5 61q132 0 259 -46.5t226 -133.5q111 -96 166.5 -216t55.5 -265q0 -201 -125 -381q-160 -227 -361 -227q-58 0 -109 28t-69 82q-48 -49 -113 -77.5t-133 -28.5q-85 0 -150.5 42t-100.5 113.5t-35 157.5q0 106 37 217 t105.5 206t164 152.5t205.5 57.5q75 0 139 -36t94 -103l29 98h141l-211 -631q-26 -75 -26 -108q0 -24 17 -42t44 -18q45 0 92 25.5t90.5 66.5t65.5 76q32 47 56 104t36 115.5t12 118.5q0 125 -50.5 228.5t-135 174.5t-194.5 109.5t-228 38.5q-187 0 -341.5 -95.5 t-243.5 -255t-89 -345.5q0 -139 53.5 -264t147.5 -219t217.5 -147.5t259.5 -53.5q160 0 308.5 78.5t238.5 211.5h123q-63 -117 -169.5 -206t-238 -137t-262.5 -48q-160 0 -304.5 62.5t-251.5 172.5t-166.5 255.5t-59.5 308.5zM526 610q0 -80 43 -139t117 -59q75 0 136.5 58 t99.5 134q42 81 74 179t32 175q0 62 -41 106t-104 44q-102 0 -184 -81t-127.5 -198t-45.5 -219z" />
<glyph unicode="A" horiz-adv-x="1139" d="M23 0l438 1552h225l432 -1552h-188l-121 446h-485l-113 -446h-188zM365 602h405l-199 825h-4z" />
<glyph unicode="B" horiz-adv-x="1139" d="M164 0v1552h438q201 0 293 -101.5t98 -283.5q0 -139 -51.5 -218.5t-177.5 -123.5v-4q262 -31 266 -364q0 -114 -29 -198.5t-87 -142.5t-144 -87t-201 -29h-405zM334 887h151q20 0 31.5 -0.5t24.5 -1.5q139 0 204.5 57.5t65.5 210.5q0 98 -28 150t-99 73t-201 21h-149 v-510zM334 156h268q136 0 194 68.5t58 221.5q0 125 -41.5 188t-106 81t-157.5 18h-64h-151v-577z" />
<glyph unicode="C" horiz-adv-x="1139" d="M109 795q0 158 17.5 290t67.5 246t148 183t254 69q137 0 235.5 -63t148.5 -177t50 -258h-170q-7 342 -276 342q-134 0 -200 -104.5t-82.5 -234t-16.5 -289.5q-2 -31 -2 -111q0 -569 301 -569q96 0 150.5 46t78.5 116.5t37 173.5q4 33 5.5 56t4.5 50h170q-2 -14 -4 -47 t-4 -49q-5 -76 -12 -125t-25 -100.5t-53 -102.5q-124 -174 -334 -174q-168 0 -269 73t-148 193t-59.5 253t-12.5 313z" />
<glyph unicode="D" horiz-adv-x="1251" d="M168 0v1552h422q307 0 420.5 -191t113.5 -507q0 -26 -0.5 -42t-1.5 -36q-7 -222 -48 -390.5t-150.5 -277t-302.5 -108.5h-453zM338 1397v-1241h272q177 0 257.5 132t80.5 427q0 61 -2 92q-10 302 -77 446t-259 144h-272z" />
<glyph unicode="E" d="M152 0v1552h768v-155h-598v-514h561v-154h-561v-573h602v-156h-772z" />
<glyph unicode="F" horiz-adv-x="909" d="M152 0v1552h720v-155h-550v-510h512v-154h-512v-733h-170z" />
<glyph unicode="G" horiz-adv-x="1251" d="M111 786q0 158 19 292.5t72.5 251t155.5 185t260 68.5q217 0 337 -131t120 -352h-172q-2 151 -68.5 237.5t-207.5 89.5q-118 0 -189 -60t-103 -154.5t-40 -194t-8 -238.5v-55q0 -166 17 -290.5t80.5 -217t193.5 -98.5q145 0 221 75t98.5 186.5t22.5 260.5h-342v156h512 v-809h-132v241h-4q-32 -127 -127 -196.5t-225 -69.5q-162 0 -262.5 72.5t-150 193t-64 253.5t-14.5 304z" />
<glyph unicode="H" horiz-adv-x="1251" d="M162 0v1552h170v-649h588v649h170v-1552h-170v750h-588v-750h-170z" />
<glyph unicode="I" horiz-adv-x="569" d="M201 0v1552h170v-1552h-170z" />
<glyph unicode="J" horiz-adv-x="909" d="M45 403v82h170v-90q0 -85 9.5 -141t48.5 -92.5t120 -36.5q117 0 154 71.5t37 198.5v1157h170v-1169q0 -231 -94 -322.5t-269 -91.5q-214 0 -293 148q-53 99 -53 286z" />
<glyph unicode="K" horiz-adv-x="1139" d="M162 0v1552h170v-796l559 796h213l-490 -651l504 -901h-209l-415 750l-160 -211v-539h-172z" />
<glyph unicode="L" d="M170 0v1552h170v-1396h627v-156h-797z" />
<glyph unicode="M" horiz-adv-x="1593" d="M156 0v1552h301l301 -1210q20 -83 33 -229h4q9 73 16.5 118.5t22.5 112.5l305 1208h299v-1552h-170v1278v197h-4q-19 -91 -47 -209l-322 -1266h-203l-321 1284q-17 59 -45 191h-4q0 -33 2 -101t2 -100v-1274h-170z" />
<glyph unicode="N" horiz-adv-x="1251" d="M158 0v1552h276l436 -1271q17 -43 54 -168h4q-4 110 -4 172v1267h170v-1552h-279l-430 1241q-38 105 -57 234h-4q4 -156 4 -238v-1237h-170z" />
<glyph unicode="O" horiz-adv-x="1251" d="M121 809q0 160 18.5 290.5t70 240t155 176.5t266.5 67q209 0 320 -112t146.5 -280t35.5 -382q0 -184 -19 -330t-70.5 -262t-153 -185t-263.5 -69q-160 0 -262.5 69t-154.5 186t-69.5 259.5t-19.5 331.5zM297 805q2 -249 26 -392t95 -218.5t209 -75.5q103 0 168.5 43 t99.5 127t47.5 213.5t13.5 302.5q0 188 -28.5 325.5t-102.5 217t-202 79.5q-96 0 -159.5 -46.5t-100 -130.5t-51.5 -195t-15 -250z" />
<glyph unicode="P" horiz-adv-x="1139" d="M176 0v1552h404q109 0 202.5 -21t155.5 -81q125 -117 125 -332q0 -70 -11 -130t-36.5 -114.5t-67.5 -98.5t-102 -73q-73 -30 -169.5 -37.5t-227.5 -7.5h-103v-657h-170zM346 813h166q133 2 211 23t121 86t43 192q0 120 -45.5 181.5t-122.5 81.5t-197 20h-176v-584z" />
<glyph unicode="Q" horiz-adv-x="1251" d="M121 809q0 160 17.5 289.5t69.5 241t154 177.5t261 66q212 0 325.5 -112t150 -279.5t36.5 -382.5q0 -77 -9.5 -198.5t-36.5 -242.5t-73 -182l176 -149l-86 -107l-172 144q-50 -50 -135.5 -80.5t-171.5 -30.5q-160 0 -262.5 69t-154.5 186t-69.5 259.5t-19.5 331.5z M297 741q0 -291 71 -456.5t255 -165.5q55 2 97.5 14t86.5 43l-152 121l90 115l144 -117q26 45 47.5 181.5t21.5 264.5q-2 192 -15 313t-47 203.5t-100 126t-169 43.5t-168 -42.5t-100 -128.5t-47.5 -205.5t-14.5 -309.5z" />
<glyph unicode="R" horiz-adv-x="1251" d="M176 0v1552h395q169 0 281 -37t173.5 -134t61.5 -273q-3 -92 -39.5 -163t-101.5 -116t-153 -57v-4q100 -9 153.5 -37.5t80 -87.5t38.5 -166q10 -187 33 -344q9 -41 20.5 -69.5t38.5 -28.5v-35h-199q-24 65 -38.5 183.5t-14.5 211.5q0 131 -60.5 209t-201.5 78h-297v-682 h-170zM346 1397v-559h268q110 3 203.5 56.5t93.5 227.5q-1 123 -54 184t-121.5 76t-149.5 15h-240z" />
<glyph unicode="S" horiz-adv-x="1139" d="M104 492h170v-48q0 -164 62 -244.5t229 -80.5q134 0 213.5 69t79.5 201q0 85 -16.5 136.5t-46 76.5t-61.5 37.5t-126 46.5l-109 41q-78 29 -114 43.5t-78 36.5q-102 53 -142 139t-40 213q0 124 54.5 221.5t152.5 150t221 52.5q136 0 233.5 -47t150 -145.5t52.5 -245.5 h-170q0 87 -27.5 150.5t-83 97.5t-133.5 34q-165 0 -219.5 -78.5t-54.5 -197.5q0 -156 145 -211l244 -94q142 -53 217 -110.5t101 -128.5t26 -179q0 -145 -57.5 -249.5t-165.5 -160t-254 -55.5q-313 0 -420 246q-12 28 -18 61.5t-9 68.5t-4 84t-2 69z" />
<glyph unicode="T" d="M31 1397v155h964v-155h-397v-1397h-170v1397h-397z" />
<glyph unicode="U" horiz-adv-x="1251" d="M166 375v1177h170v-1116q0 -132 56 -224.5t235 -92.5q180 0 235.5 92.5t55.5 224.5v1116h169v-1177q0 -136 -56 -229t-160.5 -138t-243.5 -45q-216 0 -338.5 105t-122.5 307z" />
<glyph unicode="V" horiz-adv-x="1139" d="M23 1552h188l354 -1427h4l359 1427h188l-442 -1552h-211z" />
<glyph unicode="W" horiz-adv-x="1706" d="M35 1552h188l201 -1071q29 -170 45 -356h4q28 238 49 344l226 1083h210l203 -1071q23 -125 45 -356h4l16 129q5 40 15 107.5t19 107.5l223 1083h188l-360 -1552h-211l-205 1053q-28 137 -45 374h-4q-26 -255 -49 -374l-224 -1053h-211z" />
<glyph unicode="X" horiz-adv-x="1139" d="M35 0l436 797l-424 755h201l321 -606l322 606h201l-422 -755l434 -797h-209l-326 649l-331 -649h-203z" />
<glyph unicode="Y" horiz-adv-x="1139" d="M23 1552h188l358 -778l361 778h188l-465 -950v-602h-170v602z" />
<glyph unicode="Z" d="M57 0v150l725 1247h-706v155h882v-149l-725 -1247h736v-156h-912z" />
<glyph unicode="[" horiz-adv-x="682" d="M205 -432v1984h358v-125h-198v-1730h198v-129h-358z" />
<glyph unicode="\" horiz-adv-x="512" d="M-63 1552h118l520 -1552h-118z" />
<glyph unicode="]" horiz-adv-x="682" d="M119 -303h198v1730h-198v125h358v-1984h-358v129z" />
<glyph unicode="^" d="M143 688l318 864h100l322 -864h-111l-262 701l-258 -701h-109z" />
<glyph unicode="_" d="M0 -127h1024v-119h-1024v119z" />
<glyph unicode="`" horiz-adv-x="682" d="M72 1583h223l182 -293h-137z" />
<glyph unicode="a" horiz-adv-x="909" d="M63 305q0 70 32 152.5t132 128.5q3 1 166.5 67.5t175.5 77.5q20 18 25.5 47t5.5 84q0 99 -40.5 139.5t-139.5 40.5q-72 0 -107.5 -21.5t-47 -63.5t-11.5 -117h-145q0 179 83.5 260.5t253.5 81.5q190 0 250 -95.5t60 -218.5v-659q0 -70 28 -86q23 -2 70 -2v-121 q-26 -4 -37 -8q-16 0 -25 -0.5t-20 -1.5q-55 0 -86.5 13t-49 49t-24.5 104h-4q-29 -79 -100 -133t-152 -54q-162 0 -227.5 85t-65.5 251zM231 297q0 -63 13.5 -103.5t48 -62.5t98.5 -22q66 0 131.5 55.5t65.5 177.5v279q-32 -19 -69 -37q-37 -20 -83 -40l-104 -48 q-53 -24 -77 -77.5t-24 -121.5z" />
<glyph unicode="b" d="M154 0v1552h161v-520h4q93 150 238 150q134 0 214.5 -79.5t112 -201t31.5 -252.5q0 -138 -12.5 -254.5t-49.5 -214t-107.5 -154.5t-180.5 -57q-83 0 -148 38t-112 130h-4v-137h-147zM305 547q0 -123 11.5 -212t61.5 -157.5t154 -68.5q121 0 168.5 120t47.5 367 q0 178 -41.5 312t-176.5 134q-142 0 -183.5 -124.5t-41.5 -313.5v-57z" />
<glyph unicode="c" horiz-adv-x="909" d="M90 561q0 169 28.5 304.5t115 226t249.5 90.5q110 0 186.5 -52.5t114 -142.5t37.5 -199h-151q-4 254 -189 254q-74 0 -120 -43.5t-67.5 -114t-28.5 -147.5t-7 -159v-52q0 -171 40.5 -294t176.5 -123q117 0 155 76.5t46 215.5h153q-5 -188 -85.5 -310t-256.5 -122 q-125 0 -205 48.5t-121.5 131t-56 183.5t-14.5 229z" />
<glyph unicode="d" d="M98 578v49q0 162 38 286.5t115 196.5t189 72q83 0 143 -36t119 -114h5v520h161v-1552h-155v152h-4q-35 -69 -73 -109t-86 -57t-118 -17q-124 0 -194.5 73t-100 178t-34 216t-5.5 142zM262 582q0 -108 6 -189t28 -145.5t69.5 -101.5t126.5 -37q112 0 163.5 108.5 t51.5 233.5v143q0 188 -40 318t-182 130q-109 0 -166 -104t-57 -356z" />
<glyph unicode="e" horiz-adv-x="909" d="M88 578q0 141 31.5 278t113 231.5t220.5 94.5q130 0 204 -55t105 -145t36 -159.5t11 -261.5h-553q1 -50 2.5 -136.5t18.5 -156.5t61 -114.5t123 -44.5q188 0 188 274h152q0 -93 -21.5 -168t-65 -130.5t-108.5 -85.5t-149 -30q-113 0 -195 58t-128 192.5t-46 358.5z M256 694h385q-5 117 -13 178.5t-48 115.5t-125 54q-67 0 -106.5 -32.5t-58 -83t-23.5 -91t-11 -141.5z" />
<glyph unicode="f" horiz-adv-x="569" d="M25 1012v139h163v96q0 164 41 221q61 88 220 88q25 0 81 -4v-139q-48 4 -63 4q-65 0 -90 -29.5t-25 -115.5v-121h178v-139h-178v-1012h-162v1012h-165z" />
<glyph unicode="g" d="M92 584q0 141 30 276.5t111 228.5t220 93q81 0 146.5 -40.5t107.5 -121.5h4v131h161v-1012q0 -123 -16.5 -204.5t-69.5 -165.5q-37 -59 -84.5 -93t-105.5 -50.5t-123 -16.5q-141 0 -232 69.5t-108 210.5h158q19 -141 178 -141q150 0 194 93t44 237v57h-5 q-49 -87 -107.5 -126.5t-137.5 -39.5q-82 0 -149.5 33t-114.5 103t-74 191.5t-27 287.5zM260 575q0 -225 46.5 -345.5t160.5 -120.5q111 0 165 77.5t66.5 177.5t12.5 236q0 442 -228 442q-98 0 -147.5 -77.5t-62.5 -177t-13 -212.5z" />
<glyph unicode="h" d="M150 0v1552h161v-528q63 79 130.5 118.5t154.5 39.5q132 0 206.5 -74t74.5 -221v-887h-162v842q0 98 -38.5 149t-131.5 51q-94 0 -160 -63q-44 -40 -59 -89t-15 -120v-770h-161z" />
<glyph unicode="i" horiz-adv-x="455" d="M147 0v1151h162v-1151h-162zM147 1346v206h162v-206h-162z" />
<glyph unicode="j" horiz-adv-x="455" d="M27 -242q92 0 108 31q19 35 19 98v54v1210h161v-1196q0 -138 -26 -212t-87.5 -105t-174.5 -31v151zM154 1346v206h161v-206h-161z" />
<glyph unicode="k" horiz-adv-x="909" d="M141 0v1552h162v-938l393 537h193l-352 -449l362 -702h-188l-285 573l-123 -163v-410h-162z" />
<glyph unicode="l" horiz-adv-x="455" d="M147 0v1552h162v-1552h-162z" />
<glyph unicode="m" horiz-adv-x="1593" d="M156 0v1151h155v-147q48 79 118.5 128.5t156.5 49.5q90 0 161.5 -50.5t108.5 -132.5q62 92 131.5 137.5t173.5 45.5q121 0 209 -82q70 -68 70 -269v-831h-162v842q0 104 -37.5 152t-136.5 48q-89 -3 -152 -63q-45 -43 -59 -90.5t-14 -118.5v-770h-162v842q0 98 -38.5 149 t-131.5 51q-94 0 -160 -63q-45 -42 -57.5 -88t-12.5 -121v-770h-161z" />
<glyph unicode="n" d="M150 0v1151h157v-127q66 79 134 118.5t155 39.5q132 0 206.5 -74t74.5 -221v-887h-162v842q0 98 -38.5 149t-131.5 51q-94 0 -160 -63q-44 -40 -59 -89t-15 -120v-770h-161z" />
<glyph unicode="o" d="M104 614q0 176 44 303.5t135 196t229 68.5t229 -68.5t135 -196t44 -303.5q0 -243 -48.5 -384.5t-138 -201t-221.5 -59.5q-128 0 -218.5 60t-140 203t-49.5 382zM272 563q0 -221 53.5 -337.5t186.5 -116.5q137 0 188.5 116t51.5 338q0 170 -24.5 277t-77 154.5 t-138.5 47.5q-63 0 -108 -26.5t-74 -84.5t-43.5 -150t-14.5 -218z" />
<glyph unicode="p" d="M147 -389v1540h156v-129h4q38 76 100 115.5t136 44.5q103 0 176.5 -47.5t115.5 -124t61 -168.5t19 -191q0 -142 -15.5 -258.5t-54.5 -212.5t-111.5 -153.5t-182.5 -57.5q-79 0 -135.5 38t-106.5 114v-510h-162zM309 578q0 -127 12.5 -226.5t60 -171t144.5 -71.5 q122 0 172 120.5t50 366.5q0 446 -224 446q-96 0 -144 -76t-59.5 -170.5t-11.5 -217.5z" />
<glyph unicode="q" d="M111 618q0 98 18.5 197t59 183t106 134t156.5 50q171 0 262 -150h4v119h155v-1532h-161v508h-4q-57 -83 -112 -120.5t-130 -37.5q-120 0 -193 62t-110.5 191.5t-48.5 336.5q-2 19 -2 59zM279 600q1 -18 1.5 -33.5t0.5 -40.5q5 -198 50 -307.5t163 -109.5q141 0 179 136.5 t38 334.5q0 99 -5.5 170t-25 137.5t-64 110.5t-116.5 44q-89 0 -138 -62.5t-66 -158.5t-17 -221z" />
<glyph unicode="r" horiz-adv-x="682" d="M166 0v1151h156v-188h4q47 104 116 153t172 49q29 0 45 -2v-162q-34 7 -67 7q-82 0 -141.5 -38.5t-91 -110t-31.5 -163.5v-696h-162z" />
<glyph unicode="s" horiz-adv-x="909" d="M88 336h154q0 -118 44.5 -172.5t147.5 -54.5q217 0 217 192q0 58 -25.5 95.5t-65.5 59t-100 42t-89 32.5q-103 39 -159.5 75t-88 94.5t-31.5 156.5q0 71 24 132.5t69.5 105t107 66t133.5 22.5q352 0 352 -340h-157q0 108 -42 154t-139 46q-180 0 -180 -174 q0 -52 19.5 -87t54 -57.5t71.5 -36.5l87 -34l115 -51q69 -30 114 -63.5t71.5 -85t26.5 -129.5q0 -108 -47 -188.5t-135 -123.5t-203 -43q-51 0 -106 12.5t-101.5 39t-74.5 67.5q-43 62 -53.5 115.5t-10.5 132.5z" />
<glyph unicode="t" horiz-adv-x="569" d="M18 1012v139h158v311h160v-311h190v-139h-188v-785q0 -48 14 -68t62 -20h108v-139h-178q-85 0 -126.5 34.5t-41.5 153.5v824h-158z" />
<glyph unicode="u" d="M158 262v889h161v-895q0 -76 32 -111.5t114 -35.5q57 0 109 25.5t85 74.5q48 74 48 203v739h161v-1151h-161v152h-5q-25 -56 -68 -98.5t-94.5 -63.5t-107.5 -21q-130 0 -202 72.5t-72 220.5z" />
<glyph unicode="v" horiz-adv-x="909" d="M27 1151h168l258 -1012h4l258 1012h168l-342 -1151h-176z" />
<glyph unicode="w" horiz-adv-x="1366" d="M39 1151h168l207 -1012h4l180 1012h168l192 -1012h5l198 1012h168l-285 -1151h-167l-193 1012h-4l-180 -1012h-168z" />
<glyph unicode="x" horiz-adv-x="909" d="M18 0l349 592l-328 559h168l254 -414l252 414h168l-328 -559l340 -592h-168l-266 459l-273 -459h-168z" />
<glyph unicode="y" horiz-adv-x="909" d="M10 1151h168l256 -997h4l264 997h168l-338 -1100q-26 -87 -54 -171.5t-50 -121.5q-43 -80 -106 -115.5t-154 -35.5q-58 0 -117 18v146q54 -25 121 -25q71 0 106 30t55 84l40 113z" />
<glyph unicode="z" horiz-adv-x="797" d="M49 0v129l529 887h-506v135h673v-135l-528 -881h533v-135h-701z" />
<glyph unicode="{" horiz-adv-x="561" d="M14 678v4q83 8 138 61q31 34 39 66t8 88v385q0 75 17 128.5t69 86.5q37 25 77 37.5t79 15t104 2.5v-6q-107 -29 -145 -81t-38 -146v-385q0 -71 -16.5 -121t-60.5 -82.5t-127 -48.5v-4q85 -19 130 -57t59.5 -92t14.5 -136v-358q0 -89 39 -142.5t144 -85.5v-4 q-139 0 -214 31t-103.5 96t-28.5 179v340q0 68 -10.5 106.5t-55.5 71.5q-47 34 -119 51z" />
<glyph unicode="|" horiz-adv-x="512" d="M190 0v1552h132v-1552h-132z" />
<glyph unicode="}" horiz-adv-x="561" d="M16 1546v6q139 0 214 -31t103.5 -96t28.5 -178v-342q0 -66 11.5 -104.5t54.5 -71.5q43 -35 119 -53v-4q-83 -8 -137 -60q-33 -34 -40.5 -65.5t-7.5 -89.5v-385q0 -73 -16 -125.5t-70 -89.5q-36 -25 -76 -37t-79.5 -14.5t-104.5 -2.5v4q107 30 145 83t38 145v387 q0 110 41.5 169t162.5 81v4q-84 18 -129.5 57t-60 93.5t-14.5 136.5v356q0 91 -39.5 144t-143.5 83z" />
<glyph unicode="~" d="M90 442q49 112 104.5 178t135.5 66q70 0 196 -72l49 -25l49.5 -24t42 -16.5t33.5 -5.5q52 0 94 50.5t72 119.5l70 -97q-100 -229 -238 -229q-27 0 -64.5 14t-87 39t-75.5 37q-43 25 -75 39t-66 14q-42 0 -72.5 -27t-51 -63.5t-46.5 -95.5z" />
<glyph horiz-adv-x="1802" d="M0 264q2 89 61 156t152 67q23 0 36 -13t13 -36q0 -28 -48 -49.5t-71.5 -41.5t-23.5 -81q0 -65 49 -100t123 -35q2 1 4 1.5t4 0.5q70 0 138.5 26t113.5 75t45 114q0 50 -30 107t-88 143.5t-88 150.5t-30 130q0 201 197 376q89 81 204 138t218 57q70 0 117 -37t47 -106 q0 -22 -6 -43q88 80 202.5 136t219.5 56q70 0 116.5 -37t46.5 -106q0 -84 -59.5 -164t-146.5 -150q-72 -54 -145.5 -97.5t-123.5 -43.5q-19 0 -38 14t-19 33l2 4q0 40 70 66q110 36 206 110q73 59 109.5 113t36.5 92q0 31 -19 48.5t-53 17.5q-65 0 -150 -40t-147 -89 q-76 -58 -134 -146.5t-58 -173.5q0 -70 30.5 -134t90.5 -155.5t91 -151t31 -116.5q0 -92 -64 -164.5t-162 -111.5t-187 -39q-191 0 -262 110q-61 -54 -149 -85t-169 -31q-102 0 -170.5 33t-100.5 87t-32 115zM473 901q0 -55 20.5 -108t45.5 -94l76 -123q52 -82 69 -119 q61 37 109 37q21 0 35 -14t14 -36q0 -19 -12.5 -29.5t-40 -21t-46.5 -22t-32 -36t-13 -77.5q6 -57 54 -89t118 -32q2 1 4 1.5t5 0.5q70 0 138.5 26t113.5 75t45 114q0 50 -30 107t-88 143.5t-88 150.5t-30 130q0 69 23 135q-5 -4 -14 -14t-13 -13q-65 -51 -142.5 -96 t-125.5 -45q-20 0 -39 14t-19 33l2 4q0 40 70 66q108 35 207 110q72 60 108.5 113.5t36.5 91.5q0 31 -19 48.5t-52 17.5q-64 0 -148.5 -39.5t-148.5 -89.5q-78 -59 -135.5 -147t-57.5 -173zM1300 86q0 60 68 212t151 281.5t115 129.5q16 0 27.5 -10.5t11.5 -28.5 q0 -15 -55.5 -101t-110.5 -193t-98 -251q-14 -50 -24 -69t-39 -19q-20 0 -33 15t-13 34zM1706 954q0 26 21 62t50.5 62t55.5 26q24 0 36.5 -13.5t12.5 -35.5q0 -27 -21.5 -63.5t-51.5 -62.5t-56 -26q-47 0 -47 51z" />
<glyph unicode="&#xa1;" horiz-adv-x="682" d="M248 106l47 697h92l47 -697v-477h-186v477zM248 975v207h186v-207h-186z" />
<glyph unicode="&#xa2;" d="M119 549q0 128 19.5 246.5t78 213.5t166.5 124q55 18 129 18q28 0 55 -6l54 235h102l-59 -264q139 -63 170 -217q15 -68 18 -129h-160q-4 77 -16.5 125t-44.5 76l-191 -854q19 -8 66 -8q115 0 152 75t47 209h151q0 -14 -10 -102q-11 -73 -33.5 -130.5t-71.5 -107.5 q-36 -36 -100.5 -60t-124.5 -24t-106 13l-60 -265h-98l65 295q-60 33 -100 84q-30 52 -47.5 101t-29.5 108t-16.5 119.5t-4.5 124.5zM287 494q0 -221 67 -314l185 832q-13 4 -41 4q-85 0 -125 -53.5t-60 -147.5q-14 -69 -20 -147.5t-6 -173.5z" />
<glyph unicode="&#xa3;" d="M61 698v93h154q-34 64 -57.5 117t-37.5 109.5t-14 121.5t18.5 129.5t53.5 115.5q63 88 152.5 128t214.5 40q115 0 204.5 -43.5t141.5 -126t63 -200.5q2 -33 2 -103h-170q0 76 -4 115q-16 100 -81 151.5t-169 51.5q-123 0 -186 -76.5t-63 -204.5q0 -133 106 -325h336v-93 h-297q1 -3 6.5 -13.5t7.5 -20.5q23 -51 23 -117q0 -118 -66 -225.5t-168 -188.5l5 -4q102 61 219 61q45 0 84 -8q11 -3 73 -18.5t84 -22.5q31 -8 62 -8q83 0 178 68l57 -140q-48 -36 -83 -52.5t-72 -22.5t-101 -6q-35 0 -124 27.5t-115 33.5q-58 12 -117 12 q-64 0 -115.5 -20t-120.5 -64l-84 125q118 99 179 193.5t61 220.5q0 92 -45 190h-195z" />
<glyph unicode="&#xa4;" d="M49 621q0 92 21 165.5t67 147.5l-80 88l97 108l79 -88q124 103 285 103q138 0 268 -103l82 88l97 -108l-78 -88q44 -75 65 -153t21 -171q0 -81 -21 -150.5t-65 -144.5l78 -88l-97 -108l-82 88q-123 -103 -284 -103q-137 0 -269 103l-79 -88l-97 108l80 88 q-88 145 -88 306zM197 621q0 -99 40.5 -184.5t112 -135t156.5 -49.5q91 0 163.5 49.5t114 135.5t41.5 190q0 99 -40 183t-110.5 134.5t-156.5 50.5q-94 0 -167 -48.5t-113.5 -133.5t-40.5 -192z" />
<glyph unicode="&#xa5;" d="M-35 1552h205l342 -778l356 778h193l-473 -950v-59h282v-92h-282v-158h282v-90h-282v-203h-168v203h-283v90h283v158h-283v92h283v59z" />
<glyph unicode="&#xa6;" horiz-adv-x="512" d="M190 0v621h132v-621h-132zM190 932v620h132v-620h-132z" />
<glyph unicode="&#xa7;" d="M72 625q0 210 231 323q-68 45 -105.5 115.5t-37.5 153.5q0 101 47 177.5t129.5 117t185.5 40.5q109 0 187 -44.5t118.5 -127.5t40.5 -192h-168q0 105 -48 163t-150 58q-78 0 -129 -48t-51 -126q0 -37 7 -61.5t34.5 -54.5t73.5 -65t153 -108l136 -90q68 -44 117.5 -88.5 t80 -102t30.5 -135.5q0 -111 -57.5 -191t-161.5 -153q72 -54 110 -117.5t38 -148.5q0 -169 -104.5 -259.5t-289.5 -90.5q-80 0 -147 26.5t-115.5 78.5t-73 123.5t-24.5 158.5h166q2 -116 54.5 -182t164.5 -66q90 0 147.5 47t57.5 135q0 58 -27 102.5t-105.5 105 t-228.5 157.5q-112 71 -173.5 127.5t-87 113t-25.5 128.5zM236 657q0 -41 6.5 -64.5t37 -57t105.5 -91.5l-4 -4q-3 2 -6 5.5t-3.5 4t-0.5 1.5q6 0 126.5 -84.5t141.5 -100.5q77 61 114.5 110.5t37.5 123.5q0 59 -42.5 111.5t-173.5 144.5q-148 101 -176 118 q-80 -56 -121.5 -101t-41.5 -116z" />
<glyph unicode="&#xa8;" horiz-adv-x="682" d="M106 1346v206h162v-206h-162zM414 1346v206h161v-206h-161z" />
<glyph unicode="&#xa9;" horiz-adv-x="1638" d="M16 776q0 162 62 310t173.5 259.5t259 174.5t310.5 63q164 0 311 -63t257 -174t171.5 -258t61.5 -312q0 -222 -107 -408.5t-291.5 -295.5t-402.5 -109q-162 0 -309 62t-259.5 175t-174.5 262.5t-62 313.5zM137 776q0 -141 52 -267.5t147.5 -223t220.5 -150t264 -53.5 q186 0 342.5 93t247 253t90.5 348q0 140 -52.5 266.5t-145.5 220t-218 146.5t-264 53q-138 0 -264 -53t-220.5 -147.5t-147 -219.5t-52.5 -266zM410 782q0 98 31 184.5t87.5 148.5t138.5 97t183 35q93 0 175 -36.5t135 -106.5t69 -164h-119q-12 62 -49 110t-91.5 73.5 t-117.5 25.5q-77 0 -137 -27.5t-101.5 -78.5t-62.5 -116t-21 -143q0 -153 89 -263.5t237 -110.5q64 0 119 26t91.5 75t43.5 116h119q-15 -141 -122.5 -228.5t-250.5 -87.5q-133 0 -234 61.5t-156.5 168t-55.5 241.5z" />
<glyph unicode="&#xaa;" horiz-adv-x="614" d="M51 631v82h514v-82h-514zM51 1057q0 41 20.5 91t86.5 77l118 44q95 35 105 42q18 16 18 80q0 59 -25.5 82.5t-90.5 23.5q-68 0 -88.5 -26.5t-20.5 -92.5h-94q0 105 54 155t167 50q201 0 201 -188v-396q0 -43 18 -53h45v-74q-6 -1 -11 -1.5t-13 -2.5q-56 0 -80 5.5 t-36.5 26t-16.5 67.5h-5q-16 -46 -63.5 -79.5t-97.5 -33.5q-105 0 -148 51.5t-43 151.5zM162 1051q0 -57 21 -85t81 -28q43 0 85 32.5t42 106.5v168l-50 -25l-54 -23l-62 -26q-63 -26 -63 -120z" />
<glyph unicode="&#xab;" d="M174 582v125l309 317v-172l-204 -211l204 -211v-172zM541 582v125l309 317v-172l-205 -211l205 -211v-172z" />
<glyph unicode="&#xac;" d="M90 649v146h846v-553h-143v407h-703z" />
<glyph unicode="&#xad;" horiz-adv-x="682" d="M92 569v172h498v-172h-498z" />
<glyph unicode="&#xae;" horiz-adv-x="1638" d="M16 776q0 162 62.5 311t173.5 260t257.5 173.5t311.5 62.5q166 0 312 -62.5t255.5 -173t171.5 -258t62 -313.5q0 -222 -107 -408.5t-291.5 -295.5t-402.5 -109q-162 0 -309 62t-259.5 175t-174.5 262.5t-62 313.5zM137 774q0 -142 52 -267.5t148 -222t220.5 -149.5 t263.5 -53q185 0 342 92t247.5 251.5t90.5 348.5q0 187 -90.5 345.5t-247.5 250.5t-342 92q-139 0 -264.5 -53.5t-220 -148t-147 -220t-52.5 -266.5zM520 322v909h395q75 0 124 -8t94 -41q47 -25 74.5 -80t27.5 -115q0 -126 -77.5 -186t-205.5 -62l269 -417h-134l-253 417 h-199v-417h-115zM635 825h166h67q116 0 184 32t68 134q0 91 -64 122.5t-167 31.5h-254v-320z" />
<glyph unicode="&#xaf;" horiz-adv-x="682" d="M20 1360v119h642v-119h-642z" />
<glyph unicode="&#xb0;" horiz-adv-x="819" d="M102 1241q0 84 41 155t113 113.5t154 42.5q61 0 118 -24t99.5 -68t66 -100.5t23.5 -118.5q0 -84 -41.5 -155t-112.5 -112.5t-153 -41.5q-128 0 -218 91t-90 218zM229 1241q0 -75 52.5 -128.5t128.5 -53.5q73 0 126.5 53.5t53.5 128.5q0 49 -24.5 90.5t-66.5 66.5t-91 25 t-90 -25t-65 -67t-24 -90z" />
<glyph unicode="&#xb1;" d="M90 0v145h846v-145h-846zM90 578v143h350v323h144v-323h352v-143h-352v-330h-144v330h-350z" />
<glyph unicode="&#xb2;" horiz-adv-x="614" d="M39 621q4 122 41 200q30 71 74 115l184 164q94 85 94 194q0 73 -29 111.5t-102 38.5q-80 0 -103.5 -57t-23.5 -152h-127v57q0 110 64 187q78 73 198 73q125 0 190.5 -70t65.5 -190q0 -96 -37 -158t-122 -133l-181 -153q-33 -35 -46.5 -57.5t-14.5 -61.5h411v-108h-536z " />
<glyph unicode="&#xb3;" horiz-adv-x="614" d="M35 893h121q0 -186 151 -186q69 0 106.5 42t37.5 115q0 74 -20 112.5t-65 52t-130 13.5v117h55q63 0 97 26t34 118q0 73 -26 107t-97 34q-75 0 -101 -43.5t-26 -124.5h-119q0 124 61 200t191 76q111 0 179.5 -63.5t68.5 -169.5q0 -79 -31 -130t-108 -79q82 -17 124 -74.5 t42 -140.5q0 -137 -68.5 -215t-212.5 -78q-264 0 -264 291z" />
<glyph unicode="&#xb4;" horiz-adv-x="682" d="M205 1290l182 293h223l-268 -293h-137z" />
<glyph unicode="&#xb5;" d="M154 262v889h161v-895q0 -76 32 -111.5t114 -35.5q57 0 109 25.5t85 74.5q47 72 47 203v739h162v-1151h-162v152h-4q-25 -56 -68 -98.5t-94.5 -63.5t-107.5 -21q-11 0 -24 3t-31 11l-35 14q-16 7 -23 9v-397h-161v653z" />
<glyph unicode="&#xb6;" horiz-adv-x="901" d="M0 1151q0 84 27.5 164t78.5 137q40 44 80.5 64.5t85 27t103.5 8.5h426v-1792h-162v1653h-156v-1653h-161v998q-83 0 -158 54t-119.5 145t-44.5 194z" />
<glyph unicode="&#xb8;" horiz-adv-x="682" d="M135 -420l35 82q55 -19 80 -25t53 -6q46 0 67 11.5t42 35.5q8 9 8 33q0 59 -55 80q-15 6 -43 6q-38 0 -80 -14l-35 39l129 178h98l-94 -129q21 6 51 6q71 0 127.5 -35.5t56.5 -113.5q0 -104 -79 -147.5t-191 -43.5q-95 13 -170 43z" />
<glyph unicode="&#xb9;" horiz-adv-x="614" d="M137 1290v90q79 2 126 14.5t75 49.5t37 108h102v-931h-127v669h-213z" />
<glyph unicode="&#xba;" horiz-adv-x="614" d="M41 631v82h530v-82h-530zM41 1241q0 92 29 182q24 74 88.5 117t148.5 43q85 0 149.5 -43t88.5 -117q26 -86 26 -182q0 -137 -28 -221q-56 -166 -226 -166q-97 0 -156 40t-89 126q-31 89 -31 221zM152 1210q0 -131 34.5 -201.5t120.5 -70.5q88 0 121 69.5t33 202.5 q0 156 -35.5 222.5t-118.5 66.5q-82 0 -118.5 -67t-36.5 -222z" />
<glyph unicode="&#xbb;" d="M174 258v172l205 211l-205 211v172l309 -324v-125zM541 258v172l204 211l-204 211v172l309 -324v-125z" />
<glyph unicode="&#xbc;" horiz-adv-x="1536" d="M70 1290v90q80 2 126.5 15t75 49.5t35.5 107.5h103v-931h-127v669h-213zM293 0l926 1552h129l-926 -1552h-129zM903 221v113l367 598h119v-606h77v-105h-77v-221h-123v221h-363zM989 326h277v444z" />
<glyph unicode="&#xbd;" horiz-adv-x="1536" d="M86 1290v90q80 2 126.5 15t74.5 49.5t37 107.5h102v-931h-127v669h-213zM186 0l926 1552h129l-926 -1552h-129zM915 0q6 123 41 201q36 78 74 114l184 164q51 46 73 91t22 104q0 72 -29 110.5t-102 38.5q-80 0 -103.5 -56.5t-23.5 -152.5h-127v58q0 112 63 186 q79 74 199 74q124 0 190 -70t66 -190q0 -96 -37.5 -158t-122.5 -133l-180 -154q-33 -34 -47 -56.5t-15 -61.5h412v-109h-537z" />
<glyph unicode="&#xbe;" horiz-adv-x="1536" d="M43 893h121q0 -186 151 -186q70 0 107 42.5t37 114.5q0 74 -19.5 112t-64 52t-131.5 14v117h55q64 0 97.5 26.5t33.5 117.5q0 73 -26 107t-97 34q-75 0 -101 -43.5t-26 -124.5h-119q0 124 61 200t191 76q111 0 179.5 -63.5t68.5 -169.5q0 -79 -31 -130t-108 -79 q82 -17 124 -74.5t42 -140.5q0 -137 -68.5 -215t-212.5 -78q-264 0 -264 291zM322 0l925 1552h129l-925 -1552h-129zM932 221v113l366 598h119v-606h78v-105h-78v-221h-123v221h-362zM1018 326h276v444z" />
<glyph unicode="&#xbf;" d="M78 -4q0 98 25 168.5t56 112t106 129.5t118 153q34 49 43.5 82.5t9.5 87.5v72h182q0 -112 -11 -172.5t-42 -112t-108 -139.5q-97 -105 -145 -184.5t-48 -184.5q0 -104 50.5 -180t156.5 -76q147 0 199.5 95t52.5 247h178q0 -217 -100.5 -352t-304.5 -135q-125 0 -219.5 47 t-146.5 136.5t-52 205.5zM432 950v207h186v-207h-186z" />
<glyph unicode="&#xc0;" horiz-adv-x="1139" d="M23 0l438 1552h225l432 -1552h-188l-121 446h-485l-113 -446h-188zM301 1985h223l183 -293h-138zM365 602h405l-199 825h-4z" />
<glyph unicode="&#xc1;" horiz-adv-x="1139" d="M23 0l438 1552h225l432 -1552h-188l-121 446h-485l-113 -446h-188zM365 602h405l-199 825h-4zM434 1692l182 293h224l-269 -293h-137z" />
<glyph unicode="&#xc2;" horiz-adv-x="1139" d="M23 0l438 1552h225l432 -1552h-188l-121 446h-485l-113 -446h-188zM272 1692l203 293h191l204 -293h-163l-136 194l-135 -194h-164zM365 602h405l-199 825h-4z" />
<glyph unicode="&#xc3;" horiz-adv-x="1139" d="M23 0l438 1552h225l432 -1552h-188l-121 446h-485l-113 -446h-188zM223 1710q8 96 62.5 160.5t146.5 64.5q45 0 146 -37l49 -18q30 -10 55 -16t45 -6q34 0 62.5 29.5t31.5 64.5h99q-8 -95 -62.5 -161.5t-146.5 -66.5q-18 0 -43 6t-46 13l-57 20q-45 18 -81 29.5t-68 11.5 q-34 0 -62.5 -29.5t-31.5 -64.5h-99zM365 602h405l-199 825h-4z" />
<glyph unicode="&#xc4;" horiz-adv-x="1139" d="M23 0l438 1552h225l432 -1552h-188l-121 446h-485l-113 -446h-188zM336 1747v207h162v-207h-162zM365 602h405l-199 825h-4zM643 1747v207h162v-207h-162z" />
<glyph unicode="&#xc5;" horiz-adv-x="1139" d="M23 0l438 1552h225l432 -1552h-188l-121 446h-485l-113 -446h-188zM360 1839q0 86 62.5 147.5t146.5 61.5q56 0 104 -28t76.5 -76.5t28.5 -104.5q0 -88 -61.5 -149.5t-147.5 -61.5q-83 0 -146 62t-63 149zM365 602h405l-199 825h-4zM442 1839q0 -48 39.5 -87.5 t87.5 -39.5q51 0 89 39t38 88q0 51 -38 88t-89 37q-48 0 -87.5 -38.5t-39.5 -86.5z" />
<glyph unicode="&#xc6;" horiz-adv-x="1706" d="M0 0l750 1552h858v-155h-566v-514h527v-154h-527v-573h560v-156h-728v444h-477l-204 -444h-193zM469 600h403v797h-28z" />
<glyph unicode="&#xc7;" horiz-adv-x="1139" d="M109 795q0 158 17.5 290t67.5 246t148 183t254 69q137 0 235.5 -63t148.5 -177t50 -258h-170q-7 342 -276 342q-134 0 -200 -104.5t-82.5 -234t-16.5 -289.5q-2 -31 -2 -111q0 -569 301 -569q96 0 150.5 46t78.5 116.5t37 173.5q4 33 5.5 56t4.5 50h170q-2 -14 -4 -47 t-4 -49q-5 -76 -12 -125t-25 -100.5t-53 -102.5q-124 -174 -334 -174q-168 0 -269 73t-148 193t-59.5 253t-12.5 313zM365 -420l34 82q55 -19 80 -25t53 -6q46 0 67 11.5t42 35.5q8 9 8 33q0 59 -55 80q-14 6 -43 6q-36 0 -80 -14l-35 39l129 178h99l-95 -129q22 6 52 6 q71 0 127.5 -36t56.5 -113q0 -104 -79 -147.5t-191 -43.5q-94 12 -170 43z" />
<glyph unicode="&#xc8;" d="M152 0v1552h768v-155h-598v-514h561v-154h-561v-573h602v-156h-772zM244 1985h223l182 -293h-137z" />
<glyph unicode="&#xc9;" d="M152 0v1552h768v-155h-598v-514h561v-154h-561v-573h602v-156h-772zM377 1692l182 293h223l-268 -293h-137z" />
<glyph unicode="&#xca;" d="M152 0v1552h768v-155h-598v-514h561v-154h-561v-573h602v-156h-772zM215 1692l203 293h190l205 -293h-164l-135 194l-135 -194h-164z" />
<glyph unicode="&#xcb;" d="M152 0v1552h768v-155h-598v-514h561v-154h-561v-573h602v-156h-772zM279 1747v207h161v-207h-161zM586 1747v207h162v-207h-162z" />
<glyph unicode="&#xcc;" horiz-adv-x="627" d="M16 1985h224l182 -293h-137zM201 0v1552h170v-1552h-170z" />
<glyph unicode="&#xcd;" horiz-adv-x="627" d="M150 1692l182 293h223l-268 -293h-137zM201 0v1552h170v-1552h-170z" />
<glyph unicode="&#xce;" horiz-adv-x="627" d="M-12 1692l202 293h191l205 -293h-164l-135 194l-135 -194h-164zM201 0v1552h170v-1552h-170z" />
<glyph unicode="&#xcf;" horiz-adv-x="627" d="M51 1747v207h162v-207h-162zM201 0v1552h170v-1552h-170zM358 1747v207h162v-207h-162z" />
<glyph unicode="&#xd0;" horiz-adv-x="1251" d="M-12 711v163h180v678h422q307 0 420.5 -191t113.5 -507q0 -26 -0.5 -42t-1.5 -36q-7 -222 -48 -390.5t-150.5 -277t-302.5 -108.5h-453v711h-180zM338 1397v-523h215v-163h-215v-555h272q177 0 257.5 132t80.5 427q0 61 -2 92q-10 302 -77 446t-259 144h-272z" />
<glyph unicode="&#xd1;" horiz-adv-x="1251" d="M158 0v1552h276l436 -1271q17 -43 54 -168h4q-4 110 -4 172v1267h170v-1552h-279l-430 1241q-38 105 -57 234h-4q4 -156 4 -238v-1237h-170zM279 1710q8 95 62 160t146 65q45 0 146 -37l49 -17q30 -11 55 -17t45 -6q34 0 63 29t32 65h98q-8 -95 -62.5 -161.5 t-146.5 -66.5q-19 0 -43 6t-44 13l-58 20q-51 20 -84.5 30.5t-65.5 10.5q-34 0 -62.5 -29.5t-31.5 -64.5h-98z" />
<glyph unicode="&#xd2;" horiz-adv-x="1251" d="M121 809q0 160 18.5 290.5t70 240t155 176.5t266.5 67q209 0 320 -112t146.5 -280t35.5 -382q0 -184 -19 -330t-70.5 -262t-153 -185t-263.5 -69q-160 0 -262.5 69t-154.5 186t-69.5 259.5t-19.5 331.5zM297 805q2 -249 26 -392t95 -218.5t209 -75.5q103 0 168.5 43 t99.5 127t47.5 213.5t13.5 302.5q0 188 -28.5 325.5t-102.5 217t-202 79.5q-96 0 -159.5 -46.5t-100 -130.5t-51.5 -195t-15 -250zM356 1985h224l182 -293h-137z" />
<glyph unicode="&#xd3;" horiz-adv-x="1251" d="M121 809q0 160 18.5 290.5t70 240t155 176.5t266.5 67q209 0 320 -112t146.5 -280t35.5 -382q0 -184 -19 -330t-70.5 -262t-153 -185t-263.5 -69q-160 0 -262.5 69t-154.5 186t-69.5 259.5t-19.5 331.5zM297 805q2 -249 26 -392t95 -218.5t209 -75.5q103 0 168.5 43 t99.5 127t47.5 213.5t13.5 302.5q0 188 -28.5 325.5t-102.5 217t-202 79.5q-96 0 -159.5 -46.5t-100 -130.5t-51.5 -195t-15 -250zM489 1692l183 293h223l-268 -293h-138z" />
<glyph unicode="&#xd4;" horiz-adv-x="1251" d="M121 809q0 160 18.5 290.5t70 240t155 176.5t266.5 67q209 0 320 -112t146.5 -280t35.5 -382q0 -184 -19 -330t-70.5 -262t-153 -185t-263.5 -69q-160 0 -262.5 69t-154.5 186t-69.5 259.5t-19.5 331.5zM297 805q2 -249 26 -392t95 -218.5t209 -75.5q103 0 168.5 43 t99.5 127t47.5 213.5t13.5 302.5q0 188 -28.5 325.5t-102.5 217t-202 79.5q-96 0 -159.5 -46.5t-100 -130.5t-51.5 -195t-15 -250zM328 1692l202 293h191l205 -293h-164l-135 194l-135 -194h-164z" />
<glyph unicode="&#xd5;" horiz-adv-x="1251" d="M121 809q0 160 18.5 290.5t70 240t155 176.5t266.5 67q209 0 320 -112t146.5 -280t35.5 -382q0 -184 -19 -330t-70.5 -262t-153 -185t-263.5 -69q-160 0 -262.5 69t-154.5 186t-69.5 259.5t-19.5 331.5zM279 1710q8 95 62 160t146 65q45 0 146 -37l49 -18q30 -10 55 -16 t45 -6q34 0 63 29t32 65h98q-8 -95 -62.5 -161.5t-146.5 -66.5q-19 0 -43 6t-44 12l-58 21q-51 20 -84.5 30.5t-65.5 10.5q-34 0 -62.5 -29.5t-31.5 -64.5h-98zM297 805q2 -249 26 -392t95 -218.5t209 -75.5q103 0 168.5 43t99.5 127t47.5 213.5t13.5 302.5 q0 188 -28.5 325.5t-102.5 217t-202 79.5q-96 0 -159.5 -46.5t-100 -130.5t-51.5 -195t-15 -250z" />
<glyph unicode="&#xd6;" horiz-adv-x="1251" d="M121 809q0 160 18.5 290.5t70 240t155 176.5t266.5 67q209 0 320 -112t146.5 -280t35.5 -382q0 -184 -19 -330t-70.5 -262t-153 -185t-263.5 -69q-160 0 -262.5 69t-154.5 186t-69.5 259.5t-19.5 331.5zM297 805q2 -249 26 -392t95 -218.5t209 -75.5q103 0 168.5 43 t99.5 127t47.5 213.5t13.5 302.5q0 188 -28.5 325.5t-102.5 217t-202 79.5q-96 0 -159.5 -46.5t-100 -130.5t-51.5 -195t-15 -250zM391 1747v207h162v-207h-162zM698 1747v207h162v-207h-162z" />
<glyph unicode="&#xd7;" d="M90 201l322 325l-322 324l103 102l319 -325l324 327l100 -104l-322 -324l322 -325l-102 -103l-322 326l-324 -326z" />
<glyph unicode="&#xd8;" horiz-adv-x="1251" d="M59 -39l156 252q-37 75 -58 172t-28.5 203.5t-7.5 226.5q0 160 17.5 288t69.5 238t155.5 176t265.5 66q227 0 346 -135l123 199l76 -45l-144 -232q30 -52 52 -121t33.5 -138.5t16.5 -139.5t5 -156q0 -176 -19.5 -326t-72.5 -269t-156.5 -188t-263.5 -69q-235 0 -359 164 l-131 -215zM297 811q3 -265 35 -408l547 887q-40 71 -99 101.5t-153 35.5q-97 0 -161 -47t-100.5 -129t-52.5 -193.5t-16 -246.5zM367 287q74 -168 264 -168q136 0 207.5 76.5t96 225t26.5 390.5q0 233 -41 377z" />
<glyph unicode="&#xd9;" horiz-adv-x="1251" d="M166 375v1177h170v-1116q0 -132 56 -224.5t235 -92.5q180 0 235.5 92.5t55.5 224.5v1116h169v-1177q0 -136 -56 -229t-160.5 -138t-243.5 -45q-216 0 -338.5 105t-122.5 307zM356 1985h224l182 -293h-137z" />
<glyph unicode="&#xda;" horiz-adv-x="1251" d="M166 375v1177h170v-1116q0 -132 56 -224.5t235 -92.5q180 0 235.5 92.5t55.5 224.5v1116h169v-1177q0 -136 -56 -229t-160.5 -138t-243.5 -45q-216 0 -338.5 105t-122.5 307zM489 1692l183 293h223l-268 -293h-138z" />
<glyph unicode="&#xdb;" horiz-adv-x="1251" d="M166 375v1177h170v-1116q0 -132 56 -224.5t235 -92.5q180 0 235.5 92.5t55.5 224.5v1116h169v-1177q0 -136 -56 -229t-160.5 -138t-243.5 -45q-216 0 -338.5 105t-122.5 307zM328 1692l202 293h191l205 -293h-164l-135 194l-135 -194h-164z" />
<glyph unicode="&#xdc;" horiz-adv-x="1251" d="M166 375v1177h170v-1116q0 -132 56 -224.5t235 -92.5q180 0 235.5 92.5t55.5 224.5v1116h169v-1177q0 -136 -56 -229t-160.5 -138t-243.5 -45q-216 0 -338.5 105t-122.5 307zM391 1747v207h162v-207h-162zM698 1747v207h162v-207h-162z" />
<glyph unicode="&#xdd;" horiz-adv-x="1139" d="M23 1552h188l358 -778l361 778h188l-465 -950v-602h-170v602zM434 1692l182 293h224l-269 -293h-137z" />
<glyph unicode="&#xde;" horiz-adv-x="1139" d="M176 0v1552h170v-329h234q253 0 358 -103q125 -117 125 -329q0 -317 -217 -416q-73 -30 -169.5 -37.5t-227.5 -7.5h-103v-330h-170zM346 483h166q104 2 166.5 12t111 42t73 92.5t24.5 156.5q0 120 -45.5 180.5t-122.5 80.5t-197 20h-176v-584z" />
<glyph unicode="&#xdf;" d="M145 0v1112q0 118 15.5 194t68.5 146q100 131 281 131q109 0 187.5 -50t119.5 -138t41 -195q0 -108 -36 -186t-126 -121q123 -50 169 -159.5t46 -264.5q0 -129 -28.5 -236t-99 -175t-191.5 -68q-97 0 -141 30v162q64 -53 172 -53q69 18 94.5 106t25.5 205q0 71 -3 125 t-17.5 108.5t-44.5 86.5q-32 34 -78 42.5t-127 10.5v139q119 0 174 57t55 177q0 115 -51 186.5t-159 71.5q-96 0 -156 -94q-29 -64 -29 -203v-1147h-162z" />
<glyph unicode="&#xe0;" horiz-adv-x="909" d="M63 305q0 70 32 152.5t132 128.5q3 1 166.5 67.5t175.5 77.5q20 18 25.5 47t5.5 84q0 99 -40.5 139.5t-139.5 40.5q-72 0 -107.5 -21.5t-47 -63.5t-11.5 -117h-145q0 179 83.5 260.5t253.5 81.5q190 0 250 -95.5t60 -218.5v-659q0 -70 28 -86q23 -2 70 -2v-121 q-26 -4 -37 -8q-16 0 -25 -0.5t-20 -1.5q-55 0 -86.5 13t-49 49t-24.5 104h-4q-29 -79 -100 -133t-152 -54q-162 0 -227.5 85t-65.5 251zM186 1583h224l182 -293h-137zM231 297q0 -63 13.5 -103.5t48 -62.5t98.5 -22q66 0 131.5 55.5t65.5 177.5v279q-32 -19 -69 -37.5 t-83 -39.5l-104 -48q-53 -24 -77 -77.5t-24 -121.5z" />
<glyph unicode="&#xe1;" horiz-adv-x="909" d="M63 305q0 70 32 152.5t132 128.5q3 1 166.5 67.5t175.5 77.5q20 18 25.5 47t5.5 84q0 99 -40.5 139.5t-139.5 40.5q-72 0 -107.5 -21.5t-47 -63.5t-11.5 -117h-145q0 179 83.5 260.5t253.5 81.5q190 0 250 -95.5t60 -218.5v-659q0 -70 28 -86q23 -2 70 -2v-121 q-26 -4 -37 -8q-16 0 -25 -0.5t-20 -1.5q-55 0 -86.5 13t-49 49t-24.5 104h-4q-29 -79 -100 -133t-152 -54q-162 0 -227.5 85t-65.5 251zM231 297q0 -63 13.5 -103.5t48 -62.5t98.5 -22q66 0 131.5 55.5t65.5 177.5v279q-32 -19 -69 -37.5t-83 -39.5l-104 -48 q-53 -24 -77 -77.5t-24 -121.5zM319 1290l183 293h223l-268 -293h-138z" />
<glyph unicode="&#xe2;" horiz-adv-x="909" d="M63 305q0 70 32 152.5t132 128.5q3 1 166.5 67.5t175.5 77.5q20 18 25.5 47t5.5 84q0 99 -40.5 139.5t-139.5 40.5q-72 0 -107.5 -21.5t-47 -63.5t-11.5 -117h-145q0 179 83.5 260.5t253.5 81.5q190 0 250 -95.5t60 -218.5v-659q0 -70 28 -86q23 -2 70 -2v-121 q-26 -4 -37 -8q-16 0 -25 -0.5t-20 -1.5q-55 0 -86.5 13t-49 49t-24.5 104h-4q-29 -79 -100 -133t-152 -54q-162 0 -227.5 85t-65.5 251zM158 1290l202 293h191l205 -293h-164l-135 195l-135 -195h-164zM231 297q0 -63 13.5 -103.5t48 -62.5t98.5 -22q66 0 131.5 55.5 t65.5 177.5v279q-32 -19 -69 -37.5t-83 -39.5l-104 -48q-53 -24 -77 -77.5t-24 -121.5z" />
<glyph unicode="&#xe3;" horiz-adv-x="909" d="M63 305q0 70 32 152.5t132 128.5q3 1 166.5 67.5t175.5 77.5q20 18 25.5 47t5.5 84q0 99 -40.5 139.5t-139.5 40.5q-72 0 -107.5 -21.5t-47 -63.5t-11.5 -117h-145q0 179 83.5 260.5t253.5 81.5q190 0 250 -95.5t60 -218.5v-659q0 -70 28 -86q23 -2 70 -2v-121 q-26 -4 -37 -8q-16 0 -25 -0.5t-20 -1.5q-55 0 -86.5 13t-49 49t-24.5 104h-4q-29 -79 -100 -133t-152 -54q-162 0 -227.5 85t-65.5 251zM109 1309q8 94 62.5 159.5t145.5 65.5q38 0 146 -37l49 -18q24 -9 52 -16t48 -7q34 0 63 29t32 65h98q-8 -96 -62.5 -161.5 t-146.5 -65.5q-19 0 -43 6t-43 13l-59 20l-87 31q-29 10 -63 10t-62.5 -29.5t-31.5 -64.5h-98zM231 297q0 -63 13.5 -103.5t48 -62.5t98.5 -22q66 0 131.5 55.5t65.5 177.5v279q-32 -19 -69 -37.5t-83 -39.5l-104 -48q-53 -24 -77 -77.5t-24 -121.5z" />
<glyph unicode="&#xe4;" horiz-adv-x="909" d="M63 305q0 70 32 152.5t132 128.5q3 1 166.5 67.5t175.5 77.5q20 18 25.5 47t5.5 84q0 99 -40.5 139.5t-139.5 40.5q-72 0 -107.5 -21.5t-47 -63.5t-11.5 -117h-145q0 179 83.5 260.5t253.5 81.5q190 0 250 -95.5t60 -218.5v-659q0 -70 28 -86q23 -2 70 -2v-121 q-26 -4 -37 -8q-16 0 -25 -0.5t-20 -1.5q-55 0 -86.5 13t-49 49t-24.5 104h-4q-29 -79 -100 -133t-152 -54q-162 0 -227.5 85t-65.5 251zM221 1346v206h162v-206h-162zM231 297q0 -63 13.5 -103.5t48 -62.5t98.5 -22q66 0 131.5 55.5t65.5 177.5v279q-32 -19 -69 -37.5 t-83 -39.5l-104 -48q-53 -24 -77 -77.5t-24 -121.5zM528 1346v206h162v-206h-162z" />
<glyph unicode="&#xe5;" horiz-adv-x="909" d="M63 305q0 70 32 152.5t132 128.5q3 1 166.5 67.5t175.5 77.5q20 18 25.5 47t5.5 84q0 99 -40.5 139.5t-139.5 40.5q-72 0 -107.5 -21.5t-47 -63.5t-11.5 -117h-145q0 179 83.5 260.5t253.5 81.5q190 0 250 -95.5t60 -218.5v-659q0 -70 28 -86q23 -2 70 -2v-121 q-26 -4 -37 -8q-16 0 -25 -0.5t-20 -1.5q-55 0 -86.5 13t-49 49t-24.5 104h-4q-29 -79 -100 -133t-152 -54q-162 0 -227.5 85t-65.5 251zM231 297q0 -63 13.5 -103.5t48 -62.5t98.5 -22q66 0 131.5 55.5t65.5 177.5v279q-32 -19 -69 -37.5t-83 -39.5l-104 -48 q-53 -24 -77 -77.5t-24 -121.5zM246 1438q0 85 62 147t147 62q56 0 104 -28t76.5 -77t28.5 -104q0 -87 -62 -149t-147 -62t-147 62t-62 149zM328 1438q0 -50 37.5 -88.5t89.5 -38.5q49 0 88 38t39 89t-39 88t-88 37q-50 0 -88.5 -37.5t-38.5 -87.5z" />
<glyph unicode="&#xe6;" horiz-adv-x="1366" d="M53 279q0 119 38 189t110 112q38 23 86 40l129 46q81 29 114 45q74 36 74 141q0 96 -42.5 141t-137.5 45q-170 0 -170 -202h-154q0 134 73 240t247 106q82 0 154.5 -32.5t115.5 -98.5q44 58 110 92.5t140 34.5q124 0 196.5 -55.5t105 -144.5t40.5 -185t8 -234h-532 q0 -15 -0.5 -34t-1.5 -44q0 -228 49 -317q22 -33 56.5 -44t84.5 -11q178 0 182 266h150q0 -175 -80.5 -290.5t-249.5 -115.5q-75 0 -128 20t-92.5 61.5t-70.5 107.5q-37 -63 -85 -105.5t-106.5 -63t-131.5 -20.5q-139 0 -210 84.5t-71 225.5zM221 283q0 -79 39 -126.5 t119 -47.5q116 0 176 84q23 32 29 87.5t6 170.5v167l-117 -55l-118 -57q-27 -13 -61.5 -43.5t-53.5 -73t-19 -106.5zM758 692h364q0 84 -11.5 161t-50.5 131t-112 54q-88 0 -128.5 -51.5t-50 -121t-11.5 -173.5z" />
<glyph unicode="&#xe7;" horiz-adv-x="909" d="M90 561q0 169 28.5 304.5t115 226t249.5 90.5q110 0 186.5 -52.5t114 -142.5t37.5 -199h-151q-4 254 -189 254q-74 0 -120 -43.5t-67.5 -114t-28.5 -147.5t-7 -159v-52q0 -171 40.5 -294t176.5 -123q117 0 155 76.5t46 215.5h153q-5 -188 -85.5 -310t-256.5 -122 q-125 0 -205 48.5t-121.5 131t-56 183.5t-14.5 229zM250 -420l35 82q55 -19 80 -25t53 -6q31 0 50.5 5.5t32.5 16t25 25.5q9 10 9 33q0 58 -56 80q-14 6 -43 6q-36 0 -80 -14l-34 39l129 178h98l-94 -129q21 6 51 6q71 0 127.5 -35.5t56.5 -113.5q0 -104 -79 -147.5 t-191 -43.5q-94 12 -170 43z" />
<glyph unicode="&#xe8;" horiz-adv-x="909" d="M88 578q0 141 31.5 278t113 231.5t220.5 94.5q130 0 204 -55t105 -145t36 -159.5t11 -261.5h-553q1 -50 2.5 -136.5t18.5 -156.5t61 -114.5t123 -44.5q188 0 188 274h152q0 -93 -21.5 -168t-65 -130.5t-108.5 -85.5t-149 -30q-113 0 -195 58t-128 192.5t-46 358.5z M186 1583h224l182 -293h-137zM256 694h385q-5 117 -13 178.5t-48 115.5t-125 54q-67 0 -106.5 -32.5t-58 -83t-23.5 -91t-11 -141.5z" />
<glyph unicode="&#xe9;" horiz-adv-x="909" d="M88 578q0 141 31.5 278t113 231.5t220.5 94.5q130 0 204 -55t105 -145t36 -159.5t11 -261.5h-553q1 -50 2.5 -136.5t18.5 -156.5t61 -114.5t123 -44.5q188 0 188 274h152q0 -93 -21.5 -168t-65 -130.5t-108.5 -85.5t-149 -30q-113 0 -195 58t-128 192.5t-46 358.5z M256 694h385q-5 117 -13 178.5t-48 115.5t-125 54q-67 0 -106.5 -32.5t-58 -83t-23.5 -91t-11 -141.5zM319 1290l183 293h223l-268 -293h-138z" />
<glyph unicode="&#xea;" horiz-adv-x="909" d="M88 578q0 141 31.5 278t113 231.5t220.5 94.5q130 0 204 -55t105 -145t36 -159.5t11 -261.5h-553q1 -50 2.5 -136.5t18.5 -156.5t61 -114.5t123 -44.5q188 0 188 274h152q0 -93 -21.5 -168t-65 -130.5t-108.5 -85.5t-149 -30q-113 0 -195 58t-128 192.5t-46 358.5z M158 1290l202 293h191l205 -293h-164l-135 195l-135 -195h-164zM256 694h385q-5 117 -13 178.5t-48 115.5t-125 54q-67 0 -106.5 -32.5t-58 -83t-23.5 -91t-11 -141.5z" />
<glyph unicode="&#xeb;" horiz-adv-x="909" d="M88 578q0 141 31.5 278t113 231.5t220.5 94.5q130 0 204 -55t105 -145t36 -159.5t11 -261.5h-553q1 -50 2.5 -136.5t18.5 -156.5t61 -114.5t123 -44.5q188 0 188 274h152q0 -93 -21.5 -168t-65 -130.5t-108.5 -85.5t-149 -30q-113 0 -195 58t-128 192.5t-46 358.5z M221 1346v206h162v-206h-162zM256 694h385q-5 117 -13 178.5t-48 115.5t-125 54q-67 0 -106.5 -32.5t-58 -83t-23.5 -91t-11 -141.5zM528 1346v206h162v-206h-162z" />
<glyph unicode="&#xec;" horiz-adv-x="569" d="M-41 1583h223l183 -293h-138zM147 0v1151h162v-1151h-162z" />
<glyph unicode="&#xed;" horiz-adv-x="569" d="M92 1290l182 293h224l-269 -293h-137zM147 0v1151h162v-1151h-162z" />
<glyph unicode="&#xee;" horiz-adv-x="569" d="M-70 1290l203 293h191l204 -293h-163l-136 195l-135 -195h-164zM147 0v1151h162v-1151h-162z" />
<glyph unicode="&#xef;" horiz-adv-x="569" d="M-6 1346v206h162v-206h-162zM147 0v1151h162v-1151h-162zM301 1346v206h162v-206h-162z" />
<glyph unicode="&#xf0;" d="M86 614q0 161 43 301q24 82 78 143t128.5 92.5t158.5 31.5q103 0 190 -49q-33 153 -80 215l-135 -105l-78 94l109 84q-38 13 -80.5 18t-101 7.5t-109.5 5.5v100q340 0 407 -45l113 86l78 -96l-88 -65q39 -43 71 -109t57 -163.5t39.5 -231t14.5 -314.5q0 -107 -9 -195 t-36 -175q-30 -96 -78 -156t-115.5 -89.5t-152.5 -29.5q-150 0 -242 66.5t-137 208.5q-27 94 -36 178.5t-9 191.5zM254 563q0 -220 54 -337t188 -117q133 0 185 116t52 338q0 170 -24.5 276.5t-76 154.5t-136.5 48q-65 0 -110 -26.5t-74 -84.5t-43.5 -150t-14.5 -218z" />
<glyph unicode="&#xf1;" d="M150 0v1151h157v-127q66 79 134 118.5t155 39.5q132 0 206.5 -74t74.5 -221v-887h-162v842q0 98 -38.5 149t-131.5 51q-94 0 -160 -63q-44 -40 -59 -89t-15 -120v-770h-161zM166 1309q5 61 31 112.5t71.5 82t106.5 30.5q37 0 145 -37l49 -18q24 -9 52.5 -16t48.5 -7 q34 0 62.5 29.5t31.5 64.5h98q-8 -96 -62.5 -161.5t-146.5 -65.5q-19 0 -43 6t-43 13l-59 20q-63 23 -89.5 32t-60.5 9t-62.5 -29.5t-31.5 -64.5h-98z" />
<glyph unicode="&#xf2;" d="M104 614q0 176 44 303.5t135 196t229 68.5t229 -68.5t135 -196t44 -303.5q0 -243 -48.5 -384.5t-138 -201t-221.5 -59.5q-128 0 -218.5 60t-140 203t-49.5 382zM244 1583h223l182 -293h-137zM272 563q0 -221 53.5 -337.5t186.5 -116.5q137 0 188.5 116t51.5 338 q0 170 -24.5 277t-77 154.5t-138.5 47.5q-63 0 -108 -26.5t-74 -84.5t-43.5 -150t-14.5 -218z" />
<glyph unicode="&#xf3;" d="M104 614q0 176 44 303.5t135 196t229 68.5t229 -68.5t135 -196t44 -303.5q0 -243 -48.5 -384.5t-138 -201t-221.5 -59.5q-128 0 -218.5 60t-140 203t-49.5 382zM272 563q0 -221 53.5 -337.5t186.5 -116.5q137 0 188.5 116t51.5 338q0 170 -24.5 277t-77 154.5 t-138.5 47.5q-63 0 -108 -26.5t-74 -84.5t-43.5 -150t-14.5 -218zM377 1290l182 293h223l-268 -293h-137z" />
<glyph unicode="&#xf4;" d="M104 614q0 176 44 303.5t135 196t229 68.5t229 -68.5t135 -196t44 -303.5q0 -243 -48.5 -384.5t-138 -201t-221.5 -59.5q-128 0 -218.5 60t-140 203t-49.5 382zM215 1290l203 293h190l205 -293h-164l-135 195l-135 -195h-164zM272 563q0 -221 53.5 -337.5t186.5 -116.5 q137 0 188.5 116t51.5 338q0 170 -24.5 277t-77 154.5t-138.5 47.5q-63 0 -108 -26.5t-74 -84.5t-43.5 -150t-14.5 -218z" />
<glyph unicode="&#xf5;" d="M104 614q0 176 44 303.5t135 196t229 68.5t229 -68.5t135 -196t44 -303.5q0 -243 -48.5 -384.5t-138 -201t-221.5 -59.5q-128 0 -218.5 60t-140 203t-49.5 382zM166 1309q5 61 31 112.5t71.5 82t106.5 30.5q37 0 145 -37l49 -18q24 -9 52.5 -16t48.5 -7q34 0 62.5 29.5 t31.5 64.5h98q-8 -96 -62.5 -161.5t-146.5 -65.5q-19 0 -43 6t-43 13l-59 20q-63 23 -89.5 32t-60.5 9t-62.5 -29.5t-31.5 -64.5h-98zM272 563q0 -221 53.5 -337.5t186.5 -116.5q137 0 188.5 116t51.5 338q0 170 -24.5 277t-77 154.5t-138.5 47.5q-63 0 -108 -26.5 t-74 -84.5t-43.5 -150t-14.5 -218z" />
<glyph unicode="&#xf6;" d="M104 614q0 176 44 303.5t135 196t229 68.5t229 -68.5t135 -196t44 -303.5q0 -243 -48.5 -384.5t-138 -201t-221.5 -59.5q-128 0 -218.5 60t-140 203t-49.5 382zM272 563q0 -221 53.5 -337.5t186.5 -116.5q137 0 188.5 116t51.5 338q0 170 -24.5 277t-77 154.5 t-138.5 47.5q-63 0 -108 -26.5t-74 -84.5t-43.5 -150t-14.5 -218zM279 1346v206h161v-206h-161zM586 1346v206h162v-206h-162z" />
<glyph unicode="&#xf7;" d="M90 453v145h846v-145h-846zM430 6v207h162v-207h-162zM430 838v206h162v-206h-162z" />
<glyph unicode="&#xf8;" d="M51 -55l139 205q-86 148 -86 466q0 177 43.5 304t135.5 194.5t229 67.5q90 0 165 -32.5t128 -98.5l104 153l58 -47l-117 -172q28 -49 49 -154.5t21 -214.5q0 -239 -49 -382t-137 -204t-206 -61q-195 0 -292 113l-121 -176zM272 565q0 -111 29 -252l404 590 q-51 139 -191 139q-85 0 -138 -47.5t-78.5 -152t-25.5 -277.5zM332 223q56 -114 182 -114q92 0 144.5 55.5t73 154.5t20.5 246q0 144 -23 244z" />
<glyph unicode="&#xf9;" d="M158 262v889h161v-895q0 -76 32 -111.5t114 -35.5q57 0 109 25.5t85 74.5q48 74 48 203v739h161v-1151h-161v152h-5q-25 -56 -68 -98.5t-94.5 -63.5t-107.5 -21q-130 0 -202 72.5t-72 220.5zM244 1583h223l182 -293h-137z" />
<glyph unicode="&#xfa;" d="M158 262v889h161v-895q0 -76 32 -111.5t114 -35.5q57 0 109 25.5t85 74.5q48 74 48 203v739h161v-1151h-161v152h-5q-25 -56 -68 -98.5t-94.5 -63.5t-107.5 -21q-130 0 -202 72.5t-72 220.5zM377 1290l182 293h223l-268 -293h-137z" />
<glyph unicode="&#xfb;" d="M158 262v889h161v-895q0 -76 32 -111.5t114 -35.5q57 0 109 25.5t85 74.5q48 74 48 203v739h161v-1151h-161v152h-5q-25 -56 -68 -98.5t-94.5 -63.5t-107.5 -21q-130 0 -202 72.5t-72 220.5zM215 1290l203 293h190l205 -293h-164l-135 195l-135 -195h-164z" />
<glyph unicode="&#xfc;" d="M158 262v889h161v-895q0 -76 32 -111.5t114 -35.5q57 0 109 25.5t85 74.5q48 74 48 203v739h161v-1151h-161v152h-5q-25 -56 -68 -98.5t-94.5 -63.5t-107.5 -21q-130 0 -202 72.5t-72 220.5zM279 1346v206h161v-206h-161zM586 1346v206h162v-206h-162z" />
<glyph unicode="&#xfd;" horiz-adv-x="909" d="M10 1151h168l256 -997h4l264 997h168l-338 -1100q-26 -87 -54 -171.5t-50 -121.5q-43 -80 -106 -115.5t-154 -35.5q-58 0 -117 18v146q54 -25 121 -25q71 0 106 30t55 84l40 113zM319 1290l183 293h223l-268 -293h-138z" />
<glyph unicode="&#xfe;" d="M147 -389v1941h156v-530h4q38 76 100 115.5t136 44.5q103 0 176.5 -47.5t115.5 -124t61 -168.5t19 -191q0 -142 -15.5 -258.5t-54.5 -212.5t-111.5 -153.5t-182.5 -57.5q-79 0 -135.5 38t-106.5 114v-510h-162zM309 578q0 -127 12.5 -226.5t60 -171t144.5 -71.5 q122 0 172 120.5t50 366.5q0 446 -224 446q-96 0 -144 -76t-59.5 -170.5t-11.5 -217.5z" />
<glyph unicode="&#xff;" horiz-adv-x="909" d="M10 1151h168l256 -997h4l264 997h168l-338 -1100q-26 -87 -54 -171.5t-50 -121.5q-43 -80 -106 -115.5t-154 -35.5q-58 0 -117 18v146q54 -25 121 -25q71 0 106 30t55 84l40 113zM221 1346v206h162v-206h-162zM528 1346v206h162v-206h-162z" />
<glyph unicode="&#x152;" horiz-adv-x="1706" d="M115 774q3 138 6 186t11 107.5t25.5 126t45.5 127.5q36 83 94.5 142t134 89.5t162.5 30.5q84 0 159 -42t132 -122h4v133h723v-155h-563v-510h526v-154h-526v-577h559v-156h-719v123h-4q-69 -84 -130.5 -120.5t-148.5 -39.5q-314 0 -430 326q-61 202 -61 485zM291 735 q0 -246 57.5 -431t247.5 -185q90 0 150 35.5t93 122.5t33 235v604q0 154 -68.5 232.5t-189.5 78.5q-114 0 -188.5 -66.5t-99.5 -197.5q-16 -87 -25.5 -207t-9.5 -221z" />
<glyph unicode="&#x153;" horiz-adv-x="1479" d="M82 598q0 197 42 328t125.5 193.5t207.5 62.5q96 0 178 -41t131 -121q46 78 111.5 120t150.5 42q146 0 225.5 -79.5t105 -188t25.5 -226.5q0 -34 -2 -76t-2 -45h-532l2 -114q2 -153 36.5 -248.5t155.5 -95.5q71 0 109 39.5t51.5 93t24.5 139.5h153q-5 -93 -37 -187 t-104 -159.5t-188 -65.5q-196 0 -291 166q-48 -77 -124 -121.5t-165 -44.5q-130 0 -210.5 55t-118.5 145t-49 191.5t-11 237.5zM250 551q0 -123 12 -216t60 -159.5t147 -66.5q94 0 140 52t59.5 151.5t13.5 279.5q0 168 -18.5 264.5t-62.5 141t-122 44.5q-102 0 -152.5 -73 t-63.5 -176t-13 -242zM848 700h379q-2 44 -5.5 111.5t-17.5 117t-51.5 81.5t-105.5 32q-86 0 -129 -52.5t-54 -120.5t-16 -169z" />
<glyph unicode="&#x178;" horiz-adv-x="1139" d="M23 1552h188l358 -778l361 778h188l-465 -950v-602h-170v602zM336 1747v207h162v-207h-162zM643 1747v207h162v-207h-162z" />
<glyph unicode="&#x2c6;" horiz-adv-x="682" d="M43 1290l203 293h190l205 -293h-164l-135 195l-135 -195h-164z" />
<glyph unicode="&#x2dc;" horiz-adv-x="682" d="M-6 1309q5 61 31 112.5t71.5 82t106.5 30.5q37 0 145 -37l49 -18q24 -9 52.5 -16t48.5 -7q34 0 62.5 29.5t31.5 62.5h98q-5 -60 -31 -112t-71.5 -82.5t-106.5 -30.5q-19 0 -43 6t-43 13l-59 20q-63 23 -89.5 32t-60.5 9t-62.5 -29.5t-31.5 -64.5h-98z" />
<glyph unicode="&#x2000;" horiz-adv-x="1023" />
<glyph unicode="&#x2001;" horiz-adv-x="2047" />
<glyph unicode="&#x2002;" horiz-adv-x="1023" />
<glyph unicode="&#x2003;" horiz-adv-x="2047" />
<glyph unicode="&#x2004;" horiz-adv-x="682" />
<glyph unicode="&#x2005;" horiz-adv-x="511" />
<glyph unicode="&#x2006;" horiz-adv-x="341" />
<glyph unicode="&#x2007;" horiz-adv-x="341" />
<glyph unicode="&#x2008;" horiz-adv-x="255" />
<glyph unicode="&#x2009;" horiz-adv-x="409" />
<glyph unicode="&#x200a;" horiz-adv-x="113" />
<glyph unicode="&#x2010;" horiz-adv-x="682" d="M92 569v172h498v-172h-498z" />
<glyph unicode="&#x2011;" horiz-adv-x="682" d="M92 569v172h498v-172h-498z" />
<glyph unicode="&#x2012;" horiz-adv-x="682" d="M92 569v172h498v-172h-498z" />
<glyph unicode="&#x2013;" d="M0 569v144h1024v-144h-1024z" />
<glyph unicode="&#x2014;" horiz-adv-x="2048" d="M0 569v144h2048v-144h-2048z" />
<glyph unicode="&#x2018;" horiz-adv-x="455" d="M131 1077l2 205q2 75 18 133t58 103.5t115 68.5v-94q-101 -21 -101 -211h101v-205h-193z" />
<glyph unicode="&#x2019;" horiz-adv-x="455" d="M131 1042v93q100 23 100 213h-100v204h193v-202q0 -251 -193 -308z" />
<glyph unicode="&#x201a;" horiz-adv-x="455" d="M131 2v205h193v-207q0 -72 -17.5 -131t-59.5 -103.5t-116 -66.5v92q100 22 100 211h-100z" />
<glyph unicode="&#x201c;" horiz-adv-x="797" d="M127 1077l2 205q2 111 43.5 192.5t146.5 112.5v-94q-100 -20 -100 -211h100v-205h-192zM477 1077v205q0 110 43.5 191.5t149.5 113.5v-94q-101 -21 -101 -211h101v-205h-193z" />
<glyph unicode="&#x201d;" horiz-adv-x="797" d="M127 1042v93q100 23 100 213h-100v204h192v-204q0 -250 -192 -306zM477 1042v93q101 23 101 213h-101v204h193l-2 -204q-2 -114 -43.5 -194t-147.5 -112z" />
<glyph unicode="&#x201e;" horiz-adv-x="797" d="M127 0v207h192v-207q0 -245 -192 -301v92q100 22 100 209h-100zM477 0v207h193l-2 -207q-2 -109 -42.5 -188.5t-148.5 -112.5v92q59 13 80 73.5t21 135.5h-101z" />
<glyph unicode="&#x2022;" horiz-adv-x="682" d="M31 776q0 86 42 159t113.5 116t153.5 43q63 0 119.5 -24t100 -68.5t67.5 -103t24 -122.5q0 -63 -23.5 -120t-66.5 -101.5t-100.5 -70t-120.5 -25.5q-127 0 -218 94t-91 223z" />
<glyph unicode="&#x2026;" horiz-adv-x="2048" d="M248 0v207h186v-207h-186zM930 0v207h186v-207h-186zM1612 0v207h186v-207h-186z" />
<glyph unicode="&#x202f;" horiz-adv-x="409" />
<glyph unicode="&#x2039;" horiz-adv-x="569" d="M131 582v125l309 317v-172l-204 -211l204 -211v-172z" />
<glyph unicode="&#x203a;" horiz-adv-x="569" d="M129 258v172l205 211l-205 211v172l309 -324v-125z" />
<glyph unicode="&#x205f;" horiz-adv-x="511" />
<glyph unicode="&#x2122;" horiz-adv-x="1536" d="M0 1427v125h573v-125h-223v-747h-125v747h-225zM696 680v872h183l202 -614l211 614h181v-872h-113v747h-4l-242 -747h-65l-236 747h-4v-747h-113z" />
<glyph unicode="&#xe000;" horiz-adv-x="1150" d="M0 1150h1150v-1150h-1150v1150z" />
<glyph unicode="&#xfb01;" d="M25 1012v139h163v96q0 164 41 221q61 88 220 88q25 0 81 -4v-139q-48 4 -63 4q-65 0 -90 -29.5t-25 -115.5v-121h178v-139h-178v-1012h-162v1012h-165zM716 0v1151h162v-1151h-162zM716 1346v206h162v-206h-162z" />
<glyph unicode="&#xfb02;" d="M25 1012v139h163v96q0 164 41 221q61 88 220 88q25 0 81 -4v-139q-48 4 -63 4q-65 0 -90 -29.5t-25 -115.5v-121h178v-139h-178v-1012h-162v1012h-165zM716 0v1552h162v-1552h-162z" />
<glyph unicode="&#xfb03;" horiz-adv-x="1593" d="M25 1012v139h163v96q0 164 41 221q61 88 220 88q25 0 81 -4v-139q-48 4 -63 4q-65 0 -90 -29.5t-25 -115.5v-121h178v-139h-178v-1012h-162v1012h-165zM594 1012v139h163v96q0 164 41 221q61 88 220 88q25 0 81 -4v-139q-48 4 -63 4q-65 0 -90 -29.5t-25 -115.5v-121h178 v-139h-178v-1012h-162v1012h-165zM1285 0v1151h162v-1151h-162zM1285 1346v206h162v-206h-162z" />
<glyph unicode="&#xfb04;" horiz-adv-x="1593" d="M25 1012v139h163v96q0 164 41 221q61 88 220 88q25 0 81 -4v-139q-48 4 -63 4q-65 0 -90 -29.5t-25 -115.5v-121h178v-139h-178v-1012h-162v1012h-165zM594 1012v139h163v96q0 164 41 221q61 88 220 88q25 0 81 -4v-139q-48 4 -63 4q-65 0 -90 -29.5t-25 -115.5v-121h178 v-139h-178v-1012h-162v1012h-165zM1285 0v1552h162v-1552h-162z" />
</font>
</defs>
</svg>
